%TF.GenerationSoftware,KiCad,Pcbnew,10.0.6*%
%TF.CreationDate,2026-10-04T21:55:50-07:00*%
%TF.ProjectId,Bivalve_Bit_Heart_Discrete,42697661-6c76-4655-9f42-69745f486561,rev?*%
%TF.SameCoordinates,Original*%
%TF.FileFunction,Legend,Bot*%
%TF.FilePolarity,Positive*%
%FSLAX46Y46*%
G04 Gerber Fmt 4.6, Leading zero omitted, Abs format (unit mm)*
G04 Created by KiCad (PCBNEW 10.0.6) date 2026-10-04 21:55:50*
%MOMM*%
%LPD*%
G01*
G04 APERTURE LIST*
%ADD10C,0.100000*%
%ADD11C,0.127000*%
G04 APERTURE END LIST*
D10*
X144164622Y-98852455D02*
X144197956Y-98819122D01*
X144197956Y-98819122D02*
X144231289Y-98719122D01*
X144231289Y-98719122D02*
X144231289Y-98652455D01*
X144231289Y-98652455D02*
X144197956Y-98552455D01*
X144197956Y-98552455D02*
X144131289Y-98485789D01*
X144131289Y-98485789D02*
X144064622Y-98452455D01*
X144064622Y-98452455D02*
X143931289Y-98419122D01*
X143931289Y-98419122D02*
X143831289Y-98419122D01*
X143831289Y-98419122D02*
X143697956Y-98452455D01*
X143697956Y-98452455D02*
X143631289Y-98485789D01*
X143631289Y-98485789D02*
X143564622Y-98552455D01*
X143564622Y-98552455D02*
X143531289Y-98652455D01*
X143531289Y-98652455D02*
X143531289Y-98719122D01*
X143531289Y-98719122D02*
X143564622Y-98819122D01*
X143564622Y-98819122D02*
X143597956Y-98852455D01*
X144164622Y-99152455D02*
X144197956Y-99185789D01*
X144197956Y-99185789D02*
X144231289Y-99152455D01*
X144231289Y-99152455D02*
X144197956Y-99119122D01*
X144197956Y-99119122D02*
X144164622Y-99152455D01*
X144164622Y-99152455D02*
X144231289Y-99152455D01*
X143531289Y-99419122D02*
X144231289Y-99585788D01*
X144231289Y-99585788D02*
X143731289Y-99719122D01*
X143731289Y-99719122D02*
X144231289Y-99852455D01*
X144231289Y-99852455D02*
X143531289Y-100019122D01*
X144164622Y-100285788D02*
X144197956Y-100319122D01*
X144197956Y-100319122D02*
X144231289Y-100285788D01*
X144231289Y-100285788D02*
X144197956Y-100252455D01*
X144197956Y-100252455D02*
X144164622Y-100285788D01*
X144164622Y-100285788D02*
X144231289Y-100285788D01*
X144197956Y-101119121D02*
X144231289Y-101219121D01*
X144231289Y-101219121D02*
X144231289Y-101385788D01*
X144231289Y-101385788D02*
X144197956Y-101452454D01*
X144197956Y-101452454D02*
X144164622Y-101485788D01*
X144164622Y-101485788D02*
X144097956Y-101519121D01*
X144097956Y-101519121D02*
X144031289Y-101519121D01*
X144031289Y-101519121D02*
X143964622Y-101485788D01*
X143964622Y-101485788D02*
X143931289Y-101452454D01*
X143931289Y-101452454D02*
X143897956Y-101385788D01*
X143897956Y-101385788D02*
X143864622Y-101252454D01*
X143864622Y-101252454D02*
X143831289Y-101185788D01*
X143831289Y-101185788D02*
X143797956Y-101152454D01*
X143797956Y-101152454D02*
X143731289Y-101119121D01*
X143731289Y-101119121D02*
X143664622Y-101119121D01*
X143664622Y-101119121D02*
X143597956Y-101152454D01*
X143597956Y-101152454D02*
X143564622Y-101185788D01*
X143564622Y-101185788D02*
X143531289Y-101252454D01*
X143531289Y-101252454D02*
X143531289Y-101419121D01*
X143531289Y-101419121D02*
X143564622Y-101519121D01*
X144231289Y-102119121D02*
X143864622Y-102119121D01*
X143864622Y-102119121D02*
X143797956Y-102085788D01*
X143797956Y-102085788D02*
X143764622Y-102019121D01*
X143764622Y-102019121D02*
X143764622Y-101885788D01*
X143764622Y-101885788D02*
X143797956Y-101819121D01*
X144197956Y-102119121D02*
X144231289Y-102052455D01*
X144231289Y-102052455D02*
X144231289Y-101885788D01*
X144231289Y-101885788D02*
X144197956Y-101819121D01*
X144197956Y-101819121D02*
X144131289Y-101785788D01*
X144131289Y-101785788D02*
X144064622Y-101785788D01*
X144064622Y-101785788D02*
X143997956Y-101819121D01*
X143997956Y-101819121D02*
X143964622Y-101885788D01*
X143964622Y-101885788D02*
X143964622Y-102052455D01*
X143964622Y-102052455D02*
X143931289Y-102119121D01*
X143764622Y-102452454D02*
X144231289Y-102452454D01*
X143831289Y-102452454D02*
X143797956Y-102485788D01*
X143797956Y-102485788D02*
X143764622Y-102552454D01*
X143764622Y-102552454D02*
X143764622Y-102652454D01*
X143764622Y-102652454D02*
X143797956Y-102719121D01*
X143797956Y-102719121D02*
X143864622Y-102752454D01*
X143864622Y-102752454D02*
X144231289Y-102752454D01*
X144231289Y-103385787D02*
X143531289Y-103385787D01*
X144197956Y-103385787D02*
X144231289Y-103319121D01*
X144231289Y-103319121D02*
X144231289Y-103185787D01*
X144231289Y-103185787D02*
X144197956Y-103119121D01*
X144197956Y-103119121D02*
X144164622Y-103085787D01*
X144164622Y-103085787D02*
X144097956Y-103052454D01*
X144097956Y-103052454D02*
X143897956Y-103052454D01*
X143897956Y-103052454D02*
X143831289Y-103085787D01*
X143831289Y-103085787D02*
X143797956Y-103119121D01*
X143797956Y-103119121D02*
X143764622Y-103185787D01*
X143764622Y-103185787D02*
X143764622Y-103319121D01*
X143764622Y-103319121D02*
X143797956Y-103385787D01*
X144197956Y-103985787D02*
X144231289Y-103919120D01*
X144231289Y-103919120D02*
X144231289Y-103785787D01*
X144231289Y-103785787D02*
X144197956Y-103719120D01*
X144197956Y-103719120D02*
X144131289Y-103685787D01*
X144131289Y-103685787D02*
X143864622Y-103685787D01*
X143864622Y-103685787D02*
X143797956Y-103719120D01*
X143797956Y-103719120D02*
X143764622Y-103785787D01*
X143764622Y-103785787D02*
X143764622Y-103919120D01*
X143764622Y-103919120D02*
X143797956Y-103985787D01*
X143797956Y-103985787D02*
X143864622Y-104019120D01*
X143864622Y-104019120D02*
X143931289Y-104019120D01*
X143931289Y-104019120D02*
X143997956Y-103685787D01*
X144231289Y-104319120D02*
X143764622Y-104319120D01*
X143897956Y-104319120D02*
X143831289Y-104352454D01*
X143831289Y-104352454D02*
X143797956Y-104385787D01*
X143797956Y-104385787D02*
X143764622Y-104452454D01*
X143764622Y-104452454D02*
X143764622Y-104519120D01*
X144197956Y-104719120D02*
X144231289Y-104785787D01*
X144231289Y-104785787D02*
X144231289Y-104919120D01*
X144231289Y-104919120D02*
X144197956Y-104985787D01*
X144197956Y-104985787D02*
X144131289Y-105019120D01*
X144131289Y-105019120D02*
X144097956Y-105019120D01*
X144097956Y-105019120D02*
X144031289Y-104985787D01*
X144031289Y-104985787D02*
X143997956Y-104919120D01*
X143997956Y-104919120D02*
X143997956Y-104819120D01*
X143997956Y-104819120D02*
X143964622Y-104752453D01*
X143964622Y-104752453D02*
X143897956Y-104719120D01*
X143897956Y-104719120D02*
X143864622Y-104719120D01*
X143864622Y-104719120D02*
X143797956Y-104752453D01*
X143797956Y-104752453D02*
X143764622Y-104819120D01*
X143764622Y-104819120D02*
X143764622Y-104919120D01*
X143764622Y-104919120D02*
X143797956Y-104985787D01*
X143597956Y-105819120D02*
X143564622Y-105852453D01*
X143564622Y-105852453D02*
X143531289Y-105919120D01*
X143531289Y-105919120D02*
X143531289Y-106085787D01*
X143531289Y-106085787D02*
X143564622Y-106152453D01*
X143564622Y-106152453D02*
X143597956Y-106185787D01*
X143597956Y-106185787D02*
X143664622Y-106219120D01*
X143664622Y-106219120D02*
X143731289Y-106219120D01*
X143731289Y-106219120D02*
X143831289Y-106185787D01*
X143831289Y-106185787D02*
X144231289Y-105785787D01*
X144231289Y-105785787D02*
X144231289Y-106219120D01*
X143531289Y-106652454D02*
X143531289Y-106719120D01*
X143531289Y-106719120D02*
X143564622Y-106785787D01*
X143564622Y-106785787D02*
X143597956Y-106819120D01*
X143597956Y-106819120D02*
X143664622Y-106852454D01*
X143664622Y-106852454D02*
X143797956Y-106885787D01*
X143797956Y-106885787D02*
X143964622Y-106885787D01*
X143964622Y-106885787D02*
X144097956Y-106852454D01*
X144097956Y-106852454D02*
X144164622Y-106819120D01*
X144164622Y-106819120D02*
X144197956Y-106785787D01*
X144197956Y-106785787D02*
X144231289Y-106719120D01*
X144231289Y-106719120D02*
X144231289Y-106652454D01*
X144231289Y-106652454D02*
X144197956Y-106585787D01*
X144197956Y-106585787D02*
X144164622Y-106552454D01*
X144164622Y-106552454D02*
X144097956Y-106519120D01*
X144097956Y-106519120D02*
X143964622Y-106485787D01*
X143964622Y-106485787D02*
X143797956Y-106485787D01*
X143797956Y-106485787D02*
X143664622Y-106519120D01*
X143664622Y-106519120D02*
X143597956Y-106552454D01*
X143597956Y-106552454D02*
X143564622Y-106585787D01*
X143564622Y-106585787D02*
X143531289Y-106652454D01*
X143597956Y-107152454D02*
X143564622Y-107185787D01*
X143564622Y-107185787D02*
X143531289Y-107252454D01*
X143531289Y-107252454D02*
X143531289Y-107419121D01*
X143531289Y-107419121D02*
X143564622Y-107485787D01*
X143564622Y-107485787D02*
X143597956Y-107519121D01*
X143597956Y-107519121D02*
X143664622Y-107552454D01*
X143664622Y-107552454D02*
X143731289Y-107552454D01*
X143731289Y-107552454D02*
X143831289Y-107519121D01*
X143831289Y-107519121D02*
X144231289Y-107119121D01*
X144231289Y-107119121D02*
X144231289Y-107552454D01*
X143531289Y-108152454D02*
X143531289Y-108019121D01*
X143531289Y-108019121D02*
X143564622Y-107952454D01*
X143564622Y-107952454D02*
X143597956Y-107919121D01*
X143597956Y-107919121D02*
X143697956Y-107852454D01*
X143697956Y-107852454D02*
X143831289Y-107819121D01*
X143831289Y-107819121D02*
X144097956Y-107819121D01*
X144097956Y-107819121D02*
X144164622Y-107852454D01*
X144164622Y-107852454D02*
X144197956Y-107885788D01*
X144197956Y-107885788D02*
X144231289Y-107952454D01*
X144231289Y-107952454D02*
X144231289Y-108085788D01*
X144231289Y-108085788D02*
X144197956Y-108152454D01*
X144197956Y-108152454D02*
X144164622Y-108185788D01*
X144164622Y-108185788D02*
X144097956Y-108219121D01*
X144097956Y-108219121D02*
X143931289Y-108219121D01*
X143931289Y-108219121D02*
X143864622Y-108185788D01*
X143864622Y-108185788D02*
X143831289Y-108152454D01*
X143831289Y-108152454D02*
X143797956Y-108085788D01*
X143797956Y-108085788D02*
X143797956Y-107952454D01*
X143797956Y-107952454D02*
X143831289Y-107885788D01*
X143831289Y-107885788D02*
X143864622Y-107852454D01*
X143864622Y-107852454D02*
X143931289Y-107819121D01*
X145358250Y-98452455D02*
X144891583Y-98452455D01*
X144958250Y-98452455D02*
X144924917Y-98485789D01*
X144924917Y-98485789D02*
X144891583Y-98552455D01*
X144891583Y-98552455D02*
X144891583Y-98652455D01*
X144891583Y-98652455D02*
X144924917Y-98719122D01*
X144924917Y-98719122D02*
X144991583Y-98752455D01*
X144991583Y-98752455D02*
X145358250Y-98752455D01*
X144991583Y-98752455D02*
X144924917Y-98785789D01*
X144924917Y-98785789D02*
X144891583Y-98852455D01*
X144891583Y-98852455D02*
X144891583Y-98952455D01*
X144891583Y-98952455D02*
X144924917Y-99019122D01*
X144924917Y-99019122D02*
X144991583Y-99052455D01*
X144991583Y-99052455D02*
X145358250Y-99052455D01*
X145358250Y-99385788D02*
X144891583Y-99385788D01*
X144658250Y-99385788D02*
X144691583Y-99352455D01*
X144691583Y-99352455D02*
X144724917Y-99385788D01*
X144724917Y-99385788D02*
X144691583Y-99419122D01*
X144691583Y-99419122D02*
X144658250Y-99385788D01*
X144658250Y-99385788D02*
X144724917Y-99385788D01*
X145358250Y-99819121D02*
X145324917Y-99752455D01*
X145324917Y-99752455D02*
X145258250Y-99719121D01*
X145258250Y-99719121D02*
X144658250Y-99719121D01*
X145358250Y-100185788D02*
X145324917Y-100119122D01*
X145324917Y-100119122D02*
X145258250Y-100085788D01*
X145258250Y-100085788D02*
X144658250Y-100085788D01*
X145324917Y-100719122D02*
X145358250Y-100652455D01*
X145358250Y-100652455D02*
X145358250Y-100519122D01*
X145358250Y-100519122D02*
X145324917Y-100452455D01*
X145324917Y-100452455D02*
X145258250Y-100419122D01*
X145258250Y-100419122D02*
X144991583Y-100419122D01*
X144991583Y-100419122D02*
X144924917Y-100452455D01*
X144924917Y-100452455D02*
X144891583Y-100519122D01*
X144891583Y-100519122D02*
X144891583Y-100652455D01*
X144891583Y-100652455D02*
X144924917Y-100719122D01*
X144924917Y-100719122D02*
X144991583Y-100752455D01*
X144991583Y-100752455D02*
X145058250Y-100752455D01*
X145058250Y-100752455D02*
X145124917Y-100419122D01*
X145358250Y-101052455D02*
X144891583Y-101052455D01*
X145024917Y-101052455D02*
X144958250Y-101085789D01*
X144958250Y-101085789D02*
X144924917Y-101119122D01*
X144924917Y-101119122D02*
X144891583Y-101185789D01*
X144891583Y-101185789D02*
X144891583Y-101252455D01*
X145358250Y-101819122D02*
X145358250Y-101485788D01*
X145358250Y-101485788D02*
X144658250Y-101485788D01*
X145358250Y-102052455D02*
X144658250Y-102052455D01*
X144658250Y-102052455D02*
X144658250Y-102319122D01*
X144658250Y-102319122D02*
X144691583Y-102385789D01*
X144691583Y-102385789D02*
X144724917Y-102419122D01*
X144724917Y-102419122D02*
X144791583Y-102452455D01*
X144791583Y-102452455D02*
X144891583Y-102452455D01*
X144891583Y-102452455D02*
X144958250Y-102419122D01*
X144958250Y-102419122D02*
X144991583Y-102385789D01*
X144991583Y-102385789D02*
X145024917Y-102319122D01*
X145024917Y-102319122D02*
X145024917Y-102052455D01*
X145024917Y-103185789D02*
X144991583Y-103152455D01*
X144991583Y-103152455D02*
X144958250Y-103085789D01*
X144958250Y-103085789D02*
X144958250Y-103019122D01*
X144958250Y-103019122D02*
X144991583Y-102952455D01*
X144991583Y-102952455D02*
X145024917Y-102919122D01*
X145024917Y-102919122D02*
X145091583Y-102885789D01*
X145091583Y-102885789D02*
X145158250Y-102885789D01*
X145158250Y-102885789D02*
X145224917Y-102919122D01*
X145224917Y-102919122D02*
X145258250Y-102952455D01*
X145258250Y-102952455D02*
X145291583Y-103019122D01*
X145291583Y-103019122D02*
X145291583Y-103085789D01*
X145291583Y-103085789D02*
X145258250Y-103152455D01*
X145258250Y-103152455D02*
X145224917Y-103185789D01*
X144958250Y-103185789D02*
X145224917Y-103185789D01*
X145224917Y-103185789D02*
X145258250Y-103219122D01*
X145258250Y-103219122D02*
X145258250Y-103252455D01*
X145258250Y-103252455D02*
X145224917Y-103319122D01*
X145224917Y-103319122D02*
X145158250Y-103352455D01*
X145158250Y-103352455D02*
X144991583Y-103352455D01*
X144991583Y-103352455D02*
X144891583Y-103285789D01*
X144891583Y-103285789D02*
X144824917Y-103185789D01*
X144824917Y-103185789D02*
X144791583Y-103052455D01*
X144791583Y-103052455D02*
X144824917Y-102919122D01*
X144824917Y-102919122D02*
X144891583Y-102819122D01*
X144891583Y-102819122D02*
X144991583Y-102752455D01*
X144991583Y-102752455D02*
X145124917Y-102719122D01*
X145124917Y-102719122D02*
X145258250Y-102752455D01*
X145258250Y-102752455D02*
X145358250Y-102819122D01*
X145358250Y-102819122D02*
X145424917Y-102919122D01*
X145424917Y-102919122D02*
X145458250Y-103052455D01*
X145458250Y-103052455D02*
X145424917Y-103185789D01*
X145424917Y-103185789D02*
X145358250Y-103285789D01*
X144891583Y-103952455D02*
X145458250Y-103952455D01*
X145458250Y-103952455D02*
X145524917Y-103919122D01*
X145524917Y-103919122D02*
X145558250Y-103885789D01*
X145558250Y-103885789D02*
X145591583Y-103819122D01*
X145591583Y-103819122D02*
X145591583Y-103719122D01*
X145591583Y-103719122D02*
X145558250Y-103652455D01*
X145324917Y-103952455D02*
X145358250Y-103885789D01*
X145358250Y-103885789D02*
X145358250Y-103752455D01*
X145358250Y-103752455D02*
X145324917Y-103685789D01*
X145324917Y-103685789D02*
X145291583Y-103652455D01*
X145291583Y-103652455D02*
X145224917Y-103619122D01*
X145224917Y-103619122D02*
X145024917Y-103619122D01*
X145024917Y-103619122D02*
X144958250Y-103652455D01*
X144958250Y-103652455D02*
X144924917Y-103685789D01*
X144924917Y-103685789D02*
X144891583Y-103752455D01*
X144891583Y-103752455D02*
X144891583Y-103885789D01*
X144891583Y-103885789D02*
X144924917Y-103952455D01*
X145358250Y-104285788D02*
X144891583Y-104285788D01*
X144958250Y-104285788D02*
X144924917Y-104319122D01*
X144924917Y-104319122D02*
X144891583Y-104385788D01*
X144891583Y-104385788D02*
X144891583Y-104485788D01*
X144891583Y-104485788D02*
X144924917Y-104552455D01*
X144924917Y-104552455D02*
X144991583Y-104585788D01*
X144991583Y-104585788D02*
X145358250Y-104585788D01*
X144991583Y-104585788D02*
X144924917Y-104619122D01*
X144924917Y-104619122D02*
X144891583Y-104685788D01*
X144891583Y-104685788D02*
X144891583Y-104785788D01*
X144891583Y-104785788D02*
X144924917Y-104852455D01*
X144924917Y-104852455D02*
X144991583Y-104885788D01*
X144991583Y-104885788D02*
X145358250Y-104885788D01*
X145358250Y-105519121D02*
X144991583Y-105519121D01*
X144991583Y-105519121D02*
X144924917Y-105485788D01*
X144924917Y-105485788D02*
X144891583Y-105419121D01*
X144891583Y-105419121D02*
X144891583Y-105285788D01*
X144891583Y-105285788D02*
X144924917Y-105219121D01*
X145324917Y-105519121D02*
X145358250Y-105452455D01*
X145358250Y-105452455D02*
X145358250Y-105285788D01*
X145358250Y-105285788D02*
X145324917Y-105219121D01*
X145324917Y-105219121D02*
X145258250Y-105185788D01*
X145258250Y-105185788D02*
X145191583Y-105185788D01*
X145191583Y-105185788D02*
X145124917Y-105219121D01*
X145124917Y-105219121D02*
X145091583Y-105285788D01*
X145091583Y-105285788D02*
X145091583Y-105452455D01*
X145091583Y-105452455D02*
X145058250Y-105519121D01*
X145358250Y-105852454D02*
X144891583Y-105852454D01*
X144658250Y-105852454D02*
X144691583Y-105819121D01*
X144691583Y-105819121D02*
X144724917Y-105852454D01*
X144724917Y-105852454D02*
X144691583Y-105885788D01*
X144691583Y-105885788D02*
X144658250Y-105852454D01*
X144658250Y-105852454D02*
X144724917Y-105852454D01*
X145358250Y-106285787D02*
X145324917Y-106219121D01*
X145324917Y-106219121D02*
X145258250Y-106185787D01*
X145258250Y-106185787D02*
X144658250Y-106185787D01*
X145291583Y-106552454D02*
X145324917Y-106585788D01*
X145324917Y-106585788D02*
X145358250Y-106552454D01*
X145358250Y-106552454D02*
X145324917Y-106519121D01*
X145324917Y-106519121D02*
X145291583Y-106552454D01*
X145291583Y-106552454D02*
X145358250Y-106552454D01*
X145324917Y-107185787D02*
X145358250Y-107119121D01*
X145358250Y-107119121D02*
X145358250Y-106985787D01*
X145358250Y-106985787D02*
X145324917Y-106919121D01*
X145324917Y-106919121D02*
X145291583Y-106885787D01*
X145291583Y-106885787D02*
X145224917Y-106852454D01*
X145224917Y-106852454D02*
X145024917Y-106852454D01*
X145024917Y-106852454D02*
X144958250Y-106885787D01*
X144958250Y-106885787D02*
X144924917Y-106919121D01*
X144924917Y-106919121D02*
X144891583Y-106985787D01*
X144891583Y-106985787D02*
X144891583Y-107119121D01*
X144891583Y-107119121D02*
X144924917Y-107185787D01*
X145358250Y-107585787D02*
X145324917Y-107519121D01*
X145324917Y-107519121D02*
X145291583Y-107485787D01*
X145291583Y-107485787D02*
X145224917Y-107452454D01*
X145224917Y-107452454D02*
X145024917Y-107452454D01*
X145024917Y-107452454D02*
X144958250Y-107485787D01*
X144958250Y-107485787D02*
X144924917Y-107519121D01*
X144924917Y-107519121D02*
X144891583Y-107585787D01*
X144891583Y-107585787D02*
X144891583Y-107685787D01*
X144891583Y-107685787D02*
X144924917Y-107752454D01*
X144924917Y-107752454D02*
X144958250Y-107785787D01*
X144958250Y-107785787D02*
X145024917Y-107819121D01*
X145024917Y-107819121D02*
X145224917Y-107819121D01*
X145224917Y-107819121D02*
X145291583Y-107785787D01*
X145291583Y-107785787D02*
X145324917Y-107752454D01*
X145324917Y-107752454D02*
X145358250Y-107685787D01*
X145358250Y-107685787D02*
X145358250Y-107585787D01*
X145358250Y-108119120D02*
X144891583Y-108119120D01*
X144958250Y-108119120D02*
X144924917Y-108152454D01*
X144924917Y-108152454D02*
X144891583Y-108219120D01*
X144891583Y-108219120D02*
X144891583Y-108319120D01*
X144891583Y-108319120D02*
X144924917Y-108385787D01*
X144924917Y-108385787D02*
X144991583Y-108419120D01*
X144991583Y-108419120D02*
X145358250Y-108419120D01*
X144991583Y-108419120D02*
X144924917Y-108452454D01*
X144924917Y-108452454D02*
X144891583Y-108519120D01*
X144891583Y-108519120D02*
X144891583Y-108619120D01*
X144891583Y-108619120D02*
X144924917Y-108685787D01*
X144924917Y-108685787D02*
X144991583Y-108719120D01*
X144991583Y-108719120D02*
X145358250Y-108719120D01*
X146485211Y-98452455D02*
X145785211Y-98452455D01*
X145785211Y-98452455D02*
X146285211Y-98685789D01*
X146285211Y-98685789D02*
X145785211Y-98919122D01*
X145785211Y-98919122D02*
X146485211Y-98919122D01*
X146485211Y-99252455D02*
X146018544Y-99252455D01*
X145785211Y-99252455D02*
X145818544Y-99219122D01*
X145818544Y-99219122D02*
X145851878Y-99252455D01*
X145851878Y-99252455D02*
X145818544Y-99285789D01*
X145818544Y-99285789D02*
X145785211Y-99252455D01*
X145785211Y-99252455D02*
X145851878Y-99252455D01*
X146485211Y-99685788D02*
X146451878Y-99619122D01*
X146451878Y-99619122D02*
X146385211Y-99585788D01*
X146385211Y-99585788D02*
X145785211Y-99585788D01*
X146485211Y-100052455D02*
X146451878Y-99985789D01*
X146451878Y-99985789D02*
X146385211Y-99952455D01*
X146385211Y-99952455D02*
X145785211Y-99952455D01*
X146451878Y-100585789D02*
X146485211Y-100519122D01*
X146485211Y-100519122D02*
X146485211Y-100385789D01*
X146485211Y-100385789D02*
X146451878Y-100319122D01*
X146451878Y-100319122D02*
X146385211Y-100285789D01*
X146385211Y-100285789D02*
X146118544Y-100285789D01*
X146118544Y-100285789D02*
X146051878Y-100319122D01*
X146051878Y-100319122D02*
X146018544Y-100385789D01*
X146018544Y-100385789D02*
X146018544Y-100519122D01*
X146018544Y-100519122D02*
X146051878Y-100585789D01*
X146051878Y-100585789D02*
X146118544Y-100619122D01*
X146118544Y-100619122D02*
X146185211Y-100619122D01*
X146185211Y-100619122D02*
X146251878Y-100285789D01*
X146485211Y-100919122D02*
X146018544Y-100919122D01*
X146151878Y-100919122D02*
X146085211Y-100952456D01*
X146085211Y-100952456D02*
X146051878Y-100985789D01*
X146051878Y-100985789D02*
X146018544Y-101052456D01*
X146018544Y-101052456D02*
X146018544Y-101119122D01*
X146485211Y-102219122D02*
X146485211Y-101885788D01*
X146485211Y-101885788D02*
X145785211Y-101885788D01*
X146485211Y-102752455D02*
X146118544Y-102752455D01*
X146118544Y-102752455D02*
X146051878Y-102719122D01*
X146051878Y-102719122D02*
X146018544Y-102652455D01*
X146018544Y-102652455D02*
X146018544Y-102519122D01*
X146018544Y-102519122D02*
X146051878Y-102452455D01*
X146451878Y-102752455D02*
X146485211Y-102685789D01*
X146485211Y-102685789D02*
X146485211Y-102519122D01*
X146485211Y-102519122D02*
X146451878Y-102452455D01*
X146451878Y-102452455D02*
X146385211Y-102419122D01*
X146385211Y-102419122D02*
X146318544Y-102419122D01*
X146318544Y-102419122D02*
X146251878Y-102452455D01*
X146251878Y-102452455D02*
X146218544Y-102519122D01*
X146218544Y-102519122D02*
X146218544Y-102685789D01*
X146218544Y-102685789D02*
X146185211Y-102752455D01*
X146485211Y-103085788D02*
X145785211Y-103085788D01*
X146051878Y-103085788D02*
X146018544Y-103152455D01*
X146018544Y-103152455D02*
X146018544Y-103285788D01*
X146018544Y-103285788D02*
X146051878Y-103352455D01*
X146051878Y-103352455D02*
X146085211Y-103385788D01*
X146085211Y-103385788D02*
X146151878Y-103419122D01*
X146151878Y-103419122D02*
X146351878Y-103419122D01*
X146351878Y-103419122D02*
X146418544Y-103385788D01*
X146418544Y-103385788D02*
X146451878Y-103352455D01*
X146451878Y-103352455D02*
X146485211Y-103285788D01*
X146485211Y-103285788D02*
X146485211Y-103152455D01*
X146485211Y-103152455D02*
X146451878Y-103085788D01*
X146451878Y-104219121D02*
X146485211Y-104319121D01*
X146485211Y-104319121D02*
X146485211Y-104485788D01*
X146485211Y-104485788D02*
X146451878Y-104552454D01*
X146451878Y-104552454D02*
X146418544Y-104585788D01*
X146418544Y-104585788D02*
X146351878Y-104619121D01*
X146351878Y-104619121D02*
X146285211Y-104619121D01*
X146285211Y-104619121D02*
X146218544Y-104585788D01*
X146218544Y-104585788D02*
X146185211Y-104552454D01*
X146185211Y-104552454D02*
X146151878Y-104485788D01*
X146151878Y-104485788D02*
X146118544Y-104352454D01*
X146118544Y-104352454D02*
X146085211Y-104285788D01*
X146085211Y-104285788D02*
X146051878Y-104252454D01*
X146051878Y-104252454D02*
X145985211Y-104219121D01*
X145985211Y-104219121D02*
X145918544Y-104219121D01*
X145918544Y-104219121D02*
X145851878Y-104252454D01*
X145851878Y-104252454D02*
X145818544Y-104285788D01*
X145818544Y-104285788D02*
X145785211Y-104352454D01*
X145785211Y-104352454D02*
X145785211Y-104519121D01*
X145785211Y-104519121D02*
X145818544Y-104619121D01*
X146485211Y-104919121D02*
X145785211Y-104919121D01*
X145785211Y-104919121D02*
X145785211Y-105085788D01*
X145785211Y-105085788D02*
X145818544Y-105185788D01*
X145818544Y-105185788D02*
X145885211Y-105252455D01*
X145885211Y-105252455D02*
X145951878Y-105285788D01*
X145951878Y-105285788D02*
X146085211Y-105319121D01*
X146085211Y-105319121D02*
X146185211Y-105319121D01*
X146185211Y-105319121D02*
X146318544Y-105285788D01*
X146318544Y-105285788D02*
X146385211Y-105252455D01*
X146385211Y-105252455D02*
X146451878Y-105185788D01*
X146451878Y-105185788D02*
X146485211Y-105085788D01*
X146485211Y-105085788D02*
X146485211Y-104919121D01*
X146451878Y-105585788D02*
X146485211Y-105685788D01*
X146485211Y-105685788D02*
X146485211Y-105852455D01*
X146485211Y-105852455D02*
X146451878Y-105919121D01*
X146451878Y-105919121D02*
X146418544Y-105952455D01*
X146418544Y-105952455D02*
X146351878Y-105985788D01*
X146351878Y-105985788D02*
X146285211Y-105985788D01*
X146285211Y-105985788D02*
X146218544Y-105952455D01*
X146218544Y-105952455D02*
X146185211Y-105919121D01*
X146185211Y-105919121D02*
X146151878Y-105852455D01*
X146151878Y-105852455D02*
X146118544Y-105719121D01*
X146118544Y-105719121D02*
X146085211Y-105652455D01*
X146085211Y-105652455D02*
X146051878Y-105619121D01*
X146051878Y-105619121D02*
X145985211Y-105585788D01*
X145985211Y-105585788D02*
X145918544Y-105585788D01*
X145918544Y-105585788D02*
X145851878Y-105619121D01*
X145851878Y-105619121D02*
X145818544Y-105652455D01*
X145818544Y-105652455D02*
X145785211Y-105719121D01*
X145785211Y-105719121D02*
X145785211Y-105885788D01*
X145785211Y-105885788D02*
X145818544Y-105985788D01*
X145785211Y-106285788D02*
X146351878Y-106285788D01*
X146351878Y-106285788D02*
X146418544Y-106319122D01*
X146418544Y-106319122D02*
X146451878Y-106352455D01*
X146451878Y-106352455D02*
X146485211Y-106419122D01*
X146485211Y-106419122D02*
X146485211Y-106552455D01*
X146485211Y-106552455D02*
X146451878Y-106619122D01*
X146451878Y-106619122D02*
X146418544Y-106652455D01*
X146418544Y-106652455D02*
X146351878Y-106685788D01*
X146351878Y-106685788D02*
X145785211Y-106685788D01*
X147612172Y-98452455D02*
X146912172Y-98452455D01*
X146912172Y-98452455D02*
X147412172Y-98685789D01*
X147412172Y-98685789D02*
X146912172Y-98919122D01*
X146912172Y-98919122D02*
X147612172Y-98919122D01*
X147145505Y-99552455D02*
X147612172Y-99552455D01*
X147145505Y-99252455D02*
X147512172Y-99252455D01*
X147512172Y-99252455D02*
X147578839Y-99285789D01*
X147578839Y-99285789D02*
X147612172Y-99352455D01*
X147612172Y-99352455D02*
X147612172Y-99452455D01*
X147612172Y-99452455D02*
X147578839Y-99519122D01*
X147578839Y-99519122D02*
X147545505Y-99552455D01*
X147578839Y-99852455D02*
X147612172Y-99919122D01*
X147612172Y-99919122D02*
X147612172Y-100052455D01*
X147612172Y-100052455D02*
X147578839Y-100119122D01*
X147578839Y-100119122D02*
X147512172Y-100152455D01*
X147512172Y-100152455D02*
X147478839Y-100152455D01*
X147478839Y-100152455D02*
X147412172Y-100119122D01*
X147412172Y-100119122D02*
X147378839Y-100052455D01*
X147378839Y-100052455D02*
X147378839Y-99952455D01*
X147378839Y-99952455D02*
X147345505Y-99885788D01*
X147345505Y-99885788D02*
X147278839Y-99852455D01*
X147278839Y-99852455D02*
X147245505Y-99852455D01*
X147245505Y-99852455D02*
X147178839Y-99885788D01*
X147178839Y-99885788D02*
X147145505Y-99952455D01*
X147145505Y-99952455D02*
X147145505Y-100052455D01*
X147145505Y-100052455D02*
X147178839Y-100119122D01*
X147578839Y-100419122D02*
X147612172Y-100485789D01*
X147612172Y-100485789D02*
X147612172Y-100619122D01*
X147612172Y-100619122D02*
X147578839Y-100685789D01*
X147578839Y-100685789D02*
X147512172Y-100719122D01*
X147512172Y-100719122D02*
X147478839Y-100719122D01*
X147478839Y-100719122D02*
X147412172Y-100685789D01*
X147412172Y-100685789D02*
X147378839Y-100619122D01*
X147378839Y-100619122D02*
X147378839Y-100519122D01*
X147378839Y-100519122D02*
X147345505Y-100452455D01*
X147345505Y-100452455D02*
X147278839Y-100419122D01*
X147278839Y-100419122D02*
X147245505Y-100419122D01*
X147245505Y-100419122D02*
X147178839Y-100452455D01*
X147178839Y-100452455D02*
X147145505Y-100519122D01*
X147145505Y-100519122D02*
X147145505Y-100619122D01*
X147145505Y-100619122D02*
X147178839Y-100685789D01*
X147578839Y-101285789D02*
X147612172Y-101219122D01*
X147612172Y-101219122D02*
X147612172Y-101085789D01*
X147612172Y-101085789D02*
X147578839Y-101019122D01*
X147578839Y-101019122D02*
X147512172Y-100985789D01*
X147512172Y-100985789D02*
X147245505Y-100985789D01*
X147245505Y-100985789D02*
X147178839Y-101019122D01*
X147178839Y-101019122D02*
X147145505Y-101085789D01*
X147145505Y-101085789D02*
X147145505Y-101219122D01*
X147145505Y-101219122D02*
X147178839Y-101285789D01*
X147178839Y-101285789D02*
X147245505Y-101319122D01*
X147245505Y-101319122D02*
X147312172Y-101319122D01*
X147312172Y-101319122D02*
X147378839Y-100985789D01*
X147612172Y-101719122D02*
X147578839Y-101652456D01*
X147578839Y-101652456D02*
X147512172Y-101619122D01*
X147512172Y-101619122D02*
X146912172Y-101619122D01*
X147612172Y-102519122D02*
X146912172Y-102519122D01*
X147245505Y-102519122D02*
X147245505Y-102919122D01*
X147612172Y-102919122D02*
X146912172Y-102919122D01*
X147578839Y-103519122D02*
X147612172Y-103452455D01*
X147612172Y-103452455D02*
X147612172Y-103319122D01*
X147612172Y-103319122D02*
X147578839Y-103252455D01*
X147578839Y-103252455D02*
X147512172Y-103219122D01*
X147512172Y-103219122D02*
X147245505Y-103219122D01*
X147245505Y-103219122D02*
X147178839Y-103252455D01*
X147178839Y-103252455D02*
X147145505Y-103319122D01*
X147145505Y-103319122D02*
X147145505Y-103452455D01*
X147145505Y-103452455D02*
X147178839Y-103519122D01*
X147178839Y-103519122D02*
X147245505Y-103552455D01*
X147245505Y-103552455D02*
X147312172Y-103552455D01*
X147312172Y-103552455D02*
X147378839Y-103219122D01*
X147612172Y-104152455D02*
X147245505Y-104152455D01*
X147245505Y-104152455D02*
X147178839Y-104119122D01*
X147178839Y-104119122D02*
X147145505Y-104052455D01*
X147145505Y-104052455D02*
X147145505Y-103919122D01*
X147145505Y-103919122D02*
X147178839Y-103852455D01*
X147578839Y-104152455D02*
X147612172Y-104085789D01*
X147612172Y-104085789D02*
X147612172Y-103919122D01*
X147612172Y-103919122D02*
X147578839Y-103852455D01*
X147578839Y-103852455D02*
X147512172Y-103819122D01*
X147512172Y-103819122D02*
X147445505Y-103819122D01*
X147445505Y-103819122D02*
X147378839Y-103852455D01*
X147378839Y-103852455D02*
X147345505Y-103919122D01*
X147345505Y-103919122D02*
X147345505Y-104085789D01*
X147345505Y-104085789D02*
X147312172Y-104152455D01*
X147612172Y-104485788D02*
X147145505Y-104485788D01*
X147278839Y-104485788D02*
X147212172Y-104519122D01*
X147212172Y-104519122D02*
X147178839Y-104552455D01*
X147178839Y-104552455D02*
X147145505Y-104619122D01*
X147145505Y-104619122D02*
X147145505Y-104685788D01*
X147145505Y-104819121D02*
X147145505Y-105085788D01*
X146912172Y-104919121D02*
X147512172Y-104919121D01*
X147512172Y-104919121D02*
X147578839Y-104952455D01*
X147578839Y-104952455D02*
X147612172Y-105019121D01*
X147612172Y-105019121D02*
X147612172Y-105085788D01*
X147612172Y-106252454D02*
X147278839Y-106019121D01*
X147612172Y-105852454D02*
X146912172Y-105852454D01*
X146912172Y-105852454D02*
X146912172Y-106119121D01*
X146912172Y-106119121D02*
X146945505Y-106185788D01*
X146945505Y-106185788D02*
X146978839Y-106219121D01*
X146978839Y-106219121D02*
X147045505Y-106252454D01*
X147045505Y-106252454D02*
X147145505Y-106252454D01*
X147145505Y-106252454D02*
X147212172Y-106219121D01*
X147212172Y-106219121D02*
X147245505Y-106185788D01*
X147245505Y-106185788D02*
X147278839Y-106119121D01*
X147278839Y-106119121D02*
X147278839Y-105852454D01*
X147612172Y-106852454D02*
X147245505Y-106852454D01*
X147245505Y-106852454D02*
X147178839Y-106819121D01*
X147178839Y-106819121D02*
X147145505Y-106752454D01*
X147145505Y-106752454D02*
X147145505Y-106619121D01*
X147145505Y-106619121D02*
X147178839Y-106552454D01*
X147578839Y-106852454D02*
X147612172Y-106785788D01*
X147612172Y-106785788D02*
X147612172Y-106619121D01*
X147612172Y-106619121D02*
X147578839Y-106552454D01*
X147578839Y-106552454D02*
X147512172Y-106519121D01*
X147512172Y-106519121D02*
X147445505Y-106519121D01*
X147445505Y-106519121D02*
X147378839Y-106552454D01*
X147378839Y-106552454D02*
X147345505Y-106619121D01*
X147345505Y-106619121D02*
X147345505Y-106785788D01*
X147345505Y-106785788D02*
X147312172Y-106852454D01*
X147145505Y-107085787D02*
X147145505Y-107352454D01*
X146912172Y-107185787D02*
X147512172Y-107185787D01*
X147512172Y-107185787D02*
X147578839Y-107219121D01*
X147578839Y-107219121D02*
X147612172Y-107285787D01*
X147612172Y-107285787D02*
X147612172Y-107352454D01*
X147578839Y-107852454D02*
X147612172Y-107785787D01*
X147612172Y-107785787D02*
X147612172Y-107652454D01*
X147612172Y-107652454D02*
X147578839Y-107585787D01*
X147578839Y-107585787D02*
X147512172Y-107552454D01*
X147512172Y-107552454D02*
X147245505Y-107552454D01*
X147245505Y-107552454D02*
X147178839Y-107585787D01*
X147178839Y-107585787D02*
X147145505Y-107652454D01*
X147145505Y-107652454D02*
X147145505Y-107785787D01*
X147145505Y-107785787D02*
X147178839Y-107852454D01*
X147178839Y-107852454D02*
X147245505Y-107885787D01*
X147245505Y-107885787D02*
X147312172Y-107885787D01*
X147312172Y-107885787D02*
X147378839Y-107552454D01*
X148739133Y-98452455D02*
X148039133Y-98452455D01*
X148039133Y-98452455D02*
X148539133Y-98685789D01*
X148539133Y-98685789D02*
X148039133Y-98919122D01*
X148039133Y-98919122D02*
X148739133Y-98919122D01*
X148739133Y-99352455D02*
X148705800Y-99285789D01*
X148705800Y-99285789D02*
X148672466Y-99252455D01*
X148672466Y-99252455D02*
X148605800Y-99219122D01*
X148605800Y-99219122D02*
X148405800Y-99219122D01*
X148405800Y-99219122D02*
X148339133Y-99252455D01*
X148339133Y-99252455D02*
X148305800Y-99285789D01*
X148305800Y-99285789D02*
X148272466Y-99352455D01*
X148272466Y-99352455D02*
X148272466Y-99452455D01*
X148272466Y-99452455D02*
X148305800Y-99519122D01*
X148305800Y-99519122D02*
X148339133Y-99552455D01*
X148339133Y-99552455D02*
X148405800Y-99585789D01*
X148405800Y-99585789D02*
X148605800Y-99585789D01*
X148605800Y-99585789D02*
X148672466Y-99552455D01*
X148672466Y-99552455D02*
X148705800Y-99519122D01*
X148705800Y-99519122D02*
X148739133Y-99452455D01*
X148739133Y-99452455D02*
X148739133Y-99352455D01*
X148272466Y-99885788D02*
X148739133Y-99885788D01*
X148339133Y-99885788D02*
X148305800Y-99919122D01*
X148305800Y-99919122D02*
X148272466Y-99985788D01*
X148272466Y-99985788D02*
X148272466Y-100085788D01*
X148272466Y-100085788D02*
X148305800Y-100152455D01*
X148305800Y-100152455D02*
X148372466Y-100185788D01*
X148372466Y-100185788D02*
X148739133Y-100185788D01*
X148739133Y-100519121D02*
X148272466Y-100519121D01*
X148039133Y-100519121D02*
X148072466Y-100485788D01*
X148072466Y-100485788D02*
X148105800Y-100519121D01*
X148105800Y-100519121D02*
X148072466Y-100552455D01*
X148072466Y-100552455D02*
X148039133Y-100519121D01*
X148039133Y-100519121D02*
X148105800Y-100519121D01*
X148272466Y-100752454D02*
X148272466Y-101019121D01*
X148039133Y-100852454D02*
X148639133Y-100852454D01*
X148639133Y-100852454D02*
X148705800Y-100885788D01*
X148705800Y-100885788D02*
X148739133Y-100952454D01*
X148739133Y-100952454D02*
X148739133Y-101019121D01*
X148739133Y-101352454D02*
X148705800Y-101285788D01*
X148705800Y-101285788D02*
X148672466Y-101252454D01*
X148672466Y-101252454D02*
X148605800Y-101219121D01*
X148605800Y-101219121D02*
X148405800Y-101219121D01*
X148405800Y-101219121D02*
X148339133Y-101252454D01*
X148339133Y-101252454D02*
X148305800Y-101285788D01*
X148305800Y-101285788D02*
X148272466Y-101352454D01*
X148272466Y-101352454D02*
X148272466Y-101452454D01*
X148272466Y-101452454D02*
X148305800Y-101519121D01*
X148305800Y-101519121D02*
X148339133Y-101552454D01*
X148339133Y-101552454D02*
X148405800Y-101585788D01*
X148405800Y-101585788D02*
X148605800Y-101585788D01*
X148605800Y-101585788D02*
X148672466Y-101552454D01*
X148672466Y-101552454D02*
X148705800Y-101519121D01*
X148705800Y-101519121D02*
X148739133Y-101452454D01*
X148739133Y-101452454D02*
X148739133Y-101352454D01*
X148739133Y-101885787D02*
X148272466Y-101885787D01*
X148405800Y-101885787D02*
X148339133Y-101919121D01*
X148339133Y-101919121D02*
X148305800Y-101952454D01*
X148305800Y-101952454D02*
X148272466Y-102019121D01*
X148272466Y-102019121D02*
X148272466Y-102085787D01*
X148739133Y-103252453D02*
X148405800Y-103019120D01*
X148739133Y-102852453D02*
X148039133Y-102852453D01*
X148039133Y-102852453D02*
X148039133Y-103119120D01*
X148039133Y-103119120D02*
X148072466Y-103185787D01*
X148072466Y-103185787D02*
X148105800Y-103219120D01*
X148105800Y-103219120D02*
X148172466Y-103252453D01*
X148172466Y-103252453D02*
X148272466Y-103252453D01*
X148272466Y-103252453D02*
X148339133Y-103219120D01*
X148339133Y-103219120D02*
X148372466Y-103185787D01*
X148372466Y-103185787D02*
X148405800Y-103119120D01*
X148405800Y-103119120D02*
X148405800Y-102852453D01*
X148705800Y-103819120D02*
X148739133Y-103752453D01*
X148739133Y-103752453D02*
X148739133Y-103619120D01*
X148739133Y-103619120D02*
X148705800Y-103552453D01*
X148705800Y-103552453D02*
X148639133Y-103519120D01*
X148639133Y-103519120D02*
X148372466Y-103519120D01*
X148372466Y-103519120D02*
X148305800Y-103552453D01*
X148305800Y-103552453D02*
X148272466Y-103619120D01*
X148272466Y-103619120D02*
X148272466Y-103752453D01*
X148272466Y-103752453D02*
X148305800Y-103819120D01*
X148305800Y-103819120D02*
X148372466Y-103852453D01*
X148372466Y-103852453D02*
X148439133Y-103852453D01*
X148439133Y-103852453D02*
X148505800Y-103519120D01*
X148272466Y-104085787D02*
X148739133Y-104252453D01*
X148739133Y-104252453D02*
X148272466Y-104419120D01*
X148372466Y-105219119D02*
X148372466Y-105452453D01*
X148739133Y-105552453D02*
X148739133Y-105219119D01*
X148739133Y-105219119D02*
X148039133Y-105219119D01*
X148039133Y-105219119D02*
X148039133Y-105552453D01*
X148096895Y-111141979D02*
X148896895Y-111408646D01*
X148896895Y-111408646D02*
X148096895Y-111675312D01*
X148820704Y-112399122D02*
X148858800Y-112361026D01*
X148858800Y-112361026D02*
X148896895Y-112246741D01*
X148896895Y-112246741D02*
X148896895Y-112170550D01*
X148896895Y-112170550D02*
X148858800Y-112056264D01*
X148858800Y-112056264D02*
X148782609Y-111980074D01*
X148782609Y-111980074D02*
X148706419Y-111941979D01*
X148706419Y-111941979D02*
X148554038Y-111903883D01*
X148554038Y-111903883D02*
X148439752Y-111903883D01*
X148439752Y-111903883D02*
X148287371Y-111941979D01*
X148287371Y-111941979D02*
X148211180Y-111980074D01*
X148211180Y-111980074D02*
X148134990Y-112056264D01*
X148134990Y-112056264D02*
X148096895Y-112170550D01*
X148096895Y-112170550D02*
X148096895Y-112246741D01*
X148096895Y-112246741D02*
X148134990Y-112361026D01*
X148134990Y-112361026D02*
X148173085Y-112399122D01*
X148820704Y-113199122D02*
X148858800Y-113161026D01*
X148858800Y-113161026D02*
X148896895Y-113046741D01*
X148896895Y-113046741D02*
X148896895Y-112970550D01*
X148896895Y-112970550D02*
X148858800Y-112856264D01*
X148858800Y-112856264D02*
X148782609Y-112780074D01*
X148782609Y-112780074D02*
X148706419Y-112741979D01*
X148706419Y-112741979D02*
X148554038Y-112703883D01*
X148554038Y-112703883D02*
X148439752Y-112703883D01*
X148439752Y-112703883D02*
X148287371Y-112741979D01*
X148287371Y-112741979D02*
X148211180Y-112780074D01*
X148211180Y-112780074D02*
X148134990Y-112856264D01*
X148134990Y-112856264D02*
X148096895Y-112970550D01*
X148096895Y-112970550D02*
X148096895Y-113046741D01*
X148096895Y-113046741D02*
X148134990Y-113161026D01*
X148134990Y-113161026D02*
X148173085Y-113199122D01*
X148890730Y-108468169D02*
X148928825Y-108582455D01*
X148928825Y-108582455D02*
X148928825Y-108772931D01*
X148928825Y-108772931D02*
X148890730Y-108849122D01*
X148890730Y-108849122D02*
X148852634Y-108887217D01*
X148852634Y-108887217D02*
X148776444Y-108925312D01*
X148776444Y-108925312D02*
X148700253Y-108925312D01*
X148700253Y-108925312D02*
X148624063Y-108887217D01*
X148624063Y-108887217D02*
X148585968Y-108849122D01*
X148585968Y-108849122D02*
X148547872Y-108772931D01*
X148547872Y-108772931D02*
X148509777Y-108620550D01*
X148509777Y-108620550D02*
X148471682Y-108544360D01*
X148471682Y-108544360D02*
X148433587Y-108506265D01*
X148433587Y-108506265D02*
X148357396Y-108468169D01*
X148357396Y-108468169D02*
X148281206Y-108468169D01*
X148281206Y-108468169D02*
X148205015Y-108506265D01*
X148205015Y-108506265D02*
X148166920Y-108544360D01*
X148166920Y-108544360D02*
X148128825Y-108620550D01*
X148128825Y-108620550D02*
X148128825Y-108811027D01*
X148128825Y-108811027D02*
X148166920Y-108925312D01*
X148928825Y-109268170D02*
X148128825Y-109268170D01*
X148128825Y-109268170D02*
X148128825Y-109458646D01*
X148128825Y-109458646D02*
X148166920Y-109572932D01*
X148166920Y-109572932D02*
X148243110Y-109649122D01*
X148243110Y-109649122D02*
X148319301Y-109687217D01*
X148319301Y-109687217D02*
X148471682Y-109725313D01*
X148471682Y-109725313D02*
X148585968Y-109725313D01*
X148585968Y-109725313D02*
X148738349Y-109687217D01*
X148738349Y-109687217D02*
X148814539Y-109649122D01*
X148814539Y-109649122D02*
X148890730Y-109572932D01*
X148890730Y-109572932D02*
X148928825Y-109458646D01*
X148928825Y-109458646D02*
X148928825Y-109268170D01*
X148700253Y-110030074D02*
X148700253Y-110411027D01*
X148928825Y-109953884D02*
X148128825Y-110220551D01*
X148128825Y-110220551D02*
X148928825Y-110487217D01*
D11*
X142797396Y-108465932D02*
X142835491Y-108580218D01*
X142835491Y-108580218D02*
X142835491Y-108770694D01*
X142835491Y-108770694D02*
X142797396Y-108846885D01*
X142797396Y-108846885D02*
X142759300Y-108884980D01*
X142759300Y-108884980D02*
X142683110Y-108923075D01*
X142683110Y-108923075D02*
X142606919Y-108923075D01*
X142606919Y-108923075D02*
X142530729Y-108884980D01*
X142530729Y-108884980D02*
X142492634Y-108846885D01*
X142492634Y-108846885D02*
X142454538Y-108770694D01*
X142454538Y-108770694D02*
X142416443Y-108618313D01*
X142416443Y-108618313D02*
X142378348Y-108542123D01*
X142378348Y-108542123D02*
X142340253Y-108504028D01*
X142340253Y-108504028D02*
X142264062Y-108465932D01*
X142264062Y-108465932D02*
X142187872Y-108465932D01*
X142187872Y-108465932D02*
X142111681Y-108504028D01*
X142111681Y-108504028D02*
X142073586Y-108542123D01*
X142073586Y-108542123D02*
X142035491Y-108618313D01*
X142035491Y-108618313D02*
X142035491Y-108808790D01*
X142035491Y-108808790D02*
X142073586Y-108923075D01*
X142759300Y-109723076D02*
X142797396Y-109684980D01*
X142797396Y-109684980D02*
X142835491Y-109570695D01*
X142835491Y-109570695D02*
X142835491Y-109494504D01*
X142835491Y-109494504D02*
X142797396Y-109380218D01*
X142797396Y-109380218D02*
X142721205Y-109304028D01*
X142721205Y-109304028D02*
X142645015Y-109265933D01*
X142645015Y-109265933D02*
X142492634Y-109227837D01*
X142492634Y-109227837D02*
X142378348Y-109227837D01*
X142378348Y-109227837D02*
X142225967Y-109265933D01*
X142225967Y-109265933D02*
X142149776Y-109304028D01*
X142149776Y-109304028D02*
X142073586Y-109380218D01*
X142073586Y-109380218D02*
X142035491Y-109494504D01*
X142035491Y-109494504D02*
X142035491Y-109570695D01*
X142035491Y-109570695D02*
X142073586Y-109684980D01*
X142073586Y-109684980D02*
X142111681Y-109723076D01*
X142835491Y-110446885D02*
X142835491Y-110065933D01*
X142835491Y-110065933D02*
X142035491Y-110065933D01*
X142073586Y-111463075D02*
X142035491Y-111386885D01*
X142035491Y-111386885D02*
X142035491Y-111272599D01*
X142035491Y-111272599D02*
X142073586Y-111158313D01*
X142073586Y-111158313D02*
X142149776Y-111082123D01*
X142149776Y-111082123D02*
X142225967Y-111044028D01*
X142225967Y-111044028D02*
X142378348Y-111005932D01*
X142378348Y-111005932D02*
X142492634Y-111005932D01*
X142492634Y-111005932D02*
X142645015Y-111044028D01*
X142645015Y-111044028D02*
X142721205Y-111082123D01*
X142721205Y-111082123D02*
X142797396Y-111158313D01*
X142797396Y-111158313D02*
X142835491Y-111272599D01*
X142835491Y-111272599D02*
X142835491Y-111348790D01*
X142835491Y-111348790D02*
X142797396Y-111463075D01*
X142797396Y-111463075D02*
X142759300Y-111501171D01*
X142759300Y-111501171D02*
X142492634Y-111501171D01*
X142492634Y-111501171D02*
X142492634Y-111348790D01*
X142835491Y-111844028D02*
X142035491Y-111844028D01*
X142035491Y-111844028D02*
X142835491Y-112301171D01*
X142835491Y-112301171D02*
X142035491Y-112301171D01*
X142835491Y-112682123D02*
X142035491Y-112682123D01*
X142035491Y-112682123D02*
X142035491Y-112872599D01*
X142035491Y-112872599D02*
X142073586Y-112986885D01*
X142073586Y-112986885D02*
X142149776Y-113063075D01*
X142149776Y-113063075D02*
X142225967Y-113101170D01*
X142225967Y-113101170D02*
X142378348Y-113139266D01*
X142378348Y-113139266D02*
X142492634Y-113139266D01*
X142492634Y-113139266D02*
X142645015Y-113101170D01*
X142645015Y-113101170D02*
X142721205Y-113063075D01*
X142721205Y-113063075D02*
X142797396Y-112986885D01*
X142797396Y-112986885D02*
X142835491Y-112872599D01*
X142835491Y-112872599D02*
X142835491Y-112682123D01*
M02*
