ISO-10303-21;
HEADER;
FILE_DESCRIPTION(('FreeCAD Model'),'2;1');
FILE_NAME('Open CASCADE Shape Model','2025-08-30T13:17:03',(''),(''),
  'Open CASCADE STEP processor 7.8','FreeCAD','Unknown');
FILE_SCHEMA(('AUTOMOTIVE_DESIGN { 1 0 10303 214 1 1 1 1 }'));
ENDSEC;
DATA;
#1 = APPLICATION_PROTOCOL_DEFINITION('international standard',
  'automotive_design',2000,#2);
#2 = APPLICATION_CONTEXT(
  'core data for automotive mechanical design processes');
#3 = SHAPE_DEFINITION_REPRESENTATION(#4,#10);
#4 = PRODUCT_DEFINITION_SHAPE('','',#5);
#5 = PRODUCT_DEFINITION('design','',#6,#9);
#6 = PRODUCT_DEFINITION_FORMATION('','',#7);
#7 = PRODUCT('DFN_standard','DFN_standard','',(#8));
#8 = PRODUCT_CONTEXT('',#2,'mechanical');
#9 = PRODUCT_DEFINITION_CONTEXT('part definition',#2,'design');
#10 = SHAPE_REPRESENTATION('',(#11,#15,#19,#23,#27,#31,#35,#39,#43),#47
  );
#11 = AXIS2_PLACEMENT_3D('',#12,#13,#14);
#12 = CARTESIAN_POINT('',(0.,0.,0.));
#13 = DIRECTION('',(0.,0.,1.));
#14 = DIRECTION('',(1.,0.,-0.));
#15 = AXIS2_PLACEMENT_3D('',#16,#17,#18);
#16 = CARTESIAN_POINT('',(0.,0.,0.));
#17 = DIRECTION('',(0.,0.,1.));
#18 = DIRECTION('',(1.,0.,0.));
#19 = AXIS2_PLACEMENT_3D('',#20,#21,#22);
#20 = CARTESIAN_POINT('',(0.,0.,0.));
#21 = DIRECTION('',(0.,0.,1.));
#22 = DIRECTION('',(1.,0.,0.));
#23 = AXIS2_PLACEMENT_3D('',#24,#25,#26);
#24 = CARTESIAN_POINT('',(0.,0.,0.));
#25 = DIRECTION('',(0.,0.,1.));
#26 = DIRECTION('',(1.,0.,0.));
#27 = AXIS2_PLACEMENT_3D('',#28,#29,#30);
#28 = CARTESIAN_POINT('',(0.,0.,-0.65));
#29 = DIRECTION('',(0.,0.,1.));
#30 = DIRECTION('',(1.,0.,0.));
#31 = AXIS2_PLACEMENT_3D('',#32,#33,#34);
#32 = CARTESIAN_POINT('',(0.,0.,-1.3));
#33 = DIRECTION('',(0.,0.,1.));
#34 = DIRECTION('',(1.,0.,0.));
#35 = AXIS2_PLACEMENT_3D('',#36,#37,#38);
#36 = CARTESIAN_POINT('',(0.,0.,-0.65));
#37 = DIRECTION('',(0.,0.,1.));
#38 = DIRECTION('',(1.,0.,0.));
#39 = AXIS2_PLACEMENT_3D('',#40,#41,#42);
#40 = CARTESIAN_POINT('',(0.,0.,-1.3));
#41 = DIRECTION('',(0.,0.,1.));
#42 = DIRECTION('',(1.,0.,0.));
#43 = AXIS2_PLACEMENT_3D('',#44,#45,#46);
#44 = CARTESIAN_POINT('',(0.,0.,0.));
#45 = DIRECTION('',(0.,0.,1.));
#46 = DIRECTION('',(1.,0.,0.));
#47 = ( GEOMETRIC_REPRESENTATION_CONTEXT(3) 
GLOBAL_UNCERTAINTY_ASSIGNED_CONTEXT((#51)) GLOBAL_UNIT_ASSIGNED_CONTEXT(
(#48,#49,#50)) REPRESENTATION_CONTEXT('Context #1',
  '3D Context with UNIT and UNCERTAINTY') );
#48 = ( LENGTH_UNIT() NAMED_UNIT(*) SI_UNIT(.MILLI.,.METRE.) );
#49 = ( NAMED_UNIT(*) PLANE_ANGLE_UNIT() SI_UNIT($,.RADIAN.) );
#50 = ( NAMED_UNIT(*) SI_UNIT($,.STERADIAN.) SOLID_ANGLE_UNIT() );
#51 = UNCERTAINTY_MEASURE_WITH_UNIT(LENGTH_MEASURE(5.E-07),#48,
  'distance_accuracy_value','confusion accuracy');
#52 = PRODUCT_RELATED_PRODUCT_CATEGORY('part',$,(#7));
#53 = SHAPE_DEFINITION_REPRESENTATION(#54,#60);
#54 = PRODUCT_DEFINITION_SHAPE('','',#55);
#55 = PRODUCT_DEFINITION('design','',#56,#59);
#56 = PRODUCT_DEFINITION_FORMATION('','',#57);
#57 = PRODUCT('Body_Solid1','Body_Solid1','',(#58));
#58 = PRODUCT_CONTEXT('',#2,'mechanical');
#59 = PRODUCT_DEFINITION_CONTEXT('part definition',#2,'design');
#60 = ADVANCED_BREP_SHAPE_REPRESENTATION('',(#11,#61),#1060);
#61 = MANIFOLD_SOLID_BREP('',#62);
#62 = CLOSED_SHELL('',(#63,#199,#401,#425,#450,#467,#491,#516,#533,#557,
    #582,#599,#623,#658,#675,#687,#699,#711,#792,#816,#841,#858,#882,
    #907,#924,#948,#973,#990,#1015,#1027,#1039,#1051));
#63 = ADVANCED_FACE('',(#64),#194,.T.);
#64 = FACE_BOUND('',#65,.T.);
#65 = EDGE_LOOP('',(#66,#76,#84,#92,#100,#108,#116,#124,#132,#140,#148,
    #156,#164,#172,#180,#188));
#66 = ORIENTED_EDGE('',*,*,#67,.F.);
#67 = EDGE_CURVE('',#68,#70,#72,.T.);
#68 = VERTEX_POINT('',#69);
#69 = CARTESIAN_POINT('',(1.05,5.E-02,-1.05));
#70 = VERTEX_POINT('',#71);
#71 = CARTESIAN_POINT('',(1.05,5.E-02,-0.81));
#72 = LINE('',#73,#74);
#73 = CARTESIAN_POINT('',(1.05,5.E-02,-1.05));
#74 = VECTOR('',#75,1.);
#75 = DIRECTION('',(0.,2.22044604925E-16,1.));
#76 = ORIENTED_EDGE('',*,*,#77,.T.);
#77 = EDGE_CURVE('',#68,#78,#80,.T.);
#78 = VERTEX_POINT('',#79);
#79 = CARTESIAN_POINT('',(1.05,1.,-1.05));
#80 = LINE('',#81,#82);
#81 = CARTESIAN_POINT('',(1.05,-2.331468351713E-16,-1.05));
#82 = VECTOR('',#83,1.);
#83 = DIRECTION('',(0.,1.,-2.22044604925E-16));
#84 = ORIENTED_EDGE('',*,*,#85,.T.);
#85 = EDGE_CURVE('',#78,#86,#88,.T.);
#86 = VERTEX_POINT('',#87);
#87 = CARTESIAN_POINT('',(1.05,1.,1.05));
#88 = LINE('',#89,#90);
#89 = CARTESIAN_POINT('',(1.05,1.,-1.05));
#90 = VECTOR('',#91,1.);
#91 = DIRECTION('',(0.,2.22044604925E-16,1.));
#92 = ORIENTED_EDGE('',*,*,#93,.F.);
#93 = EDGE_CURVE('',#94,#86,#96,.T.);
#94 = VERTEX_POINT('',#95);
#95 = CARTESIAN_POINT('',(1.05,5.E-02,1.05));
#96 = LINE('',#97,#98);
#97 = CARTESIAN_POINT('',(1.05,2.331468351713E-16,1.05));
#98 = VECTOR('',#99,1.);
#99 = DIRECTION('',(0.,1.,-2.22044604925E-16));
#100 = ORIENTED_EDGE('',*,*,#101,.F.);
#101 = EDGE_CURVE('',#102,#94,#104,.T.);
#102 = VERTEX_POINT('',#103);
#103 = CARTESIAN_POINT('',(1.05,5.E-02,0.81));
#104 = LINE('',#105,#106);
#105 = CARTESIAN_POINT('',(1.05,5.E-02,-1.05));
#106 = VECTOR('',#107,1.);
#107 = DIRECTION('',(0.,2.22044604925E-16,1.));
#108 = ORIENTED_EDGE('',*,*,#109,.T.);
#109 = EDGE_CURVE('',#102,#110,#112,.T.);
#110 = VERTEX_POINT('',#111);
#111 = CARTESIAN_POINT('',(1.05,0.2,0.81));
#112 = LINE('',#113,#114);
#113 = CARTESIAN_POINT('',(1.05,2.22044604925E-16,0.81));
#114 = VECTOR('',#115,1.);
#115 = DIRECTION('',(0.,1.,-2.22044604925E-16));
#116 = ORIENTED_EDGE('',*,*,#117,.T.);
#117 = EDGE_CURVE('',#110,#118,#120,.T.);
#118 = VERTEX_POINT('',#119);
#119 = CARTESIAN_POINT('',(1.05,0.2,0.49));
#120 = LINE('',#121,#122);
#121 = CARTESIAN_POINT('',(1.05,0.2,0.81));
#122 = VECTOR('',#123,1.);
#123 = DIRECTION('',(0.,-2.22044604925E-16,-1.));
#124 = ORIENTED_EDGE('',*,*,#125,.F.);
#125 = EDGE_CURVE('',#126,#118,#128,.T.);
#126 = VERTEX_POINT('',#127);
#127 = CARTESIAN_POINT('',(1.05,5.E-02,0.49));
#128 = LINE('',#129,#130);
#129 = CARTESIAN_POINT('',(1.05,0.,0.49));
#130 = VECTOR('',#131,1.);
#131 = DIRECTION('',(0.,1.,-2.22044604925E-16));
#132 = ORIENTED_EDGE('',*,*,#133,.F.);
#133 = EDGE_CURVE('',#134,#126,#136,.T.);
#134 = VERTEX_POINT('',#135);
#135 = CARTESIAN_POINT('',(1.05,5.E-02,0.16));
#136 = LINE('',#137,#138);
#137 = CARTESIAN_POINT('',(1.05,5.E-02,-1.05));
#138 = VECTOR('',#139,1.);
#139 = DIRECTION('',(0.,2.22044604925E-16,1.));
#140 = ORIENTED_EDGE('',*,*,#141,.T.);
#141 = EDGE_CURVE('',#134,#142,#144,.T.);
#142 = VERTEX_POINT('',#143);
#143 = CARTESIAN_POINT('',(1.05,0.2,0.16));
#144 = LINE('',#145,#146);
#145 = CARTESIAN_POINT('',(1.05,0.,0.16));
#146 = VECTOR('',#147,1.);
#147 = DIRECTION('',(0.,1.,-2.22044604925E-16));
#148 = ORIENTED_EDGE('',*,*,#149,.T.);
#149 = EDGE_CURVE('',#142,#150,#152,.T.);
#150 = VERTEX_POINT('',#151);
#151 = CARTESIAN_POINT('',(1.05,0.2,-0.16));
#152 = LINE('',#153,#154);
#153 = CARTESIAN_POINT('',(1.05,0.2,0.16));
#154 = VECTOR('',#155,1.);
#155 = DIRECTION('',(0.,-2.22044604925E-16,-1.));
#156 = ORIENTED_EDGE('',*,*,#157,.F.);
#157 = EDGE_CURVE('',#158,#150,#160,.T.);
#158 = VERTEX_POINT('',#159);
#159 = CARTESIAN_POINT('',(1.05,5.E-02,-0.16));
#160 = LINE('',#161,#162);
#161 = CARTESIAN_POINT('',(1.05,-1.110223024625E-16,-0.16));
#162 = VECTOR('',#163,1.);
#163 = DIRECTION('',(0.,1.,-2.22044604925E-16));
#164 = ORIENTED_EDGE('',*,*,#165,.F.);
#165 = EDGE_CURVE('',#166,#158,#168,.T.);
#166 = VERTEX_POINT('',#167);
#167 = CARTESIAN_POINT('',(1.05,5.E-02,-0.49));
#168 = LINE('',#169,#170);
#169 = CARTESIAN_POINT('',(1.05,5.E-02,-1.05));
#170 = VECTOR('',#171,1.);
#171 = DIRECTION('',(0.,2.22044604925E-16,1.));
#172 = ORIENTED_EDGE('',*,*,#173,.T.);
#173 = EDGE_CURVE('',#166,#174,#176,.T.);
#174 = VERTEX_POINT('',#175);
#175 = CARTESIAN_POINT('',(1.05,0.2,-0.49));
#176 = LINE('',#177,#178);
#177 = CARTESIAN_POINT('',(1.05,-1.088018564133E-16,-0.49));
#178 = VECTOR('',#179,1.);
#179 = DIRECTION('',(0.,1.,-2.22044604925E-16));
#180 = ORIENTED_EDGE('',*,*,#181,.T.);
#181 = EDGE_CURVE('',#174,#182,#184,.T.);
#182 = VERTEX_POINT('',#183);
#183 = CARTESIAN_POINT('',(1.05,0.2,-0.81));
#184 = LINE('',#185,#186);
#185 = CARTESIAN_POINT('',(1.05,0.2,-0.49));
#186 = VECTOR('',#187,1.);
#187 = DIRECTION('',(0.,-2.22044604925E-16,-1.));
#188 = ORIENTED_EDGE('',*,*,#189,.F.);
#189 = EDGE_CURVE('',#70,#182,#190,.T.);
#190 = LINE('',#191,#192);
#191 = CARTESIAN_POINT('',(1.05,-1.798561299893E-16,-0.81));
#192 = VECTOR('',#193,1.);
#193 = DIRECTION('',(0.,1.,-2.22044604925E-16));
#194 = PLANE('',#195);
#195 = AXIS2_PLACEMENT_3D('',#196,#197,#198);
#196 = CARTESIAN_POINT('',(1.05,-2.331468351713E-16,-1.05));
#197 = DIRECTION('',(1.,0.,0.));
#198 = DIRECTION('',(0.,2.22044604925E-16,1.));
#199 = ADVANCED_FACE('',(#200),#396,.F.);
#200 = FACE_BOUND('',#201,.F.);
#201 = EDGE_LOOP('',(#202,#203,#211,#219,#227,#236,#244,#252,#260,#269,
    #277,#285,#293,#302,#310,#318,#324,#325,#333,#342,#348,#349,#357,
    #366,#372,#373,#381,#390));
#202 = ORIENTED_EDGE('',*,*,#67,.F.);
#203 = ORIENTED_EDGE('',*,*,#204,.F.);
#204 = EDGE_CURVE('',#205,#68,#207,.T.);
#205 = VERTEX_POINT('',#206);
#206 = CARTESIAN_POINT('',(-1.05,5.E-02,-1.05));
#207 = LINE('',#208,#209);
#208 = CARTESIAN_POINT('',(-1.05,5.E-02,-1.05));
#209 = VECTOR('',#210,1.);
#210 = DIRECTION('',(1.,0.,0.));
#211 = ORIENTED_EDGE('',*,*,#212,.F.);
#212 = EDGE_CURVE('',#213,#205,#215,.T.);
#213 = VERTEX_POINT('',#214);
#214 = CARTESIAN_POINT('',(-1.05,5.E-02,-0.81));
#215 = LINE('',#216,#217);
#216 = CARTESIAN_POINT('',(-1.05,5.E-02,1.05));
#217 = VECTOR('',#218,1.);
#218 = DIRECTION('',(0.,-2.22044604925E-16,-1.));
#219 = ORIENTED_EDGE('',*,*,#220,.T.);
#220 = EDGE_CURVE('',#213,#221,#223,.T.);
#221 = VERTEX_POINT('',#222);
#222 = CARTESIAN_POINT('',(-0.285,5.E-02,-0.81));
#223 = LINE('',#224,#225);
#224 = CARTESIAN_POINT('',(-0.1425,5.E-02,-0.81));
#225 = VECTOR('',#226,1.);
#226 = DIRECTION('',(1.,0.,0.));
#227 = ORIENTED_EDGE('',*,*,#228,.T.);
#228 = EDGE_CURVE('',#221,#229,#231,.T.);
#229 = VERTEX_POINT('',#230);
#230 = CARTESIAN_POINT('',(-0.285,5.E-02,-0.49));
#231 = CIRCLE('',#232,0.16);
#232 = AXIS2_PLACEMENT_3D('',#233,#234,#235);
#233 = CARTESIAN_POINT('',(-0.285,5.E-02,-0.65));
#234 = DIRECTION('',(0.,-1.,2.22044604925E-16));
#235 = DIRECTION('',(1.,0.,0.));
#236 = ORIENTED_EDGE('',*,*,#237,.T.);
#237 = EDGE_CURVE('',#229,#238,#240,.T.);
#238 = VERTEX_POINT('',#239);
#239 = CARTESIAN_POINT('',(-1.05,5.E-02,-0.49));
#240 = LINE('',#241,#242);
#241 = CARTESIAN_POINT('',(-0.525,5.E-02,-0.49));
#242 = VECTOR('',#243,1.);
#243 = DIRECTION('',(-1.,0.,0.));
#244 = ORIENTED_EDGE('',*,*,#245,.F.);
#245 = EDGE_CURVE('',#246,#238,#248,.T.);
#246 = VERTEX_POINT('',#247);
#247 = CARTESIAN_POINT('',(-1.05,5.E-02,-0.16));
#248 = LINE('',#249,#250);
#249 = CARTESIAN_POINT('',(-1.05,5.E-02,1.05));
#250 = VECTOR('',#251,1.);
#251 = DIRECTION('',(0.,-2.22044604925E-16,-1.));
#252 = ORIENTED_EDGE('',*,*,#253,.T.);
#253 = EDGE_CURVE('',#246,#254,#256,.T.);
#254 = VERTEX_POINT('',#255);
#255 = CARTESIAN_POINT('',(-0.285,5.E-02,-0.16));
#256 = LINE('',#257,#258);
#257 = CARTESIAN_POINT('',(-0.1425,5.E-02,-0.16));
#258 = VECTOR('',#259,1.);
#259 = DIRECTION('',(1.,0.,0.));
#260 = ORIENTED_EDGE('',*,*,#261,.T.);
#261 = EDGE_CURVE('',#254,#262,#264,.T.);
#262 = VERTEX_POINT('',#263);
#263 = CARTESIAN_POINT('',(-0.285,5.E-02,0.16));
#264 = CIRCLE('',#265,0.16);
#265 = AXIS2_PLACEMENT_3D('',#266,#267,#268);
#266 = CARTESIAN_POINT('',(-0.285,5.E-02,-1.110223024625E-17));
#267 = DIRECTION('',(0.,-1.,2.22044604925E-16));
#268 = DIRECTION('',(1.,0.,0.));
#269 = ORIENTED_EDGE('',*,*,#270,.T.);
#270 = EDGE_CURVE('',#262,#271,#273,.T.);
#271 = VERTEX_POINT('',#272);
#272 = CARTESIAN_POINT('',(-1.05,5.E-02,0.16));
#273 = LINE('',#274,#275);
#274 = CARTESIAN_POINT('',(-0.525,5.E-02,0.16));
#275 = VECTOR('',#276,1.);
#276 = DIRECTION('',(-1.,0.,0.));
#277 = ORIENTED_EDGE('',*,*,#278,.F.);
#278 = EDGE_CURVE('',#279,#271,#281,.T.);
#279 = VERTEX_POINT('',#280);
#280 = CARTESIAN_POINT('',(-1.05,5.E-02,0.49));
#281 = LINE('',#282,#283);
#282 = CARTESIAN_POINT('',(-1.05,5.E-02,1.05));
#283 = VECTOR('',#284,1.);
#284 = DIRECTION('',(0.,-2.22044604925E-16,-1.));
#285 = ORIENTED_EDGE('',*,*,#286,.T.);
#286 = EDGE_CURVE('',#279,#287,#289,.T.);
#287 = VERTEX_POINT('',#288);
#288 = CARTESIAN_POINT('',(-0.285,5.E-02,0.49));
#289 = LINE('',#290,#291);
#290 = CARTESIAN_POINT('',(-0.1425,5.E-02,0.49));
#291 = VECTOR('',#292,1.);
#292 = DIRECTION('',(1.,0.,0.));
#293 = ORIENTED_EDGE('',*,*,#294,.T.);
#294 = EDGE_CURVE('',#287,#295,#297,.T.);
#295 = VERTEX_POINT('',#296);
#296 = CARTESIAN_POINT('',(-0.285,5.E-02,0.81));
#297 = CIRCLE('',#298,0.16);
#298 = AXIS2_PLACEMENT_3D('',#299,#300,#301);
#299 = CARTESIAN_POINT('',(-0.285,5.E-02,0.65));
#300 = DIRECTION('',(0.,-1.,2.22044604925E-16));
#301 = DIRECTION('',(1.,0.,0.));
#302 = ORIENTED_EDGE('',*,*,#303,.T.);
#303 = EDGE_CURVE('',#295,#304,#306,.T.);
#304 = VERTEX_POINT('',#305);
#305 = CARTESIAN_POINT('',(-1.05,5.E-02,0.81));
#306 = LINE('',#307,#308);
#307 = CARTESIAN_POINT('',(-0.525,5.E-02,0.81));
#308 = VECTOR('',#309,1.);
#309 = DIRECTION('',(-1.,0.,0.));
#310 = ORIENTED_EDGE('',*,*,#311,.F.);
#311 = EDGE_CURVE('',#312,#304,#314,.T.);
#312 = VERTEX_POINT('',#313);
#313 = CARTESIAN_POINT('',(-1.05,5.E-02,1.05));
#314 = LINE('',#315,#316);
#315 = CARTESIAN_POINT('',(-1.05,5.E-02,1.05));
#316 = VECTOR('',#317,1.);
#317 = DIRECTION('',(0.,-2.22044604925E-16,-1.));
#318 = ORIENTED_EDGE('',*,*,#319,.F.);
#319 = EDGE_CURVE('',#94,#312,#320,.T.);
#320 = LINE('',#321,#322);
#321 = CARTESIAN_POINT('',(1.05,5.E-02,1.05));
#322 = VECTOR('',#323,1.);
#323 = DIRECTION('',(-1.,0.,0.));
#324 = ORIENTED_EDGE('',*,*,#101,.F.);
#325 = ORIENTED_EDGE('',*,*,#326,.T.);
#326 = EDGE_CURVE('',#102,#327,#329,.T.);
#327 = VERTEX_POINT('',#328);
#328 = CARTESIAN_POINT('',(0.285,5.E-02,0.81));
#329 = LINE('',#330,#331);
#330 = CARTESIAN_POINT('',(0.1425,5.E-02,0.81));
#331 = VECTOR('',#332,1.);
#332 = DIRECTION('',(-1.,0.,0.));
#333 = ORIENTED_EDGE('',*,*,#334,.T.);
#334 = EDGE_CURVE('',#327,#335,#337,.T.);
#335 = VERTEX_POINT('',#336);
#336 = CARTESIAN_POINT('',(0.285,5.E-02,0.49));
#337 = CIRCLE('',#338,0.16);
#338 = AXIS2_PLACEMENT_3D('',#339,#340,#341);
#339 = CARTESIAN_POINT('',(0.285,5.E-02,0.65));
#340 = DIRECTION('',(0.,-1.,2.22044604925E-16));
#341 = DIRECTION('',(1.,0.,0.));
#342 = ORIENTED_EDGE('',*,*,#343,.T.);
#343 = EDGE_CURVE('',#335,#126,#344,.T.);
#344 = LINE('',#345,#346);
#345 = CARTESIAN_POINT('',(0.525,5.E-02,0.49));
#346 = VECTOR('',#347,1.);
#347 = DIRECTION('',(1.,0.,0.));
#348 = ORIENTED_EDGE('',*,*,#133,.F.);
#349 = ORIENTED_EDGE('',*,*,#350,.T.);
#350 = EDGE_CURVE('',#134,#351,#353,.T.);
#351 = VERTEX_POINT('',#352);
#352 = CARTESIAN_POINT('',(0.285,5.E-02,0.16));
#353 = LINE('',#354,#355);
#354 = CARTESIAN_POINT('',(0.1425,5.E-02,0.16));
#355 = VECTOR('',#356,1.);
#356 = DIRECTION('',(-1.,0.,0.));
#357 = ORIENTED_EDGE('',*,*,#358,.T.);
#358 = EDGE_CURVE('',#351,#359,#361,.T.);
#359 = VERTEX_POINT('',#360);
#360 = CARTESIAN_POINT('',(0.285,5.E-02,-0.16));
#361 = CIRCLE('',#362,0.16);
#362 = AXIS2_PLACEMENT_3D('',#363,#364,#365);
#363 = CARTESIAN_POINT('',(0.285,5.E-02,-1.110223024625E-17));
#364 = DIRECTION('',(0.,-1.,2.22044604925E-16));
#365 = DIRECTION('',(1.,0.,0.));
#366 = ORIENTED_EDGE('',*,*,#367,.T.);
#367 = EDGE_CURVE('',#359,#158,#368,.T.);
#368 = LINE('',#369,#370);
#369 = CARTESIAN_POINT('',(0.525,5.E-02,-0.16));
#370 = VECTOR('',#371,1.);
#371 = DIRECTION('',(1.,0.,0.));
#372 = ORIENTED_EDGE('',*,*,#165,.F.);
#373 = ORIENTED_EDGE('',*,*,#374,.T.);
#374 = EDGE_CURVE('',#166,#375,#377,.T.);
#375 = VERTEX_POINT('',#376);
#376 = CARTESIAN_POINT('',(0.285,5.E-02,-0.49));
#377 = LINE('',#378,#379);
#378 = CARTESIAN_POINT('',(0.1425,5.E-02,-0.49));
#379 = VECTOR('',#380,1.);
#380 = DIRECTION('',(-1.,0.,0.));
#381 = ORIENTED_EDGE('',*,*,#382,.T.);
#382 = EDGE_CURVE('',#375,#383,#385,.T.);
#383 = VERTEX_POINT('',#384);
#384 = CARTESIAN_POINT('',(0.285,5.E-02,-0.81));
#385 = CIRCLE('',#386,0.16);
#386 = AXIS2_PLACEMENT_3D('',#387,#388,#389);
#387 = CARTESIAN_POINT('',(0.285,5.E-02,-0.65));
#388 = DIRECTION('',(0.,-1.,2.22044604925E-16));
#389 = DIRECTION('',(1.,0.,0.));
#390 = ORIENTED_EDGE('',*,*,#391,.T.);
#391 = EDGE_CURVE('',#383,#70,#392,.T.);
#392 = LINE('',#393,#394);
#393 = CARTESIAN_POINT('',(0.525,5.E-02,-0.81));
#394 = VECTOR('',#395,1.);
#395 = DIRECTION('',(1.,0.,0.));
#396 = PLANE('',#397);
#397 = AXIS2_PLACEMENT_3D('',#398,#399,#400);
#398 = CARTESIAN_POINT('',(0.,5.E-02,-1.387778780781E-17));
#399 = DIRECTION('',(0.,1.,0.));
#400 = DIRECTION('',(0.,0.,1.));
#401 = ADVANCED_FACE('',(#402),#420,.T.);
#402 = FACE_BOUND('',#403,.T.);
#403 = EDGE_LOOP('',(#404,#405,#406,#414));
#404 = ORIENTED_EDGE('',*,*,#391,.T.);
#405 = ORIENTED_EDGE('',*,*,#189,.T.);
#406 = ORIENTED_EDGE('',*,*,#407,.T.);
#407 = EDGE_CURVE('',#182,#408,#410,.T.);
#408 = VERTEX_POINT('',#409);
#409 = CARTESIAN_POINT('',(0.285,0.2,-0.81));
#410 = LINE('',#411,#412);
#411 = CARTESIAN_POINT('',(1.05,0.2,-0.81));
#412 = VECTOR('',#413,1.);
#413 = DIRECTION('',(-1.,0.,0.));
#414 = ORIENTED_EDGE('',*,*,#415,.F.);
#415 = EDGE_CURVE('',#383,#408,#416,.T.);
#416 = LINE('',#417,#418);
#417 = CARTESIAN_POINT('',(0.285,-1.798561299893E-16,-0.81));
#418 = VECTOR('',#419,1.);
#419 = DIRECTION('',(0.,1.,-2.22044604925E-16));
#420 = PLANE('',#421);
#421 = AXIS2_PLACEMENT_3D('',#422,#423,#424);
#422 = CARTESIAN_POINT('',(1.05,-1.798561299893E-16,-0.81));
#423 = DIRECTION('',(0.,2.22044604925E-16,1.));
#424 = DIRECTION('',(-1.,0.,0.));
#425 = ADVANCED_FACE('',(#426),#445,.F.);
#426 = FACE_BOUND('',#427,.F.);
#427 = EDGE_LOOP('',(#428,#429,#430,#439));
#428 = ORIENTED_EDGE('',*,*,#181,.T.);
#429 = ORIENTED_EDGE('',*,*,#407,.T.);
#430 = ORIENTED_EDGE('',*,*,#431,.F.);
#431 = EDGE_CURVE('',#432,#408,#434,.T.);
#432 = VERTEX_POINT('',#433);
#433 = CARTESIAN_POINT('',(0.285,0.2,-0.49));
#434 = CIRCLE('',#435,0.16);
#435 = AXIS2_PLACEMENT_3D('',#436,#437,#438);
#436 = CARTESIAN_POINT('',(0.285,0.2,-0.65));
#437 = DIRECTION('',(0.,-1.,2.22044604925E-16));
#438 = DIRECTION('',(1.,0.,0.));
#439 = ORIENTED_EDGE('',*,*,#440,.T.);
#440 = EDGE_CURVE('',#432,#174,#441,.T.);
#441 = LINE('',#442,#443);
#442 = CARTESIAN_POINT('',(0.285,0.2,-0.49));
#443 = VECTOR('',#444,1.);
#444 = DIRECTION('',(1.,0.,0.));
#445 = PLANE('',#446);
#446 = AXIS2_PLACEMENT_3D('',#447,#448,#449);
#447 = CARTESIAN_POINT('',(0.622203647779,0.2,-0.65));
#448 = DIRECTION('',(0.,1.,0.));
#449 = DIRECTION('',(0.,0.,1.));
#450 = ADVANCED_FACE('',(#451),#462,.T.);
#451 = FACE_BOUND('',#452,.T.);
#452 = EDGE_LOOP('',(#453,#454,#460,#461));
#453 = ORIENTED_EDGE('',*,*,#374,.T.);
#454 = ORIENTED_EDGE('',*,*,#455,.T.);
#455 = EDGE_CURVE('',#375,#432,#456,.T.);
#456 = LINE('',#457,#458);
#457 = CARTESIAN_POINT('',(0.285,-1.088018564133E-16,-0.49));
#458 = VECTOR('',#459,1.);
#459 = DIRECTION('',(0.,1.,-2.22044604925E-16));
#460 = ORIENTED_EDGE('',*,*,#440,.T.);
#461 = ORIENTED_EDGE('',*,*,#173,.F.);
#462 = PLANE('',#463);
#463 = AXIS2_PLACEMENT_3D('',#464,#465,#466);
#464 = CARTESIAN_POINT('',(0.285,-1.088018564133E-16,-0.49));
#465 = DIRECTION('',(0.,-2.22044604925E-16,-1.));
#466 = DIRECTION('',(1.,0.,0.));
#467 = ADVANCED_FACE('',(#468),#486,.T.);
#468 = FACE_BOUND('',#469,.T.);
#469 = EDGE_LOOP('',(#470,#471,#472,#480));
#470 = ORIENTED_EDGE('',*,*,#367,.T.);
#471 = ORIENTED_EDGE('',*,*,#157,.T.);
#472 = ORIENTED_EDGE('',*,*,#473,.T.);
#473 = EDGE_CURVE('',#150,#474,#476,.T.);
#474 = VERTEX_POINT('',#475);
#475 = CARTESIAN_POINT('',(0.285,0.2,-0.16));
#476 = LINE('',#477,#478);
#477 = CARTESIAN_POINT('',(1.05,0.2,-0.16));
#478 = VECTOR('',#479,1.);
#479 = DIRECTION('',(-1.,0.,0.));
#480 = ORIENTED_EDGE('',*,*,#481,.F.);
#481 = EDGE_CURVE('',#359,#474,#482,.T.);
#482 = LINE('',#483,#484);
#483 = CARTESIAN_POINT('',(0.285,-1.110223024625E-16,-0.16));
#484 = VECTOR('',#485,1.);
#485 = DIRECTION('',(0.,1.,-2.22044604925E-16));
#486 = PLANE('',#487);
#487 = AXIS2_PLACEMENT_3D('',#488,#489,#490);
#488 = CARTESIAN_POINT('',(1.05,-1.110223024625E-16,-0.16));
#489 = DIRECTION('',(0.,2.22044604925E-16,1.));
#490 = DIRECTION('',(-1.,0.,0.));
#491 = ADVANCED_FACE('',(#492),#511,.F.);
#492 = FACE_BOUND('',#493,.F.);
#493 = EDGE_LOOP('',(#494,#495,#496,#505));
#494 = ORIENTED_EDGE('',*,*,#149,.T.);
#495 = ORIENTED_EDGE('',*,*,#473,.T.);
#496 = ORIENTED_EDGE('',*,*,#497,.F.);
#497 = EDGE_CURVE('',#498,#474,#500,.T.);
#498 = VERTEX_POINT('',#499);
#499 = CARTESIAN_POINT('',(0.285,0.2,0.16));
#500 = CIRCLE('',#501,0.16);
#501 = AXIS2_PLACEMENT_3D('',#502,#503,#504);
#502 = CARTESIAN_POINT('',(0.285,0.2,2.775557561563E-17));
#503 = DIRECTION('',(0.,-1.,2.22044604925E-16));
#504 = DIRECTION('',(1.,0.,0.));
#505 = ORIENTED_EDGE('',*,*,#506,.T.);
#506 = EDGE_CURVE('',#498,#142,#507,.T.);
#507 = LINE('',#508,#509);
#508 = CARTESIAN_POINT('',(0.285,0.2,0.16));
#509 = VECTOR('',#510,1.);
#510 = DIRECTION('',(1.,0.,0.));
#511 = PLANE('',#512);
#512 = AXIS2_PLACEMENT_3D('',#513,#514,#515);
#513 = CARTESIAN_POINT('',(0.622203647779,0.2,-2.053912595557E-15));
#514 = DIRECTION('',(0.,1.,0.));
#515 = DIRECTION('',(0.,0.,1.));
#516 = ADVANCED_FACE('',(#517),#528,.T.);
#517 = FACE_BOUND('',#518,.T.);
#518 = EDGE_LOOP('',(#519,#520,#526,#527));
#519 = ORIENTED_EDGE('',*,*,#350,.T.);
#520 = ORIENTED_EDGE('',*,*,#521,.T.);
#521 = EDGE_CURVE('',#351,#498,#522,.T.);
#522 = LINE('',#523,#524);
#523 = CARTESIAN_POINT('',(0.285,0.,0.16));
#524 = VECTOR('',#525,1.);
#525 = DIRECTION('',(0.,1.,-2.22044604925E-16));
#526 = ORIENTED_EDGE('',*,*,#506,.T.);
#527 = ORIENTED_EDGE('',*,*,#141,.F.);
#528 = PLANE('',#529);
#529 = AXIS2_PLACEMENT_3D('',#530,#531,#532);
#530 = CARTESIAN_POINT('',(0.285,0.,0.16));
#531 = DIRECTION('',(0.,-2.22044604925E-16,-1.));
#532 = DIRECTION('',(1.,0.,0.));
#533 = ADVANCED_FACE('',(#534),#552,.T.);
#534 = FACE_BOUND('',#535,.T.);
#535 = EDGE_LOOP('',(#536,#537,#538,#546));
#536 = ORIENTED_EDGE('',*,*,#343,.T.);
#537 = ORIENTED_EDGE('',*,*,#125,.T.);
#538 = ORIENTED_EDGE('',*,*,#539,.T.);
#539 = EDGE_CURVE('',#118,#540,#542,.T.);
#540 = VERTEX_POINT('',#541);
#541 = CARTESIAN_POINT('',(0.285,0.2,0.49));
#542 = LINE('',#543,#544);
#543 = CARTESIAN_POINT('',(1.05,0.2,0.49));
#544 = VECTOR('',#545,1.);
#545 = DIRECTION('',(-1.,0.,0.));
#546 = ORIENTED_EDGE('',*,*,#547,.F.);
#547 = EDGE_CURVE('',#335,#540,#548,.T.);
#548 = LINE('',#549,#550);
#549 = CARTESIAN_POINT('',(0.285,0.,0.49));
#550 = VECTOR('',#551,1.);
#551 = DIRECTION('',(0.,1.,-2.22044604925E-16));
#552 = PLANE('',#553);
#553 = AXIS2_PLACEMENT_3D('',#554,#555,#556);
#554 = CARTESIAN_POINT('',(1.05,0.,0.49));
#555 = DIRECTION('',(0.,2.22044604925E-16,1.));
#556 = DIRECTION('',(-1.,0.,0.));
#557 = ADVANCED_FACE('',(#558),#577,.F.);
#558 = FACE_BOUND('',#559,.F.);
#559 = EDGE_LOOP('',(#560,#561,#562,#571));
#560 = ORIENTED_EDGE('',*,*,#117,.T.);
#561 = ORIENTED_EDGE('',*,*,#539,.T.);
#562 = ORIENTED_EDGE('',*,*,#563,.F.);
#563 = EDGE_CURVE('',#564,#540,#566,.T.);
#564 = VERTEX_POINT('',#565);
#565 = CARTESIAN_POINT('',(0.285,0.2,0.81));
#566 = CIRCLE('',#567,0.16);
#567 = AXIS2_PLACEMENT_3D('',#568,#569,#570);
#568 = CARTESIAN_POINT('',(0.285,0.2,0.65));
#569 = DIRECTION('',(0.,-1.,2.22044604925E-16));
#570 = DIRECTION('',(1.,0.,0.));
#571 = ORIENTED_EDGE('',*,*,#572,.T.);
#572 = EDGE_CURVE('',#564,#110,#573,.T.);
#573 = LINE('',#574,#575);
#574 = CARTESIAN_POINT('',(0.285,0.2,0.81));
#575 = VECTOR('',#576,1.);
#576 = DIRECTION('',(1.,0.,0.));
#577 = PLANE('',#578);
#578 = AXIS2_PLACEMENT_3D('',#579,#580,#581);
#579 = CARTESIAN_POINT('',(0.622203647779,0.2,0.65));
#580 = DIRECTION('',(0.,1.,0.));
#581 = DIRECTION('',(0.,0.,1.));
#582 = ADVANCED_FACE('',(#583),#594,.T.);
#583 = FACE_BOUND('',#584,.T.);
#584 = EDGE_LOOP('',(#585,#586,#592,#593));
#585 = ORIENTED_EDGE('',*,*,#326,.T.);
#586 = ORIENTED_EDGE('',*,*,#587,.T.);
#587 = EDGE_CURVE('',#327,#564,#588,.T.);
#588 = LINE('',#589,#590);
#589 = CARTESIAN_POINT('',(0.285,2.22044604925E-16,0.81));
#590 = VECTOR('',#591,1.);
#591 = DIRECTION('',(0.,1.,-2.22044604925E-16));
#592 = ORIENTED_EDGE('',*,*,#572,.T.);
#593 = ORIENTED_EDGE('',*,*,#109,.F.);
#594 = PLANE('',#595);
#595 = AXIS2_PLACEMENT_3D('',#596,#597,#598);
#596 = CARTESIAN_POINT('',(0.285,2.22044604925E-16,0.81));
#597 = DIRECTION('',(0.,-2.22044604925E-16,-1.));
#598 = DIRECTION('',(1.,0.,0.));
#599 = ADVANCED_FACE('',(#600),#618,.T.);
#600 = FACE_BOUND('',#601,.T.);
#601 = EDGE_LOOP('',(#602,#603,#604,#612));
#602 = ORIENTED_EDGE('',*,*,#319,.F.);
#603 = ORIENTED_EDGE('',*,*,#93,.T.);
#604 = ORIENTED_EDGE('',*,*,#605,.T.);
#605 = EDGE_CURVE('',#86,#606,#608,.T.);
#606 = VERTEX_POINT('',#607);
#607 = CARTESIAN_POINT('',(-1.05,1.,1.05));
#608 = LINE('',#609,#610);
#609 = CARTESIAN_POINT('',(1.05,1.,1.05));
#610 = VECTOR('',#611,1.);
#611 = DIRECTION('',(-1.,0.,0.));
#612 = ORIENTED_EDGE('',*,*,#613,.F.);
#613 = EDGE_CURVE('',#312,#606,#614,.T.);
#614 = LINE('',#615,#616);
#615 = CARTESIAN_POINT('',(-1.05,2.331468351713E-16,1.05));
#616 = VECTOR('',#617,1.);
#617 = DIRECTION('',(0.,1.,-2.22044604925E-16));
#618 = PLANE('',#619);
#619 = AXIS2_PLACEMENT_3D('',#620,#621,#622);
#620 = CARTESIAN_POINT('',(1.05,2.331468351713E-16,1.05));
#621 = DIRECTION('',(0.,2.22044604925E-16,1.));
#622 = DIRECTION('',(-1.,0.,0.));
#623 = ADVANCED_FACE('',(#624,#642),#653,.T.);
#624 = FACE_BOUND('',#625,.T.);
#625 = EDGE_LOOP('',(#626,#627,#635,#641));
#626 = ORIENTED_EDGE('',*,*,#85,.F.);
#627 = ORIENTED_EDGE('',*,*,#628,.F.);
#628 = EDGE_CURVE('',#629,#78,#631,.T.);
#629 = VERTEX_POINT('',#630);
#630 = CARTESIAN_POINT('',(-1.05,1.,-1.05));
#631 = LINE('',#632,#633);
#632 = CARTESIAN_POINT('',(-1.05,1.,-1.05));
#633 = VECTOR('',#634,1.);
#634 = DIRECTION('',(1.,0.,0.));
#635 = ORIENTED_EDGE('',*,*,#636,.F.);
#636 = EDGE_CURVE('',#606,#629,#637,.T.);
#637 = LINE('',#638,#639);
#638 = CARTESIAN_POINT('',(-1.05,1.,1.05));
#639 = VECTOR('',#640,1.);
#640 = DIRECTION('',(0.,-2.22044604925E-16,-1.));
#641 = ORIENTED_EDGE('',*,*,#605,.F.);
#642 = FACE_BOUND('',#643,.T.);
#643 = EDGE_LOOP('',(#644));
#644 = ORIENTED_EDGE('',*,*,#645,.F.);
#645 = EDGE_CURVE('',#646,#646,#648,.T.);
#646 = VERTEX_POINT('',#647);
#647 = CARTESIAN_POINT('',(-0.6783,1.,-0.7833));
#648 = CIRCLE('',#649,0.105);
#649 = AXIS2_PLACEMENT_3D('',#650,#651,#652);
#650 = CARTESIAN_POINT('',(-0.7833,1.,-0.7833));
#651 = DIRECTION('',(-0.,1.,2.22044604925E-16));
#652 = DIRECTION('',(1.,0.,0.));
#653 = PLANE('',#654);
#654 = AXIS2_PLACEMENT_3D('',#655,#656,#657);
#655 = CARTESIAN_POINT('',(0.,1.,-2.22044604925E-16));
#656 = DIRECTION('',(0.,1.,0.));
#657 = DIRECTION('',(0.,0.,1.));
#658 = ADVANCED_FACE('',(#659),#670,.T.);
#659 = FACE_BOUND('',#660,.T.);
#660 = EDGE_LOOP('',(#661,#662,#668,#669));
#661 = ORIENTED_EDGE('',*,*,#204,.F.);
#662 = ORIENTED_EDGE('',*,*,#663,.T.);
#663 = EDGE_CURVE('',#205,#629,#664,.T.);
#664 = LINE('',#665,#666);
#665 = CARTESIAN_POINT('',(-1.05,-2.331468351713E-16,-1.05));
#666 = VECTOR('',#667,1.);
#667 = DIRECTION('',(0.,1.,-2.22044604925E-16));
#668 = ORIENTED_EDGE('',*,*,#628,.T.);
#669 = ORIENTED_EDGE('',*,*,#77,.F.);
#670 = PLANE('',#671);
#671 = AXIS2_PLACEMENT_3D('',#672,#673,#674);
#672 = CARTESIAN_POINT('',(-1.05,-2.331468351713E-16,-1.05));
#673 = DIRECTION('',(0.,-2.22044604925E-16,-1.));
#674 = DIRECTION('',(1.,0.,0.));
#675 = ADVANCED_FACE('',(#676),#682,.F.);
#676 = FACE_BOUND('',#677,.F.);
#677 = EDGE_LOOP('',(#678,#679,#680,#681));
#678 = ORIENTED_EDGE('',*,*,#382,.F.);
#679 = ORIENTED_EDGE('',*,*,#455,.T.);
#680 = ORIENTED_EDGE('',*,*,#431,.T.);
#681 = ORIENTED_EDGE('',*,*,#415,.F.);
#682 = CYLINDRICAL_SURFACE('',#683,0.16);
#683 = AXIS2_PLACEMENT_3D('',#684,#685,#686);
#684 = CARTESIAN_POINT('',(0.285,-1.443289932013E-16,-0.65));
#685 = DIRECTION('',(0.,-1.,2.22044604925E-16));
#686 = DIRECTION('',(1.,0.,0.));
#687 = ADVANCED_FACE('',(#688),#694,.F.);
#688 = FACE_BOUND('',#689,.F.);
#689 = EDGE_LOOP('',(#690,#691,#692,#693));
#690 = ORIENTED_EDGE('',*,*,#358,.F.);
#691 = ORIENTED_EDGE('',*,*,#521,.T.);
#692 = ORIENTED_EDGE('',*,*,#497,.T.);
#693 = ORIENTED_EDGE('',*,*,#481,.F.);
#694 = CYLINDRICAL_SURFACE('',#695,0.16);
#695 = AXIS2_PLACEMENT_3D('',#696,#697,#698);
#696 = CARTESIAN_POINT('',(0.285,0.,5.551115123126E-18));
#697 = DIRECTION('',(0.,-1.,2.22044604925E-16));
#698 = DIRECTION('',(1.,0.,0.));
#699 = ADVANCED_FACE('',(#700),#706,.F.);
#700 = FACE_BOUND('',#701,.F.);
#701 = EDGE_LOOP('',(#702,#703,#704,#705));
#702 = ORIENTED_EDGE('',*,*,#334,.F.);
#703 = ORIENTED_EDGE('',*,*,#587,.T.);
#704 = ORIENTED_EDGE('',*,*,#563,.T.);
#705 = ORIENTED_EDGE('',*,*,#547,.F.);
#706 = CYLINDRICAL_SURFACE('',#707,0.16);
#707 = AXIS2_PLACEMENT_3D('',#708,#709,#710);
#708 = CARTESIAN_POINT('',(0.285,0.,0.65));
#709 = DIRECTION('',(0.,-1.,2.22044604925E-16));
#710 = DIRECTION('',(1.,0.,0.));
#711 = ADVANCED_FACE('',(#712),#787,.T.);
#712 = FACE_BOUND('',#713,.T.);
#713 = EDGE_LOOP('',(#714,#715,#716,#717,#718,#719,#727,#735,#741,#742,
    #750,#758,#764,#765,#773,#781));
#714 = ORIENTED_EDGE('',*,*,#311,.F.);
#715 = ORIENTED_EDGE('',*,*,#613,.T.);
#716 = ORIENTED_EDGE('',*,*,#636,.T.);
#717 = ORIENTED_EDGE('',*,*,#663,.F.);
#718 = ORIENTED_EDGE('',*,*,#212,.F.);
#719 = ORIENTED_EDGE('',*,*,#720,.T.);
#720 = EDGE_CURVE('',#213,#721,#723,.T.);
#721 = VERTEX_POINT('',#722);
#722 = CARTESIAN_POINT('',(-1.05,0.2,-0.81));
#723 = LINE('',#724,#725);
#724 = CARTESIAN_POINT('',(-1.05,-1.798561299893E-16,-0.81));
#725 = VECTOR('',#726,1.);
#726 = DIRECTION('',(0.,1.,-2.22044604925E-16));
#727 = ORIENTED_EDGE('',*,*,#728,.T.);
#728 = EDGE_CURVE('',#721,#729,#731,.T.);
#729 = VERTEX_POINT('',#730);
#730 = CARTESIAN_POINT('',(-1.05,0.2,-0.49));
#731 = LINE('',#732,#733);
#732 = CARTESIAN_POINT('',(-1.05,0.2,-0.81));
#733 = VECTOR('',#734,1.);
#734 = DIRECTION('',(0.,2.22044604925E-16,1.));
#735 = ORIENTED_EDGE('',*,*,#736,.F.);
#736 = EDGE_CURVE('',#238,#729,#737,.T.);
#737 = LINE('',#738,#739);
#738 = CARTESIAN_POINT('',(-1.05,-1.088018564133E-16,-0.49));
#739 = VECTOR('',#740,1.);
#740 = DIRECTION('',(0.,1.,-2.22044604925E-16));
#741 = ORIENTED_EDGE('',*,*,#245,.F.);
#742 = ORIENTED_EDGE('',*,*,#743,.T.);
#743 = EDGE_CURVE('',#246,#744,#746,.T.);
#744 = VERTEX_POINT('',#745);
#745 = CARTESIAN_POINT('',(-1.05,0.2,-0.16));
#746 = LINE('',#747,#748);
#747 = CARTESIAN_POINT('',(-1.05,-1.110223024625E-16,-0.16));
#748 = VECTOR('',#749,1.);
#749 = DIRECTION('',(0.,1.,-2.22044604925E-16));
#750 = ORIENTED_EDGE('',*,*,#751,.T.);
#751 = EDGE_CURVE('',#744,#752,#754,.T.);
#752 = VERTEX_POINT('',#753);
#753 = CARTESIAN_POINT('',(-1.05,0.2,0.16));
#754 = LINE('',#755,#756);
#755 = CARTESIAN_POINT('',(-1.05,0.2,-0.16));
#756 = VECTOR('',#757,1.);
#757 = DIRECTION('',(0.,2.22044604925E-16,1.));
#758 = ORIENTED_EDGE('',*,*,#759,.F.);
#759 = EDGE_CURVE('',#271,#752,#760,.T.);
#760 = LINE('',#761,#762);
#761 = CARTESIAN_POINT('',(-1.05,0.,0.16));
#762 = VECTOR('',#763,1.);
#763 = DIRECTION('',(0.,1.,-2.22044604925E-16));
#764 = ORIENTED_EDGE('',*,*,#278,.F.);
#765 = ORIENTED_EDGE('',*,*,#766,.T.);
#766 = EDGE_CURVE('',#279,#767,#769,.T.);
#767 = VERTEX_POINT('',#768);
#768 = CARTESIAN_POINT('',(-1.05,0.2,0.49));
#769 = LINE('',#770,#771);
#770 = CARTESIAN_POINT('',(-1.05,0.,0.49));
#771 = VECTOR('',#772,1.);
#772 = DIRECTION('',(0.,1.,-2.22044604925E-16));
#773 = ORIENTED_EDGE('',*,*,#774,.T.);
#774 = EDGE_CURVE('',#767,#775,#777,.T.);
#775 = VERTEX_POINT('',#776);
#776 = CARTESIAN_POINT('',(-1.05,0.2,0.81));
#777 = LINE('',#778,#779);
#778 = CARTESIAN_POINT('',(-1.05,0.2,0.49));
#779 = VECTOR('',#780,1.);
#780 = DIRECTION('',(0.,2.22044604925E-16,1.));
#781 = ORIENTED_EDGE('',*,*,#782,.F.);
#782 = EDGE_CURVE('',#304,#775,#783,.T.);
#783 = LINE('',#784,#785);
#784 = CARTESIAN_POINT('',(-1.05,2.22044604925E-16,0.81));
#785 = VECTOR('',#786,1.);
#786 = DIRECTION('',(0.,1.,-2.22044604925E-16));
#787 = PLANE('',#788);
#788 = AXIS2_PLACEMENT_3D('',#789,#790,#791);
#789 = CARTESIAN_POINT('',(-1.05,2.331468351713E-16,1.05));
#790 = DIRECTION('',(-1.,0.,0.));
#791 = DIRECTION('',(0.,-2.22044604925E-16,-1.));
#792 = ADVANCED_FACE('',(#793),#811,.T.);
#793 = FACE_BOUND('',#794,.T.);
#794 = EDGE_LOOP('',(#795,#796,#797,#805));
#795 = ORIENTED_EDGE('',*,*,#303,.T.);
#796 = ORIENTED_EDGE('',*,*,#782,.T.);
#797 = ORIENTED_EDGE('',*,*,#798,.T.);
#798 = EDGE_CURVE('',#775,#799,#801,.T.);
#799 = VERTEX_POINT('',#800);
#800 = CARTESIAN_POINT('',(-0.285,0.2,0.81));
#801 = LINE('',#802,#803);
#802 = CARTESIAN_POINT('',(-1.05,0.2,0.81));
#803 = VECTOR('',#804,1.);
#804 = DIRECTION('',(1.,0.,0.));
#805 = ORIENTED_EDGE('',*,*,#806,.F.);
#806 = EDGE_CURVE('',#295,#799,#807,.T.);
#807 = LINE('',#808,#809);
#808 = CARTESIAN_POINT('',(-0.285,2.22044604925E-16,0.81));
#809 = VECTOR('',#810,1.);
#810 = DIRECTION('',(0.,1.,-2.22044604925E-16));
#811 = PLANE('',#812);
#812 = AXIS2_PLACEMENT_3D('',#813,#814,#815);
#813 = CARTESIAN_POINT('',(-1.05,2.22044604925E-16,0.81));
#814 = DIRECTION('',(0.,-2.22044604925E-16,-1.));
#815 = DIRECTION('',(1.,0.,0.));
#816 = ADVANCED_FACE('',(#817),#836,.F.);
#817 = FACE_BOUND('',#818,.F.);
#818 = EDGE_LOOP('',(#819,#820,#828,#835));
#819 = ORIENTED_EDGE('',*,*,#294,.F.);
#820 = ORIENTED_EDGE('',*,*,#821,.T.);
#821 = EDGE_CURVE('',#287,#822,#824,.T.);
#822 = VERTEX_POINT('',#823);
#823 = CARTESIAN_POINT('',(-0.285,0.2,0.49));
#824 = LINE('',#825,#826);
#825 = CARTESIAN_POINT('',(-0.285,0.,0.49));
#826 = VECTOR('',#827,1.);
#827 = DIRECTION('',(0.,1.,-2.22044604925E-16));
#828 = ORIENTED_EDGE('',*,*,#829,.T.);
#829 = EDGE_CURVE('',#822,#799,#830,.T.);
#830 = CIRCLE('',#831,0.16);
#831 = AXIS2_PLACEMENT_3D('',#832,#833,#834);
#832 = CARTESIAN_POINT('',(-0.285,0.2,0.65));
#833 = DIRECTION('',(0.,-1.,2.22044604925E-16));
#834 = DIRECTION('',(1.,0.,0.));
#835 = ORIENTED_EDGE('',*,*,#806,.F.);
#836 = CYLINDRICAL_SURFACE('',#837,0.16);
#837 = AXIS2_PLACEMENT_3D('',#838,#839,#840);
#838 = CARTESIAN_POINT('',(-0.285,0.,0.65));
#839 = DIRECTION('',(0.,-1.,2.22044604925E-16));
#840 = DIRECTION('',(1.,0.,0.));
#841 = ADVANCED_FACE('',(#842),#853,.T.);
#842 = FACE_BOUND('',#843,.T.);
#843 = EDGE_LOOP('',(#844,#845,#846,#852));
#844 = ORIENTED_EDGE('',*,*,#286,.T.);
#845 = ORIENTED_EDGE('',*,*,#821,.T.);
#846 = ORIENTED_EDGE('',*,*,#847,.T.);
#847 = EDGE_CURVE('',#822,#767,#848,.T.);
#848 = LINE('',#849,#850);
#849 = CARTESIAN_POINT('',(-0.285,0.2,0.49));
#850 = VECTOR('',#851,1.);
#851 = DIRECTION('',(-1.,0.,0.));
#852 = ORIENTED_EDGE('',*,*,#766,.F.);
#853 = PLANE('',#854);
#854 = AXIS2_PLACEMENT_3D('',#855,#856,#857);
#855 = CARTESIAN_POINT('',(-0.285,0.,0.49));
#856 = DIRECTION('',(0.,2.22044604925E-16,1.));
#857 = DIRECTION('',(-1.,0.,0.));
#858 = ADVANCED_FACE('',(#859),#877,.T.);
#859 = FACE_BOUND('',#860,.T.);
#860 = EDGE_LOOP('',(#861,#862,#863,#871));
#861 = ORIENTED_EDGE('',*,*,#270,.T.);
#862 = ORIENTED_EDGE('',*,*,#759,.T.);
#863 = ORIENTED_EDGE('',*,*,#864,.T.);
#864 = EDGE_CURVE('',#752,#865,#867,.T.);
#865 = VERTEX_POINT('',#866);
#866 = CARTESIAN_POINT('',(-0.285,0.2,0.16));
#867 = LINE('',#868,#869);
#868 = CARTESIAN_POINT('',(-1.05,0.2,0.16));
#869 = VECTOR('',#870,1.);
#870 = DIRECTION('',(1.,0.,0.));
#871 = ORIENTED_EDGE('',*,*,#872,.F.);
#872 = EDGE_CURVE('',#262,#865,#873,.T.);
#873 = LINE('',#874,#875);
#874 = CARTESIAN_POINT('',(-0.285,0.,0.16));
#875 = VECTOR('',#876,1.);
#876 = DIRECTION('',(0.,1.,-2.22044604925E-16));
#877 = PLANE('',#878);
#878 = AXIS2_PLACEMENT_3D('',#879,#880,#881);
#879 = CARTESIAN_POINT('',(-1.05,0.,0.16));
#880 = DIRECTION('',(0.,-2.22044604925E-16,-1.));
#881 = DIRECTION('',(1.,0.,0.));
#882 = ADVANCED_FACE('',(#883),#902,.F.);
#883 = FACE_BOUND('',#884,.F.);
#884 = EDGE_LOOP('',(#885,#886,#894,#901));
#885 = ORIENTED_EDGE('',*,*,#261,.F.);
#886 = ORIENTED_EDGE('',*,*,#887,.T.);
#887 = EDGE_CURVE('',#254,#888,#890,.T.);
#888 = VERTEX_POINT('',#889);
#889 = CARTESIAN_POINT('',(-0.285,0.2,-0.16));
#890 = LINE('',#891,#892);
#891 = CARTESIAN_POINT('',(-0.285,-1.110223024625E-16,-0.16));
#892 = VECTOR('',#893,1.);
#893 = DIRECTION('',(0.,1.,-2.22044604925E-16));
#894 = ORIENTED_EDGE('',*,*,#895,.T.);
#895 = EDGE_CURVE('',#888,#865,#896,.T.);
#896 = CIRCLE('',#897,0.16);
#897 = AXIS2_PLACEMENT_3D('',#898,#899,#900);
#898 = CARTESIAN_POINT('',(-0.285,0.2,2.775557561563E-17));
#899 = DIRECTION('',(0.,-1.,2.22044604925E-16));
#900 = DIRECTION('',(1.,0.,0.));
#901 = ORIENTED_EDGE('',*,*,#872,.F.);
#902 = CYLINDRICAL_SURFACE('',#903,0.16);
#903 = AXIS2_PLACEMENT_3D('',#904,#905,#906);
#904 = CARTESIAN_POINT('',(-0.285,0.,5.551115123126E-18));
#905 = DIRECTION('',(0.,-1.,2.22044604925E-16));
#906 = DIRECTION('',(1.,0.,0.));
#907 = ADVANCED_FACE('',(#908),#919,.T.);
#908 = FACE_BOUND('',#909,.T.);
#909 = EDGE_LOOP('',(#910,#911,#912,#918));
#910 = ORIENTED_EDGE('',*,*,#253,.T.);
#911 = ORIENTED_EDGE('',*,*,#887,.T.);
#912 = ORIENTED_EDGE('',*,*,#913,.T.);
#913 = EDGE_CURVE('',#888,#744,#914,.T.);
#914 = LINE('',#915,#916);
#915 = CARTESIAN_POINT('',(-0.285,0.2,-0.16));
#916 = VECTOR('',#917,1.);
#917 = DIRECTION('',(-1.,0.,0.));
#918 = ORIENTED_EDGE('',*,*,#743,.F.);
#919 = PLANE('',#920);
#920 = AXIS2_PLACEMENT_3D('',#921,#922,#923);
#921 = CARTESIAN_POINT('',(-0.285,-1.110223024625E-16,-0.16));
#922 = DIRECTION('',(0.,2.22044604925E-16,1.));
#923 = DIRECTION('',(-1.,0.,0.));
#924 = ADVANCED_FACE('',(#925),#943,.T.);
#925 = FACE_BOUND('',#926,.T.);
#926 = EDGE_LOOP('',(#927,#928,#929,#937));
#927 = ORIENTED_EDGE('',*,*,#237,.T.);
#928 = ORIENTED_EDGE('',*,*,#736,.T.);
#929 = ORIENTED_EDGE('',*,*,#930,.T.);
#930 = EDGE_CURVE('',#729,#931,#933,.T.);
#931 = VERTEX_POINT('',#932);
#932 = CARTESIAN_POINT('',(-0.285,0.2,-0.49));
#933 = LINE('',#934,#935);
#934 = CARTESIAN_POINT('',(-1.05,0.2,-0.49));
#935 = VECTOR('',#936,1.);
#936 = DIRECTION('',(1.,0.,0.));
#937 = ORIENTED_EDGE('',*,*,#938,.F.);
#938 = EDGE_CURVE('',#229,#931,#939,.T.);
#939 = LINE('',#940,#941);
#940 = CARTESIAN_POINT('',(-0.285,-1.088018564133E-16,-0.49));
#941 = VECTOR('',#942,1.);
#942 = DIRECTION('',(0.,1.,-2.22044604925E-16));
#943 = PLANE('',#944);
#944 = AXIS2_PLACEMENT_3D('',#945,#946,#947);
#945 = CARTESIAN_POINT('',(-1.05,-1.088018564133E-16,-0.49));
#946 = DIRECTION('',(0.,-2.22044604925E-16,-1.));
#947 = DIRECTION('',(1.,0.,0.));
#948 = ADVANCED_FACE('',(#949),#968,.F.);
#949 = FACE_BOUND('',#950,.F.);
#950 = EDGE_LOOP('',(#951,#952,#960,#967));
#951 = ORIENTED_EDGE('',*,*,#228,.F.);
#952 = ORIENTED_EDGE('',*,*,#953,.T.);
#953 = EDGE_CURVE('',#221,#954,#956,.T.);
#954 = VERTEX_POINT('',#955);
#955 = CARTESIAN_POINT('',(-0.285,0.2,-0.81));
#956 = LINE('',#957,#958);
#957 = CARTESIAN_POINT('',(-0.285,-1.798561299893E-16,-0.81));
#958 = VECTOR('',#959,1.);
#959 = DIRECTION('',(0.,1.,-2.22044604925E-16));
#960 = ORIENTED_EDGE('',*,*,#961,.T.);
#961 = EDGE_CURVE('',#954,#931,#962,.T.);
#962 = CIRCLE('',#963,0.16);
#963 = AXIS2_PLACEMENT_3D('',#964,#965,#966);
#964 = CARTESIAN_POINT('',(-0.285,0.2,-0.65));
#965 = DIRECTION('',(0.,-1.,2.22044604925E-16));
#966 = DIRECTION('',(1.,0.,0.));
#967 = ORIENTED_EDGE('',*,*,#938,.F.);
#968 = CYLINDRICAL_SURFACE('',#969,0.16);
#969 = AXIS2_PLACEMENT_3D('',#970,#971,#972);
#970 = CARTESIAN_POINT('',(-0.285,-1.443289932013E-16,-0.65));
#971 = DIRECTION('',(0.,-1.,2.22044604925E-16));
#972 = DIRECTION('',(1.,0.,0.));
#973 = ADVANCED_FACE('',(#974),#985,.T.);
#974 = FACE_BOUND('',#975,.T.);
#975 = EDGE_LOOP('',(#976,#977,#978,#984));
#976 = ORIENTED_EDGE('',*,*,#220,.T.);
#977 = ORIENTED_EDGE('',*,*,#953,.T.);
#978 = ORIENTED_EDGE('',*,*,#979,.T.);
#979 = EDGE_CURVE('',#954,#721,#980,.T.);
#980 = LINE('',#981,#982);
#981 = CARTESIAN_POINT('',(-0.285,0.2,-0.81));
#982 = VECTOR('',#983,1.);
#983 = DIRECTION('',(-1.,0.,0.));
#984 = ORIENTED_EDGE('',*,*,#720,.F.);
#985 = PLANE('',#986);
#986 = AXIS2_PLACEMENT_3D('',#987,#988,#989);
#987 = CARTESIAN_POINT('',(-0.285,-1.798561299893E-16,-0.81));
#988 = DIRECTION('',(0.,2.22044604925E-16,1.));
#989 = DIRECTION('',(-1.,0.,0.));
#990 = ADVANCED_FACE('',(#991),#1010,.F.);
#991 = FACE_BOUND('',#992,.F.);
#992 = EDGE_LOOP('',(#993,#1001,#1008,#1009));
#993 = ORIENTED_EDGE('',*,*,#994,.T.);
#994 = EDGE_CURVE('',#646,#995,#997,.T.);
#995 = VERTEX_POINT('',#996);
#996 = CARTESIAN_POINT('',(-0.6783,0.746,-0.7833));
#997 = LINE('',#998,#999);
#998 = CARTESIAN_POINT('',(-0.6783,1.,-0.7833));
#999 = VECTOR('',#1000,1.);
#1000 = DIRECTION('',(0.,-1.,-2.22044604925E-16));
#1001 = ORIENTED_EDGE('',*,*,#1002,.T.);
#1002 = EDGE_CURVE('',#995,#995,#1003,.T.);
#1003 = CIRCLE('',#1004,0.105);
#1004 = AXIS2_PLACEMENT_3D('',#1005,#1006,#1007);
#1005 = CARTESIAN_POINT('',(-0.7833,0.746,-0.7833));
#1006 = DIRECTION('',(-0.,1.,2.22044604925E-16));
#1007 = DIRECTION('',(1.,0.,0.));
#1008 = ORIENTED_EDGE('',*,*,#994,.F.);
#1009 = ORIENTED_EDGE('',*,*,#645,.F.);
#1010 = CYLINDRICAL_SURFACE('',#1011,0.105);
#1011 = AXIS2_PLACEMENT_3D('',#1012,#1013,#1014);
#1012 = CARTESIAN_POINT('',(-0.7833,1.,-0.7833));
#1013 = DIRECTION('',(0.,1.,2.22044604925E-16));
#1014 = DIRECTION('',(1.,0.,0.));
#1015 = ADVANCED_FACE('',(#1016),#1022,.F.);
#1016 = FACE_BOUND('',#1017,.F.);
#1017 = EDGE_LOOP('',(#1018,#1019,#1020,#1021));
#1018 = ORIENTED_EDGE('',*,*,#774,.T.);
#1019 = ORIENTED_EDGE('',*,*,#798,.T.);
#1020 = ORIENTED_EDGE('',*,*,#829,.F.);
#1021 = ORIENTED_EDGE('',*,*,#847,.T.);
#1022 = PLANE('',#1023);
#1023 = AXIS2_PLACEMENT_3D('',#1024,#1025,#1026);
#1024 = CARTESIAN_POINT('',(-0.622203647779,0.2,0.65));
#1025 = DIRECTION('',(0.,1.,0.));
#1026 = DIRECTION('',(0.,0.,1.));
#1027 = ADVANCED_FACE('',(#1028),#1034,.F.);
#1028 = FACE_BOUND('',#1029,.F.);
#1029 = EDGE_LOOP('',(#1030,#1031,#1032,#1033));
#1030 = ORIENTED_EDGE('',*,*,#751,.T.);
#1031 = ORIENTED_EDGE('',*,*,#864,.T.);
#1032 = ORIENTED_EDGE('',*,*,#895,.F.);
#1033 = ORIENTED_EDGE('',*,*,#913,.T.);
#1034 = PLANE('',#1035);
#1035 = AXIS2_PLACEMENT_3D('',#1036,#1037,#1038);
#1036 = CARTESIAN_POINT('',(-0.622203647779,0.2,-1.942890293094E-15));
#1037 = DIRECTION('',(0.,1.,0.));
#1038 = DIRECTION('',(0.,0.,1.));
#1039 = ADVANCED_FACE('',(#1040),#1046,.F.);
#1040 = FACE_BOUND('',#1041,.F.);
#1041 = EDGE_LOOP('',(#1042,#1043,#1044,#1045));
#1042 = ORIENTED_EDGE('',*,*,#728,.T.);
#1043 = ORIENTED_EDGE('',*,*,#930,.T.);
#1044 = ORIENTED_EDGE('',*,*,#961,.F.);
#1045 = ORIENTED_EDGE('',*,*,#979,.T.);
#1046 = PLANE('',#1047);
#1047 = AXIS2_PLACEMENT_3D('',#1048,#1049,#1050);
#1048 = CARTESIAN_POINT('',(-0.622203647779,0.2,-0.65));
#1049 = DIRECTION('',(0.,1.,0.));
#1050 = DIRECTION('',(0.,0.,1.));
#1051 = ADVANCED_FACE('',(#1052),#1055,.T.);
#1052 = FACE_BOUND('',#1053,.T.);
#1053 = EDGE_LOOP('',(#1054));
#1054 = ORIENTED_EDGE('',*,*,#1002,.T.);
#1055 = PLANE('',#1056);
#1056 = AXIS2_PLACEMENT_3D('',#1057,#1058,#1059);
#1057 = CARTESIAN_POINT('',(-0.7833,0.746,-0.7833));
#1058 = DIRECTION('',(0.,1.,0.));
#1059 = DIRECTION('',(0.,0.,1.));
#1060 = ( GEOMETRIC_REPRESENTATION_CONTEXT(3) 
GLOBAL_UNCERTAINTY_ASSIGNED_CONTEXT((#1064)) 
GLOBAL_UNIT_ASSIGNED_CONTEXT((#1061,#1062,#1063)) REPRESENTATION_CONTEXT
('Context #1','3D Context with UNIT and UNCERTAINTY') );
#1061 = ( LENGTH_UNIT() NAMED_UNIT(*) SI_UNIT(.MILLI.,.METRE.) );
#1062 = ( NAMED_UNIT(*) PLANE_ANGLE_UNIT() SI_UNIT($,.RADIAN.) );
#1063 = ( NAMED_UNIT(*) SI_UNIT($,.STERADIAN.) SOLID_ANGLE_UNIT() );
#1064 = UNCERTAINTY_MEASURE_WITH_UNIT(LENGTH_MEASURE(5.E-07),#1061,
  'distance_accuracy_value','confusion accuracy');
#1065 = CONTEXT_DEPENDENT_SHAPE_REPRESENTATION(#1066,#1068);
#1066 = ( REPRESENTATION_RELATIONSHIP('','',#60,#10) 
REPRESENTATION_RELATIONSHIP_WITH_TRANSFORMATION(#1067) 
SHAPE_REPRESENTATION_RELATIONSHIP() );
#1067 = ITEM_DEFINED_TRANSFORMATION('','',#11,#15);
#1068 = PRODUCT_DEFINITION_SHAPE('Placement','Placement of an item',
  #1069);
#1069 = NEXT_ASSEMBLY_USAGE_OCCURRENCE('2616','Body_Solid1','',#5,#55,$
  );
#1070 = PRODUCT_RELATED_PRODUCT_CATEGORY('part',$,(#57));
#1071 = SHAPE_DEFINITION_REPRESENTATION(#1072,#1078);
#1072 = PRODUCT_DEFINITION_SHAPE('','',#1073);
#1073 = PRODUCT_DEFINITION('design','',#1074,#1077);
#1074 = PRODUCT_DEFINITION_FORMATION('','',#1075);
#1075 = PRODUCT('Body002_Solid1','Body002_Solid1','',(#1076));
#1076 = PRODUCT_CONTEXT('',#2,'mechanical');
#1077 = PRODUCT_DEFINITION_CONTEXT('part definition',#2,'design');
#1078 = ADVANCED_BREP_SHAPE_REPRESENTATION('',(#11,#1079),#1231);
#1079 = MANIFOLD_SOLID_BREP('',#1080);
#1080 = CLOSED_SHELL('',(#1081,#1121,#1152,#1185,#1207,#1219));
#1081 = ADVANCED_FACE('',(#1082),#1116,.F.);
#1082 = FACE_BOUND('',#1083,.F.);
#1083 = EDGE_LOOP('',(#1084,#1094,#1102,#1110));
#1084 = ORIENTED_EDGE('',*,*,#1085,.T.);
#1085 = EDGE_CURVE('',#1086,#1088,#1090,.T.);
#1086 = VERTEX_POINT('',#1087);
#1087 = CARTESIAN_POINT('',(1.05,1.798561299893E-16,0.81));
#1088 = VERTEX_POINT('',#1089);
#1089 = CARTESIAN_POINT('',(1.05,0.2,0.81));
#1090 = LINE('',#1091,#1092);
#1091 = CARTESIAN_POINT('',(1.05,1.798561299893E-16,0.81));
#1092 = VECTOR('',#1093,1.);
#1093 = DIRECTION('',(-0.,1.,-2.22044604925E-16));
#1094 = ORIENTED_EDGE('',*,*,#1095,.T.);
#1095 = EDGE_CURVE('',#1088,#1096,#1098,.T.);
#1096 = VERTEX_POINT('',#1097);
#1097 = CARTESIAN_POINT('',(1.05,0.2,0.49));
#1098 = LINE('',#1099,#1100);
#1099 = CARTESIAN_POINT('',(1.05,0.2,0.81));
#1100 = VECTOR('',#1101,1.);
#1101 = DIRECTION('',(0.,-2.22044604925E-16,-1.));
#1102 = ORIENTED_EDGE('',*,*,#1103,.F.);
#1103 = EDGE_CURVE('',#1104,#1096,#1106,.T.);
#1104 = VERTEX_POINT('',#1105);
#1105 = CARTESIAN_POINT('',(1.05,1.088018564133E-16,0.49));
#1106 = LINE('',#1107,#1108);
#1107 = CARTESIAN_POINT('',(1.05,1.088018564133E-16,0.49));
#1108 = VECTOR('',#1109,1.);
#1109 = DIRECTION('',(-0.,1.,-2.22044604925E-16));
#1110 = ORIENTED_EDGE('',*,*,#1111,.F.);
#1111 = EDGE_CURVE('',#1086,#1104,#1112,.T.);
#1112 = LINE('',#1113,#1114);
#1113 = CARTESIAN_POINT('',(1.05,1.798561299893E-16,0.81));
#1114 = VECTOR('',#1115,1.);
#1115 = DIRECTION('',(0.,-2.22044604925E-16,-1.));
#1116 = PLANE('',#1117);
#1117 = AXIS2_PLACEMENT_3D('',#1118,#1119,#1120);
#1118 = CARTESIAN_POINT('',(1.05,1.798561299893E-16,0.81));
#1119 = DIRECTION('',(-1.,-0.,0.));
#1120 = DIRECTION('',(0.,-2.22044604925E-16,-1.));
#1121 = ADVANCED_FACE('',(#1122),#1147,.F.);
#1122 = FACE_BOUND('',#1123,.F.);
#1123 = EDGE_LOOP('',(#1124,#1125,#1133,#1141));
#1124 = ORIENTED_EDGE('',*,*,#1103,.T.);
#1125 = ORIENTED_EDGE('',*,*,#1126,.T.);
#1126 = EDGE_CURVE('',#1096,#1127,#1129,.T.);
#1127 = VERTEX_POINT('',#1128);
#1128 = CARTESIAN_POINT('',(0.285,0.2,0.49));
#1129 = LINE('',#1130,#1131);
#1130 = CARTESIAN_POINT('',(1.05,0.2,0.49));
#1131 = VECTOR('',#1132,1.);
#1132 = DIRECTION('',(-1.,0.,0.));
#1133 = ORIENTED_EDGE('',*,*,#1134,.F.);
#1134 = EDGE_CURVE('',#1135,#1127,#1137,.T.);
#1135 = VERTEX_POINT('',#1136);
#1136 = CARTESIAN_POINT('',(0.285,1.088018564133E-16,0.49));
#1137 = LINE('',#1138,#1139);
#1138 = CARTESIAN_POINT('',(0.285,1.088018564133E-16,0.49));
#1139 = VECTOR('',#1140,1.);
#1140 = DIRECTION('',(-0.,1.,-2.22044604925E-16));
#1141 = ORIENTED_EDGE('',*,*,#1142,.F.);
#1142 = EDGE_CURVE('',#1104,#1135,#1143,.T.);
#1143 = LINE('',#1144,#1145);
#1144 = CARTESIAN_POINT('',(1.05,1.088018564133E-16,0.49));
#1145 = VECTOR('',#1146,1.);
#1146 = DIRECTION('',(-1.,0.,0.));
#1147 = PLANE('',#1148);
#1148 = AXIS2_PLACEMENT_3D('',#1149,#1150,#1151);
#1149 = CARTESIAN_POINT('',(1.05,1.088018564133E-16,0.49));
#1150 = DIRECTION('',(0.,2.22044604925E-16,1.));
#1151 = DIRECTION('',(-1.,-0.,0.));
#1152 = ADVANCED_FACE('',(#1153),#1180,.T.);
#1153 = FACE_BOUND('',#1154,.T.);
#1154 = EDGE_LOOP('',(#1155,#1165,#1172,#1173));
#1155 = ORIENTED_EDGE('',*,*,#1156,.T.);
#1156 = EDGE_CURVE('',#1157,#1159,#1161,.T.);
#1157 = VERTEX_POINT('',#1158);
#1158 = CARTESIAN_POINT('',(0.285,1.798561299893E-16,0.81));
#1159 = VERTEX_POINT('',#1160);
#1160 = CARTESIAN_POINT('',(0.285,0.2,0.81));
#1161 = LINE('',#1162,#1163);
#1162 = CARTESIAN_POINT('',(0.285,1.798561299893E-16,0.81));
#1163 = VECTOR('',#1164,1.);
#1164 = DIRECTION('',(-0.,1.,-2.22044604925E-16));
#1165 = ORIENTED_EDGE('',*,*,#1166,.T.);
#1166 = EDGE_CURVE('',#1159,#1127,#1167,.T.);
#1167 = CIRCLE('',#1168,0.16);
#1168 = AXIS2_PLACEMENT_3D('',#1169,#1170,#1171);
#1169 = CARTESIAN_POINT('',(0.285,0.2,0.65));
#1170 = DIRECTION('',(0.,-1.,2.22044604925E-16));
#1171 = DIRECTION('',(1.,0.,0.));
#1172 = ORIENTED_EDGE('',*,*,#1134,.F.);
#1173 = ORIENTED_EDGE('',*,*,#1174,.F.);
#1174 = EDGE_CURVE('',#1157,#1135,#1175,.T.);
#1175 = CIRCLE('',#1176,0.16);
#1176 = AXIS2_PLACEMENT_3D('',#1177,#1178,#1179);
#1177 = CARTESIAN_POINT('',(0.285,1.443289932013E-16,0.65));
#1178 = DIRECTION('',(0.,-1.,2.22044604925E-16));
#1179 = DIRECTION('',(1.,0.,0.));
#1180 = CYLINDRICAL_SURFACE('',#1181,0.16);
#1181 = AXIS2_PLACEMENT_3D('',#1182,#1183,#1184);
#1182 = CARTESIAN_POINT('',(0.285,1.443289932013E-16,0.65));
#1183 = DIRECTION('',(0.,-1.,2.22044604925E-16));
#1184 = DIRECTION('',(1.,0.,0.));
#1185 = ADVANCED_FACE('',(#1186),#1202,.F.);
#1186 = FACE_BOUND('',#1187,.F.);
#1187 = EDGE_LOOP('',(#1188,#1189,#1195,#1196));
#1188 = ORIENTED_EDGE('',*,*,#1156,.T.);
#1189 = ORIENTED_EDGE('',*,*,#1190,.T.);
#1190 = EDGE_CURVE('',#1159,#1088,#1191,.T.);
#1191 = LINE('',#1192,#1193);
#1192 = CARTESIAN_POINT('',(0.285,0.2,0.81));
#1193 = VECTOR('',#1194,1.);
#1194 = DIRECTION('',(1.,0.,0.));
#1195 = ORIENTED_EDGE('',*,*,#1085,.F.);
#1196 = ORIENTED_EDGE('',*,*,#1197,.F.);
#1197 = EDGE_CURVE('',#1157,#1086,#1198,.T.);
#1198 = LINE('',#1199,#1200);
#1199 = CARTESIAN_POINT('',(0.285,1.798561299893E-16,0.81));
#1200 = VECTOR('',#1201,1.);
#1201 = DIRECTION('',(1.,0.,0.));
#1202 = PLANE('',#1203);
#1203 = AXIS2_PLACEMENT_3D('',#1204,#1205,#1206);
#1204 = CARTESIAN_POINT('',(0.285,1.798561299893E-16,0.81));
#1205 = DIRECTION('',(0.,-2.22044604925E-16,-1.));
#1206 = DIRECTION('',(1.,0.,0.));
#1207 = ADVANCED_FACE('',(#1208),#1214,.F.);
#1208 = FACE_BOUND('',#1209,.F.);
#1209 = EDGE_LOOP('',(#1210,#1211,#1212,#1213));
#1210 = ORIENTED_EDGE('',*,*,#1111,.T.);
#1211 = ORIENTED_EDGE('',*,*,#1142,.T.);
#1212 = ORIENTED_EDGE('',*,*,#1174,.F.);
#1213 = ORIENTED_EDGE('',*,*,#1197,.T.);
#1214 = PLANE('',#1215);
#1215 = AXIS2_PLACEMENT_3D('',#1216,#1217,#1218);
#1216 = CARTESIAN_POINT('',(0.622203647779,1.443289932013E-16,0.65));
#1217 = DIRECTION('',(0.,1.,0.));
#1218 = DIRECTION('',(0.,0.,1.));
#1219 = ADVANCED_FACE('',(#1220),#1226,.T.);
#1220 = FACE_BOUND('',#1221,.T.);
#1221 = EDGE_LOOP('',(#1222,#1223,#1224,#1225));
#1222 = ORIENTED_EDGE('',*,*,#1095,.T.);
#1223 = ORIENTED_EDGE('',*,*,#1126,.T.);
#1224 = ORIENTED_EDGE('',*,*,#1166,.F.);
#1225 = ORIENTED_EDGE('',*,*,#1190,.T.);
#1226 = PLANE('',#1227);
#1227 = AXIS2_PLACEMENT_3D('',#1228,#1229,#1230);
#1228 = CARTESIAN_POINT('',(0.622203647779,0.2,0.65));
#1229 = DIRECTION('',(0.,1.,0.));
#1230 = DIRECTION('',(0.,0.,1.));
#1231 = ( GEOMETRIC_REPRESENTATION_CONTEXT(3) 
GLOBAL_UNCERTAINTY_ASSIGNED_CONTEXT((#1235)) 
GLOBAL_UNIT_ASSIGNED_CONTEXT((#1232,#1233,#1234)) REPRESENTATION_CONTEXT
('Context #1','3D Context with UNIT and UNCERTAINTY') );
#1232 = ( LENGTH_UNIT() NAMED_UNIT(*) SI_UNIT(.MILLI.,.METRE.) );
#1233 = ( NAMED_UNIT(*) PLANE_ANGLE_UNIT() SI_UNIT($,.RADIAN.) );
#1234 = ( NAMED_UNIT(*) SI_UNIT($,.STERADIAN.) SOLID_ANGLE_UNIT() );
#1235 = UNCERTAINTY_MEASURE_WITH_UNIT(LENGTH_MEASURE(1.E-07),#1232,
  'distance_accuracy_value','confusion accuracy');
#1236 = CONTEXT_DEPENDENT_SHAPE_REPRESENTATION(#1237,#1239);
#1237 = ( REPRESENTATION_RELATIONSHIP('','',#1078,#10) 
REPRESENTATION_RELATIONSHIP_WITH_TRANSFORMATION(#1238) 
SHAPE_REPRESENTATION_RELATIONSHIP() );
#1238 = ITEM_DEFINED_TRANSFORMATION('','',#11,#19);
#1239 = PRODUCT_DEFINITION_SHAPE('Placement','Placement of an item',
  #1240);
#1240 = NEXT_ASSEMBLY_USAGE_OCCURRENCE('2617','Body002_Solid1','',#5,
  #1073,$);
#1241 = PRODUCT_RELATED_PRODUCT_CATEGORY('part',$,(#1075));
#1242 = SHAPE_DEFINITION_REPRESENTATION(#1243,#1249);
#1243 = PRODUCT_DEFINITION_SHAPE('','',#1244);
#1244 = PRODUCT_DEFINITION('design','',#1245,#1248);
#1245 = PRODUCT_DEFINITION_FORMATION('','',#1246);
#1246 = PRODUCT('Array002_Solid1','Array002_Solid1','',(#1247));
#1247 = PRODUCT_CONTEXT('',#2,'mechanical');
#1248 = PRODUCT_DEFINITION_CONTEXT('part definition',#2,'design');
#1249 = ADVANCED_BREP_SHAPE_REPRESENTATION('',(#11,#1250),#1402);
#1250 = MANIFOLD_SOLID_BREP('',#1251);
#1251 = CLOSED_SHELL('',(#1252,#1292,#1323,#1356,#1378,#1390));
#1252 = ADVANCED_FACE('',(#1253),#1287,.F.);
#1253 = FACE_BOUND('',#1254,.T.);
#1254 = EDGE_LOOP('',(#1255,#1265,#1273,#1281));
#1255 = ORIENTED_EDGE('',*,*,#1256,.T.);
#1256 = EDGE_CURVE('',#1257,#1259,#1261,.T.);
#1257 = VERTEX_POINT('',#1258);
#1258 = CARTESIAN_POINT('',(-1.05,1.798561299893E-16,0.81));
#1259 = VERTEX_POINT('',#1260);
#1260 = CARTESIAN_POINT('',(-1.05,0.2,0.81));
#1261 = LINE('',#1262,#1263);
#1262 = CARTESIAN_POINT('',(-1.05,1.798561299893E-16,0.81));
#1263 = VECTOR('',#1264,1.);
#1264 = DIRECTION('',(-0.,1.,-2.22044604925E-16));
#1265 = ORIENTED_EDGE('',*,*,#1266,.T.);
#1266 = EDGE_CURVE('',#1259,#1267,#1269,.T.);
#1267 = VERTEX_POINT('',#1268);
#1268 = CARTESIAN_POINT('',(-1.05,0.2,0.49));
#1269 = LINE('',#1270,#1271);
#1270 = CARTESIAN_POINT('',(-1.05,0.2,0.81));
#1271 = VECTOR('',#1272,1.);
#1272 = DIRECTION('',(0.,-2.22044604925E-16,-1.));
#1273 = ORIENTED_EDGE('',*,*,#1274,.F.);
#1274 = EDGE_CURVE('',#1275,#1267,#1277,.T.);
#1275 = VERTEX_POINT('',#1276);
#1276 = CARTESIAN_POINT('',(-1.05,1.088018564133E-16,0.49));
#1277 = LINE('',#1278,#1279);
#1278 = CARTESIAN_POINT('',(-1.05,1.088018564133E-16,0.49));
#1279 = VECTOR('',#1280,1.);
#1280 = DIRECTION('',(-0.,1.,-2.22044604925E-16));
#1281 = ORIENTED_EDGE('',*,*,#1282,.F.);
#1282 = EDGE_CURVE('',#1257,#1275,#1283,.T.);
#1283 = LINE('',#1284,#1285);
#1284 = CARTESIAN_POINT('',(-1.05,1.798561299893E-16,0.81));
#1285 = VECTOR('',#1286,1.);
#1286 = DIRECTION('',(0.,-2.22044604925E-16,-1.));
#1287 = PLANE('',#1288);
#1288 = AXIS2_PLACEMENT_3D('',#1289,#1290,#1291);
#1289 = CARTESIAN_POINT('',(-1.05,1.798561299893E-16,0.81));
#1290 = DIRECTION('',(1.,-0.,0.));
#1291 = DIRECTION('',(0.,2.22044604925E-16,1.));
#1292 = ADVANCED_FACE('',(#1293),#1318,.F.);
#1293 = FACE_BOUND('',#1294,.T.);
#1294 = EDGE_LOOP('',(#1295,#1296,#1304,#1312));
#1295 = ORIENTED_EDGE('',*,*,#1274,.T.);
#1296 = ORIENTED_EDGE('',*,*,#1297,.T.);
#1297 = EDGE_CURVE('',#1267,#1298,#1300,.T.);
#1298 = VERTEX_POINT('',#1299);
#1299 = CARTESIAN_POINT('',(-0.285,0.2,0.49));
#1300 = LINE('',#1301,#1302);
#1301 = CARTESIAN_POINT('',(-1.05,0.2,0.49));
#1302 = VECTOR('',#1303,1.);
#1303 = DIRECTION('',(1.,0.,0.));
#1304 = ORIENTED_EDGE('',*,*,#1305,.F.);
#1305 = EDGE_CURVE('',#1306,#1298,#1308,.T.);
#1306 = VERTEX_POINT('',#1307);
#1307 = CARTESIAN_POINT('',(-0.285,1.088018564133E-16,0.49));
#1308 = LINE('',#1309,#1310);
#1309 = CARTESIAN_POINT('',(-0.285,1.088018564133E-16,0.49));
#1310 = VECTOR('',#1311,1.);
#1311 = DIRECTION('',(-0.,1.,-2.22044604925E-16));
#1312 = ORIENTED_EDGE('',*,*,#1313,.F.);
#1313 = EDGE_CURVE('',#1275,#1306,#1314,.T.);
#1314 = LINE('',#1315,#1316);
#1315 = CARTESIAN_POINT('',(-1.05,1.088018564133E-16,0.49));
#1316 = VECTOR('',#1317,1.);
#1317 = DIRECTION('',(1.,0.,0.));
#1318 = PLANE('',#1319);
#1319 = AXIS2_PLACEMENT_3D('',#1320,#1321,#1322);
#1320 = CARTESIAN_POINT('',(-1.05,1.088018564133E-16,0.49));
#1321 = DIRECTION('',(-0.,2.22044604925E-16,1.));
#1322 = DIRECTION('',(-1.,0.,-0.));
#1323 = ADVANCED_FACE('',(#1324),#1351,.T.);
#1324 = FACE_BOUND('',#1325,.F.);
#1325 = EDGE_LOOP('',(#1326,#1336,#1343,#1344));
#1326 = ORIENTED_EDGE('',*,*,#1327,.T.);
#1327 = EDGE_CURVE('',#1328,#1330,#1332,.T.);
#1328 = VERTEX_POINT('',#1329);
#1329 = CARTESIAN_POINT('',(-0.285,1.798561299893E-16,0.81));
#1330 = VERTEX_POINT('',#1331);
#1331 = CARTESIAN_POINT('',(-0.285,0.2,0.81));
#1332 = LINE('',#1333,#1334);
#1333 = CARTESIAN_POINT('',(-0.285,1.798561299893E-16,0.81));
#1334 = VECTOR('',#1335,1.);
#1335 = DIRECTION('',(-0.,1.,-2.22044604925E-16));
#1336 = ORIENTED_EDGE('',*,*,#1337,.T.);
#1337 = EDGE_CURVE('',#1330,#1298,#1338,.T.);
#1338 = CIRCLE('',#1339,0.16);
#1339 = AXIS2_PLACEMENT_3D('',#1340,#1341,#1342);
#1340 = CARTESIAN_POINT('',(-0.285,0.2,0.65));
#1341 = DIRECTION('',(-0.,1.,-2.22044604925E-16));
#1342 = DIRECTION('',(-1.,-0.,0.));
#1343 = ORIENTED_EDGE('',*,*,#1305,.F.);
#1344 = ORIENTED_EDGE('',*,*,#1345,.F.);
#1345 = EDGE_CURVE('',#1328,#1306,#1346,.T.);
#1346 = CIRCLE('',#1347,0.16);
#1347 = AXIS2_PLACEMENT_3D('',#1348,#1349,#1350);
#1348 = CARTESIAN_POINT('',(-0.285,1.443289932013E-16,0.65));
#1349 = DIRECTION('',(-0.,1.,-2.22044604925E-16));
#1350 = DIRECTION('',(-1.,-0.,0.));
#1351 = CYLINDRICAL_SURFACE('',#1352,0.16);
#1352 = AXIS2_PLACEMENT_3D('',#1353,#1354,#1355);
#1353 = CARTESIAN_POINT('',(-0.285,1.443289932013E-16,0.65));
#1354 = DIRECTION('',(-0.,-1.,2.22044604925E-16));
#1355 = DIRECTION('',(-1.,-0.,-0.));
#1356 = ADVANCED_FACE('',(#1357),#1373,.F.);
#1357 = FACE_BOUND('',#1358,.T.);
#1358 = EDGE_LOOP('',(#1359,#1360,#1366,#1367));
#1359 = ORIENTED_EDGE('',*,*,#1327,.T.);
#1360 = ORIENTED_EDGE('',*,*,#1361,.T.);
#1361 = EDGE_CURVE('',#1330,#1259,#1362,.T.);
#1362 = LINE('',#1363,#1364);
#1363 = CARTESIAN_POINT('',(-0.285,0.2,0.81));
#1364 = VECTOR('',#1365,1.);
#1365 = DIRECTION('',(-1.,-0.,0.));
#1366 = ORIENTED_EDGE('',*,*,#1256,.F.);
#1367 = ORIENTED_EDGE('',*,*,#1368,.F.);
#1368 = EDGE_CURVE('',#1328,#1257,#1369,.T.);
#1369 = LINE('',#1370,#1371);
#1370 = CARTESIAN_POINT('',(-0.285,1.798561299893E-16,0.81));
#1371 = VECTOR('',#1372,1.);
#1372 = DIRECTION('',(-1.,-0.,0.));
#1373 = PLANE('',#1374);
#1374 = AXIS2_PLACEMENT_3D('',#1375,#1376,#1377);
#1375 = CARTESIAN_POINT('',(-0.285,1.798561299893E-16,0.81));
#1376 = DIRECTION('',(-0.,-2.22044604925E-16,-1.));
#1377 = DIRECTION('',(1.,0.,0.));
#1378 = ADVANCED_FACE('',(#1379),#1385,.F.);
#1379 = FACE_BOUND('',#1380,.T.);
#1380 = EDGE_LOOP('',(#1381,#1382,#1383,#1384));
#1381 = ORIENTED_EDGE('',*,*,#1282,.T.);
#1382 = ORIENTED_EDGE('',*,*,#1313,.T.);
#1383 = ORIENTED_EDGE('',*,*,#1345,.F.);
#1384 = ORIENTED_EDGE('',*,*,#1368,.T.);
#1385 = PLANE('',#1386);
#1386 = AXIS2_PLACEMENT_3D('',#1387,#1388,#1389);
#1387 = CARTESIAN_POINT('',(-0.622203647779,1.443289932013E-16,0.65));
#1388 = DIRECTION('',(0.,1.,0.));
#1389 = DIRECTION('',(0.,0.,-1.));
#1390 = ADVANCED_FACE('',(#1391),#1397,.T.);
#1391 = FACE_BOUND('',#1392,.F.);
#1392 = EDGE_LOOP('',(#1393,#1394,#1395,#1396));
#1393 = ORIENTED_EDGE('',*,*,#1266,.T.);
#1394 = ORIENTED_EDGE('',*,*,#1297,.T.);
#1395 = ORIENTED_EDGE('',*,*,#1337,.F.);
#1396 = ORIENTED_EDGE('',*,*,#1361,.T.);
#1397 = PLANE('',#1398);
#1398 = AXIS2_PLACEMENT_3D('',#1399,#1400,#1401);
#1399 = CARTESIAN_POINT('',(-0.622203647779,0.2,0.65));
#1400 = DIRECTION('',(0.,1.,0.));
#1401 = DIRECTION('',(0.,0.,-1.));
#1402 = ( GEOMETRIC_REPRESENTATION_CONTEXT(3) 
GLOBAL_UNCERTAINTY_ASSIGNED_CONTEXT((#1406)) 
GLOBAL_UNIT_ASSIGNED_CONTEXT((#1403,#1404,#1405)) REPRESENTATION_CONTEXT
('Context #1','3D Context with UNIT and UNCERTAINTY') );
#1403 = ( LENGTH_UNIT() NAMED_UNIT(*) SI_UNIT(.MILLI.,.METRE.) );
#1404 = ( NAMED_UNIT(*) PLANE_ANGLE_UNIT() SI_UNIT($,.RADIAN.) );
#1405 = ( NAMED_UNIT(*) SI_UNIT($,.STERADIAN.) SOLID_ANGLE_UNIT() );
#1406 = UNCERTAINTY_MEASURE_WITH_UNIT(LENGTH_MEASURE(1.E-07),#1403,
  'distance_accuracy_value','confusion accuracy');
#1407 = CONTEXT_DEPENDENT_SHAPE_REPRESENTATION(#1408,#1410);
#1408 = ( REPRESENTATION_RELATIONSHIP('','',#1249,#10) 
REPRESENTATION_RELATIONSHIP_WITH_TRANSFORMATION(#1409) 
SHAPE_REPRESENTATION_RELATIONSHIP() );
#1409 = ITEM_DEFINED_TRANSFORMATION('','',#11,#23);
#1410 = PRODUCT_DEFINITION_SHAPE('Placement','Placement of an item',
  #1411);
#1411 = NEXT_ASSEMBLY_USAGE_OCCURRENCE('2618','Array002_Solid1','',#5,
  #1244,$);
#1412 = PRODUCT_RELATED_PRODUCT_CATEGORY('part',$,(#1246));
#1413 = CONTEXT_DEPENDENT_SHAPE_REPRESENTATION(#1414,#1416);
#1414 = ( REPRESENTATION_RELATIONSHIP('','',#1249,#10) 
REPRESENTATION_RELATIONSHIP_WITH_TRANSFORMATION(#1415) 
SHAPE_REPRESENTATION_RELATIONSHIP() );
#1415 = ITEM_DEFINED_TRANSFORMATION('','',#11,#27);
#1416 = PRODUCT_DEFINITION_SHAPE('Placement','Placement of an item',
  #1417);
#1417 = NEXT_ASSEMBLY_USAGE_OCCURRENCE('2619','Array002_Solid2','',#5,
  #1244,$);
#1418 = CONTEXT_DEPENDENT_SHAPE_REPRESENTATION(#1419,#1421);
#1419 = ( REPRESENTATION_RELATIONSHIP('','',#1249,#10) 
REPRESENTATION_RELATIONSHIP_WITH_TRANSFORMATION(#1420) 
SHAPE_REPRESENTATION_RELATIONSHIP() );
#1420 = ITEM_DEFINED_TRANSFORMATION('','',#11,#31);
#1421 = PRODUCT_DEFINITION_SHAPE('Placement','Placement of an item',
  #1422);
#1422 = NEXT_ASSEMBLY_USAGE_OCCURRENCE('2620','Array002_Solid3','',#5,
  #1244,$);
#1423 = SHAPE_DEFINITION_REPRESENTATION(#1424,#1430);
#1424 = PRODUCT_DEFINITION_SHAPE('','',#1425);
#1425 = PRODUCT_DEFINITION('design','',#1426,#1429);
#1426 = PRODUCT_DEFINITION_FORMATION('','',#1427);
#1427 = PRODUCT('Array003_Solid2','Array003_Solid2','',(#1428));
#1428 = PRODUCT_CONTEXT('',#2,'mechanical');
#1429 = PRODUCT_DEFINITION_CONTEXT('part definition',#2,'design');
#1430 = ADVANCED_BREP_SHAPE_REPRESENTATION('',(#11,#1431),#1583);
#1431 = MANIFOLD_SOLID_BREP('',#1432);
#1432 = CLOSED_SHELL('',(#1433,#1473,#1504,#1537,#1559,#1571));
#1433 = ADVANCED_FACE('',(#1434),#1468,.F.);
#1434 = FACE_BOUND('',#1435,.F.);
#1435 = EDGE_LOOP('',(#1436,#1446,#1454,#1462));
#1436 = ORIENTED_EDGE('',*,*,#1437,.T.);
#1437 = EDGE_CURVE('',#1438,#1440,#1442,.T.);
#1438 = VERTEX_POINT('',#1439);
#1439 = CARTESIAN_POINT('',(1.05,1.798561299893E-16,0.81));
#1440 = VERTEX_POINT('',#1441);
#1441 = CARTESIAN_POINT('',(1.05,0.2,0.81));
#1442 = LINE('',#1443,#1444);
#1443 = CARTESIAN_POINT('',(1.05,1.798561299893E-16,0.81));
#1444 = VECTOR('',#1445,1.);
#1445 = DIRECTION('',(-0.,1.,-2.22044604925E-16));
#1446 = ORIENTED_EDGE('',*,*,#1447,.T.);
#1447 = EDGE_CURVE('',#1440,#1448,#1450,.T.);
#1448 = VERTEX_POINT('',#1449);
#1449 = CARTESIAN_POINT('',(1.05,0.2,0.49));
#1450 = LINE('',#1451,#1452);
#1451 = CARTESIAN_POINT('',(1.05,0.2,0.81));
#1452 = VECTOR('',#1453,1.);
#1453 = DIRECTION('',(0.,-2.22044604925E-16,-1.));
#1454 = ORIENTED_EDGE('',*,*,#1455,.F.);
#1455 = EDGE_CURVE('',#1456,#1448,#1458,.T.);
#1456 = VERTEX_POINT('',#1457);
#1457 = CARTESIAN_POINT('',(1.05,1.088018564133E-16,0.49));
#1458 = LINE('',#1459,#1460);
#1459 = CARTESIAN_POINT('',(1.05,1.088018564133E-16,0.49));
#1460 = VECTOR('',#1461,1.);
#1461 = DIRECTION('',(-0.,1.,-2.22044604925E-16));
#1462 = ORIENTED_EDGE('',*,*,#1463,.F.);
#1463 = EDGE_CURVE('',#1438,#1456,#1464,.T.);
#1464 = LINE('',#1465,#1466);
#1465 = CARTESIAN_POINT('',(1.05,1.798561299893E-16,0.81));
#1466 = VECTOR('',#1467,1.);
#1467 = DIRECTION('',(0.,-2.22044604925E-16,-1.));
#1468 = PLANE('',#1469);
#1469 = AXIS2_PLACEMENT_3D('',#1470,#1471,#1472);
#1470 = CARTESIAN_POINT('',(1.05,1.798561299893E-16,0.81));
#1471 = DIRECTION('',(-1.,-0.,0.));
#1472 = DIRECTION('',(0.,-2.22044604925E-16,-1.));
#1473 = ADVANCED_FACE('',(#1474),#1499,.F.);
#1474 = FACE_BOUND('',#1475,.F.);
#1475 = EDGE_LOOP('',(#1476,#1477,#1485,#1493));
#1476 = ORIENTED_EDGE('',*,*,#1455,.T.);
#1477 = ORIENTED_EDGE('',*,*,#1478,.T.);
#1478 = EDGE_CURVE('',#1448,#1479,#1481,.T.);
#1479 = VERTEX_POINT('',#1480);
#1480 = CARTESIAN_POINT('',(0.285,0.2,0.49));
#1481 = LINE('',#1482,#1483);
#1482 = CARTESIAN_POINT('',(1.05,0.2,0.49));
#1483 = VECTOR('',#1484,1.);
#1484 = DIRECTION('',(-1.,0.,0.));
#1485 = ORIENTED_EDGE('',*,*,#1486,.F.);
#1486 = EDGE_CURVE('',#1487,#1479,#1489,.T.);
#1487 = VERTEX_POINT('',#1488);
#1488 = CARTESIAN_POINT('',(0.285,1.088018564133E-16,0.49));
#1489 = LINE('',#1490,#1491);
#1490 = CARTESIAN_POINT('',(0.285,1.088018564133E-16,0.49));
#1491 = VECTOR('',#1492,1.);
#1492 = DIRECTION('',(-0.,1.,-2.22044604925E-16));
#1493 = ORIENTED_EDGE('',*,*,#1494,.F.);
#1494 = EDGE_CURVE('',#1456,#1487,#1495,.T.);
#1495 = LINE('',#1496,#1497);
#1496 = CARTESIAN_POINT('',(1.05,1.088018564133E-16,0.49));
#1497 = VECTOR('',#1498,1.);
#1498 = DIRECTION('',(-1.,0.,0.));
#1499 = PLANE('',#1500);
#1500 = AXIS2_PLACEMENT_3D('',#1501,#1502,#1503);
#1501 = CARTESIAN_POINT('',(1.05,1.088018564133E-16,0.49));
#1502 = DIRECTION('',(0.,2.22044604925E-16,1.));
#1503 = DIRECTION('',(-1.,-0.,0.));
#1504 = ADVANCED_FACE('',(#1505),#1532,.T.);
#1505 = FACE_BOUND('',#1506,.T.);
#1506 = EDGE_LOOP('',(#1507,#1517,#1524,#1525));
#1507 = ORIENTED_EDGE('',*,*,#1508,.T.);
#1508 = EDGE_CURVE('',#1509,#1511,#1513,.T.);
#1509 = VERTEX_POINT('',#1510);
#1510 = CARTESIAN_POINT('',(0.285,1.798561299893E-16,0.81));
#1511 = VERTEX_POINT('',#1512);
#1512 = CARTESIAN_POINT('',(0.285,0.2,0.81));
#1513 = LINE('',#1514,#1515);
#1514 = CARTESIAN_POINT('',(0.285,1.798561299893E-16,0.81));
#1515 = VECTOR('',#1516,1.);
#1516 = DIRECTION('',(-0.,1.,-2.22044604925E-16));
#1517 = ORIENTED_EDGE('',*,*,#1518,.T.);
#1518 = EDGE_CURVE('',#1511,#1479,#1519,.T.);
#1519 = CIRCLE('',#1520,0.16);
#1520 = AXIS2_PLACEMENT_3D('',#1521,#1522,#1523);
#1521 = CARTESIAN_POINT('',(0.285,0.2,0.65));
#1522 = DIRECTION('',(0.,-1.,2.22044604925E-16));
#1523 = DIRECTION('',(1.,0.,0.));
#1524 = ORIENTED_EDGE('',*,*,#1486,.F.);
#1525 = ORIENTED_EDGE('',*,*,#1526,.F.);
#1526 = EDGE_CURVE('',#1509,#1487,#1527,.T.);
#1527 = CIRCLE('',#1528,0.16);
#1528 = AXIS2_PLACEMENT_3D('',#1529,#1530,#1531);
#1529 = CARTESIAN_POINT('',(0.285,1.443289932013E-16,0.65));
#1530 = DIRECTION('',(0.,-1.,2.22044604925E-16));
#1531 = DIRECTION('',(1.,0.,0.));
#1532 = CYLINDRICAL_SURFACE('',#1533,0.16);
#1533 = AXIS2_PLACEMENT_3D('',#1534,#1535,#1536);
#1534 = CARTESIAN_POINT('',(0.285,1.443289932013E-16,0.65));
#1535 = DIRECTION('',(0.,-1.,2.22044604925E-16));
#1536 = DIRECTION('',(1.,0.,0.));
#1537 = ADVANCED_FACE('',(#1538),#1554,.F.);
#1538 = FACE_BOUND('',#1539,.F.);
#1539 = EDGE_LOOP('',(#1540,#1541,#1547,#1548));
#1540 = ORIENTED_EDGE('',*,*,#1508,.T.);
#1541 = ORIENTED_EDGE('',*,*,#1542,.T.);
#1542 = EDGE_CURVE('',#1511,#1440,#1543,.T.);
#1543 = LINE('',#1544,#1545);
#1544 = CARTESIAN_POINT('',(0.285,0.2,0.81));
#1545 = VECTOR('',#1546,1.);
#1546 = DIRECTION('',(1.,0.,0.));
#1547 = ORIENTED_EDGE('',*,*,#1437,.F.);
#1548 = ORIENTED_EDGE('',*,*,#1549,.F.);
#1549 = EDGE_CURVE('',#1509,#1438,#1550,.T.);
#1550 = LINE('',#1551,#1552);
#1551 = CARTESIAN_POINT('',(0.285,1.798561299893E-16,0.81));
#1552 = VECTOR('',#1553,1.);
#1553 = DIRECTION('',(1.,0.,0.));
#1554 = PLANE('',#1555);
#1555 = AXIS2_PLACEMENT_3D('',#1556,#1557,#1558);
#1556 = CARTESIAN_POINT('',(0.285,1.798561299893E-16,0.81));
#1557 = DIRECTION('',(0.,-2.22044604925E-16,-1.));
#1558 = DIRECTION('',(1.,0.,0.));
#1559 = ADVANCED_FACE('',(#1560),#1566,.F.);
#1560 = FACE_BOUND('',#1561,.F.);
#1561 = EDGE_LOOP('',(#1562,#1563,#1564,#1565));
#1562 = ORIENTED_EDGE('',*,*,#1463,.T.);
#1563 = ORIENTED_EDGE('',*,*,#1494,.T.);
#1564 = ORIENTED_EDGE('',*,*,#1526,.F.);
#1565 = ORIENTED_EDGE('',*,*,#1549,.T.);
#1566 = PLANE('',#1567);
#1567 = AXIS2_PLACEMENT_3D('',#1568,#1569,#1570);
#1568 = CARTESIAN_POINT('',(0.622203647779,1.443289932013E-16,0.65));
#1569 = DIRECTION('',(0.,1.,0.));
#1570 = DIRECTION('',(0.,0.,1.));
#1571 = ADVANCED_FACE('',(#1572),#1578,.T.);
#1572 = FACE_BOUND('',#1573,.T.);
#1573 = EDGE_LOOP('',(#1574,#1575,#1576,#1577));
#1574 = ORIENTED_EDGE('',*,*,#1447,.T.);
#1575 = ORIENTED_EDGE('',*,*,#1478,.T.);
#1576 = ORIENTED_EDGE('',*,*,#1518,.F.);
#1577 = ORIENTED_EDGE('',*,*,#1542,.T.);
#1578 = PLANE('',#1579);
#1579 = AXIS2_PLACEMENT_3D('',#1580,#1581,#1582);
#1580 = CARTESIAN_POINT('',(0.622203647779,0.2,0.65));
#1581 = DIRECTION('',(0.,1.,0.));
#1582 = DIRECTION('',(0.,0.,1.));
#1583 = ( GEOMETRIC_REPRESENTATION_CONTEXT(3) 
GLOBAL_UNCERTAINTY_ASSIGNED_CONTEXT((#1587)) 
GLOBAL_UNIT_ASSIGNED_CONTEXT((#1584,#1585,#1586)) REPRESENTATION_CONTEXT
('Context #1','3D Context with UNIT and UNCERTAINTY') );
#1584 = ( LENGTH_UNIT() NAMED_UNIT(*) SI_UNIT(.MILLI.,.METRE.) );
#1585 = ( NAMED_UNIT(*) PLANE_ANGLE_UNIT() SI_UNIT($,.RADIAN.) );
#1586 = ( NAMED_UNIT(*) SI_UNIT($,.STERADIAN.) SOLID_ANGLE_UNIT() );
#1587 = UNCERTAINTY_MEASURE_WITH_UNIT(LENGTH_MEASURE(1.E-07),#1584,
  'distance_accuracy_value','confusion accuracy');
#1588 = CONTEXT_DEPENDENT_SHAPE_REPRESENTATION(#1589,#1591);
#1589 = ( REPRESENTATION_RELATIONSHIP('','',#1430,#10) 
REPRESENTATION_RELATIONSHIP_WITH_TRANSFORMATION(#1590) 
SHAPE_REPRESENTATION_RELATIONSHIP() );
#1590 = ITEM_DEFINED_TRANSFORMATION('','',#11,#35);
#1591 = PRODUCT_DEFINITION_SHAPE('Placement','Placement of an item',
  #1592);
#1592 = NEXT_ASSEMBLY_USAGE_OCCURRENCE('2621','Array003_Solid2','',#5,
  #1425,$);
#1593 = PRODUCT_RELATED_PRODUCT_CATEGORY('part',$,(#1427));
#1594 = CONTEXT_DEPENDENT_SHAPE_REPRESENTATION(#1595,#1597);
#1595 = ( REPRESENTATION_RELATIONSHIP('','',#1430,#10) 
REPRESENTATION_RELATIONSHIP_WITH_TRANSFORMATION(#1596) 
SHAPE_REPRESENTATION_RELATIONSHIP() );
#1596 = ITEM_DEFINED_TRANSFORMATION('','',#11,#39);
#1597 = PRODUCT_DEFINITION_SHAPE('Placement','Placement of an item',
  #1598);
#1598 = NEXT_ASSEMBLY_USAGE_OCCURRENCE('2622','Array003_Solid3','',#5,
  #1425,$);
#1599 = SHAPE_DEFINITION_REPRESENTATION(#1600,#1606);
#1600 = PRODUCT_DEFINITION_SHAPE('','',#1601);
#1601 = PRODUCT_DEFINITION('design','',#1602,#1605);
#1602 = PRODUCT_DEFINITION_FORMATION('','',#1603);
#1603 = PRODUCT('Body004_Solid1','Body004_Solid1','',(#1604));
#1604 = PRODUCT_CONTEXT('',#2,'mechanical');
#1605 = PRODUCT_DEFINITION_CONTEXT('part definition',#2,'design');
#1606 = ADVANCED_BREP_SHAPE_REPRESENTATION('',(#11,#1607),#1660);
#1607 = MANIFOLD_SOLID_BREP('',#1608);
#1608 = CLOSED_SHELL('',(#1609,#1642,#1651));
#1609 = ADVANCED_FACE('',(#1610),#1637,.T.);
#1610 = FACE_BOUND('',#1611,.F.);
#1611 = EDGE_LOOP('',(#1612,#1622,#1629,#1630));
#1612 = ORIENTED_EDGE('',*,*,#1613,.T.);
#1613 = EDGE_CURVE('',#1614,#1616,#1618,.T.);
#1614 = VERTEX_POINT('',#1615);
#1615 = CARTESIAN_POINT('',(-0.8883,0.746,-0.7833));
#1616 = VERTEX_POINT('',#1617);
#1617 = CARTESIAN_POINT('',(-0.8883,1.,-0.7833));
#1618 = LINE('',#1619,#1620);
#1619 = CARTESIAN_POINT('',(-0.8883,0.746,-0.7833));
#1620 = VECTOR('',#1621,1.);
#1621 = DIRECTION('',(0.,1.,-2.22044604925E-16));
#1622 = ORIENTED_EDGE('',*,*,#1623,.T.);
#1623 = EDGE_CURVE('',#1616,#1616,#1624,.T.);
#1624 = CIRCLE('',#1625,0.105);
#1625 = AXIS2_PLACEMENT_3D('',#1626,#1627,#1628);
#1626 = CARTESIAN_POINT('',(-0.7833,1.,-0.7833));
#1627 = DIRECTION('',(0.,1.,-2.22044604925E-16));
#1628 = DIRECTION('',(-1.,0.,0.));
#1629 = ORIENTED_EDGE('',*,*,#1613,.F.);
#1630 = ORIENTED_EDGE('',*,*,#1631,.F.);
#1631 = EDGE_CURVE('',#1614,#1614,#1632,.T.);
#1632 = CIRCLE('',#1633,0.105);
#1633 = AXIS2_PLACEMENT_3D('',#1634,#1635,#1636);
#1634 = CARTESIAN_POINT('',(-0.7833,0.746,-0.7833));
#1635 = DIRECTION('',(0.,1.,-2.22044604925E-16));
#1636 = DIRECTION('',(-1.,0.,0.));
#1637 = CYLINDRICAL_SURFACE('',#1638,0.105);
#1638 = AXIS2_PLACEMENT_3D('',#1639,#1640,#1641);
#1639 = CARTESIAN_POINT('',(-0.7833,0.746,-0.7833));
#1640 = DIRECTION('',(0.,-1.,2.22044604925E-16));
#1641 = DIRECTION('',(-1.,0.,0.));
#1642 = ADVANCED_FACE('',(#1643),#1646,.F.);
#1643 = FACE_BOUND('',#1644,.F.);
#1644 = EDGE_LOOP('',(#1645));
#1645 = ORIENTED_EDGE('',*,*,#1631,.T.);
#1646 = PLANE('',#1647);
#1647 = AXIS2_PLACEMENT_3D('',#1648,#1649,#1650);
#1648 = CARTESIAN_POINT('',(-0.7833,0.746,-0.7833));
#1649 = DIRECTION('',(-3.524517538493E-16,1.,-6.104643448837E-16));
#1650 = DIRECTION('',(0.,6.104643448837E-16,1.));
#1651 = ADVANCED_FACE('',(#1652),#1655,.T.);
#1652 = FACE_BOUND('',#1653,.T.);
#1653 = EDGE_LOOP('',(#1654));
#1654 = ORIENTED_EDGE('',*,*,#1623,.T.);
#1655 = PLANE('',#1656);
#1656 = AXIS2_PLACEMENT_3D('',#1657,#1658,#1659);
#1657 = CARTESIAN_POINT('',(-0.7833,1.,-0.7833));
#1658 = DIRECTION('',(-3.524517538493E-16,1.,-6.104643448837E-16));
#1659 = DIRECTION('',(0.,6.104643448837E-16,1.));
#1660 = ( GEOMETRIC_REPRESENTATION_CONTEXT(3) 
GLOBAL_UNCERTAINTY_ASSIGNED_CONTEXT((#1664)) 
GLOBAL_UNIT_ASSIGNED_CONTEXT((#1661,#1662,#1663)) REPRESENTATION_CONTEXT
('Context #1','3D Context with UNIT and UNCERTAINTY') );
#1661 = ( LENGTH_UNIT() NAMED_UNIT(*) SI_UNIT(.MILLI.,.METRE.) );
#1662 = ( NAMED_UNIT(*) PLANE_ANGLE_UNIT() SI_UNIT($,.RADIAN.) );
#1663 = ( NAMED_UNIT(*) SI_UNIT($,.STERADIAN.) SOLID_ANGLE_UNIT() );
#1664 = UNCERTAINTY_MEASURE_WITH_UNIT(LENGTH_MEASURE(1.E-07),#1661,
  'distance_accuracy_value','confusion accuracy');
#1665 = CONTEXT_DEPENDENT_SHAPE_REPRESENTATION(#1666,#1668);
#1666 = ( REPRESENTATION_RELATIONSHIP('','',#1606,#10) 
REPRESENTATION_RELATIONSHIP_WITH_TRANSFORMATION(#1667) 
SHAPE_REPRESENTATION_RELATIONSHIP() );
#1667 = ITEM_DEFINED_TRANSFORMATION('','',#11,#43);
#1668 = PRODUCT_DEFINITION_SHAPE('Placement','Placement of an item',
  #1669);
#1669 = NEXT_ASSEMBLY_USAGE_OCCURRENCE('2623','Body004_Solid1','',#5,
  #1601,$);
#1670 = PRODUCT_RELATED_PRODUCT_CATEGORY('part',$,(#1603));
#1671 = SHAPE_DEFINITION_REPRESENTATION(#1416,#1672);
#1672 = SHAPE_REPRESENTATION('',(#27),#1402);
#1673 = SHAPE_DEFINITION_REPRESENTATION(#1421,#1674);
#1674 = SHAPE_REPRESENTATION('',(#31),#1402);
#1675 = SHAPE_DEFINITION_REPRESENTATION(#1597,#1676);
#1676 = SHAPE_REPRESENTATION('',(#39),#1583);
#1677 = SHAPE_DEFINITION_REPRESENTATION(#1416,#1678);
#1678 = SHAPE_REPRESENTATION('',(#27),#1402);
#1679 = SHAPE_DEFINITION_REPRESENTATION(#1421,#1680);
#1680 = SHAPE_REPRESENTATION('',(#31),#1402);
#1681 = SHAPE_DEFINITION_REPRESENTATION(#1597,#1682);
#1682 = SHAPE_REPRESENTATION('',(#39),#1583);
#1683 = MECHANICAL_DESIGN_GEOMETRIC_PRESENTATION_REPRESENTATION('',(
    #1684,#1695,#1704,#1713,#1724),#1402);
#1684 = STYLED_ITEM('color',(#1685),#1250);
#1685 = PRESENTATION_STYLE_ASSIGNMENT((#1686,#1692));
#1686 = SURFACE_STYLE_USAGE(.BOTH.,#1687);
#1687 = SURFACE_SIDE_STYLE('',(#1688));
#1688 = SURFACE_STYLE_FILL_AREA(#1689);
#1689 = FILL_AREA_STYLE('',(#1690));
#1690 = FILL_AREA_STYLE_COLOUR('',#1691);
#1691 = COLOUR_RGB('',0.796078452645,0.823529417451,0.937254901616);
#1692 = CURVE_STYLE('',#1693,POSITIVE_LENGTH_MEASURE(0.1),#1694);
#1693 = DRAUGHTING_PRE_DEFINED_CURVE_FONT('continuous');
#1694 = COLOUR_RGB('',9.803921802644E-02,9.803921802644E-02,
  9.803921802644E-02);
#1695 = OVER_RIDING_STYLED_ITEM('overriding color',(#1696),#1250,#1684);
#1696 = PRESENTATION_STYLE_BY_CONTEXT((#1697,#1702),#1672);
#1697 = SURFACE_STYLE_USAGE(.BOTH.,#1698);
#1698 = SURFACE_SIDE_STYLE('',(#1699));
#1699 = SURFACE_STYLE_FILL_AREA(#1700);
#1700 = FILL_AREA_STYLE('',(#1701));
#1701 = FILL_AREA_STYLE_COLOUR('',#1691);
#1702 = CURVE_STYLE('',#1703,POSITIVE_LENGTH_MEASURE(0.1),#1694);
#1703 = DRAUGHTING_PRE_DEFINED_CURVE_FONT('continuous');
#1704 = OVER_RIDING_STYLED_ITEM('overriding color',(#1705),#1250,#1684);
#1705 = PRESENTATION_STYLE_BY_CONTEXT((#1706,#1711),#1674);
#1706 = SURFACE_STYLE_USAGE(.BOTH.,#1707);
#1707 = SURFACE_SIDE_STYLE('',(#1708));
#1708 = SURFACE_STYLE_FILL_AREA(#1709);
#1709 = FILL_AREA_STYLE('',(#1710));
#1710 = FILL_AREA_STYLE_COLOUR('',#1691);
#1711 = CURVE_STYLE('',#1712,POSITIVE_LENGTH_MEASURE(0.1),#1694);
#1712 = DRAUGHTING_PRE_DEFINED_CURVE_FONT('continuous');
#1713 = OVER_RIDING_STYLED_ITEM('overriding color',(#1714),#1250,#1684);
#1714 = PRESENTATION_STYLE_BY_CONTEXT((#1715,#1721),#1678);
#1715 = SURFACE_STYLE_USAGE(.BOTH.,#1716);
#1716 = SURFACE_SIDE_STYLE('',(#1717));
#1717 = SURFACE_STYLE_FILL_AREA(#1718);
#1718 = FILL_AREA_STYLE('',(#1719));
#1719 = FILL_AREA_STYLE_COLOUR('',#1720);
#1720 = COLOUR_RGB('',0.796078452645,0.823529417451,0.937254901616);
#1721 = CURVE_STYLE('',#1722,POSITIVE_LENGTH_MEASURE(0.1),#1723);
#1722 = DRAUGHTING_PRE_DEFINED_CURVE_FONT('continuous');
#1723 = COLOUR_RGB('',9.803921802644E-02,9.803921802644E-02,
  9.803921802644E-02);
#1724 = OVER_RIDING_STYLED_ITEM('overriding color',(#1725),#1250,#1684);
#1725 = PRESENTATION_STYLE_BY_CONTEXT((#1726,#1731),#1680);
#1726 = SURFACE_STYLE_USAGE(.BOTH.,#1727);
#1727 = SURFACE_SIDE_STYLE('',(#1728));
#1728 = SURFACE_STYLE_FILL_AREA(#1729);
#1729 = FILL_AREA_STYLE('',(#1730));
#1730 = FILL_AREA_STYLE_COLOUR('',#1720);
#1731 = CURVE_STYLE('',#1732,POSITIVE_LENGTH_MEASURE(0.1),#1723);
#1732 = DRAUGHTING_PRE_DEFINED_CURVE_FONT('continuous');
#1733 = MECHANICAL_DESIGN_GEOMETRIC_PRESENTATION_REPRESENTATION('',(
    #1734),#1060);
#1734 = STYLED_ITEM('color',(#1735),#61);
#1735 = PRESENTATION_STYLE_ASSIGNMENT((#1736,#1742));
#1736 = SURFACE_STYLE_USAGE(.BOTH.,#1737);
#1737 = SURFACE_SIDE_STYLE('',(#1738));
#1738 = SURFACE_STYLE_FILL_AREA(#1739);
#1739 = FILL_AREA_STYLE('',(#1740));
#1740 = FILL_AREA_STYLE_COLOUR('',#1741);
#1741 = COLOUR_RGB('',0.250980406631,0.250980406631,0.250980406631);
#1742 = CURVE_STYLE('',#1743,POSITIVE_LENGTH_MEASURE(0.1),#1694);
#1743 = DRAUGHTING_PRE_DEFINED_CURVE_FONT('continuous');
#1744 = MECHANICAL_DESIGN_GEOMETRIC_PRESENTATION_REPRESENTATION('',(
    #1745),#1231);
#1745 = STYLED_ITEM('color',(#1746),#1079);
#1746 = PRESENTATION_STYLE_ASSIGNMENT((#1747,#1752));
#1747 = SURFACE_STYLE_USAGE(.BOTH.,#1748);
#1748 = SURFACE_SIDE_STYLE('',(#1749));
#1749 = SURFACE_STYLE_FILL_AREA(#1750);
#1750 = FILL_AREA_STYLE('',(#1751));
#1751 = FILL_AREA_STYLE_COLOUR('',#1691);
#1752 = CURVE_STYLE('',#1753,POSITIVE_LENGTH_MEASURE(0.1),#1694);
#1753 = DRAUGHTING_PRE_DEFINED_CURVE_FONT('continuous');
#1754 = MECHANICAL_DESIGN_GEOMETRIC_PRESENTATION_REPRESENTATION('',(
    #1755),#1660);
#1755 = STYLED_ITEM('color',(#1756),#1607);
#1756 = PRESENTATION_STYLE_ASSIGNMENT((#1757,#1763));
#1757 = SURFACE_STYLE_USAGE(.BOTH.,#1758);
#1758 = SURFACE_SIDE_STYLE('',(#1759));
#1759 = SURFACE_STYLE_FILL_AREA(#1760);
#1760 = FILL_AREA_STYLE('',(#1761));
#1761 = FILL_AREA_STYLE_COLOUR('',#1762);
#1762 = DRAUGHTING_PRE_DEFINED_COLOUR('white');
#1763 = CURVE_STYLE('',#1764,POSITIVE_LENGTH_MEASURE(0.1),#1694);
#1764 = DRAUGHTING_PRE_DEFINED_CURVE_FONT('continuous');
#1765 = MECHANICAL_DESIGN_GEOMETRIC_PRESENTATION_REPRESENTATION('',(
    #1766,#1775,#1784),#1583);
#1766 = STYLED_ITEM('color',(#1767),#1431);
#1767 = PRESENTATION_STYLE_ASSIGNMENT((#1768,#1773));
#1768 = SURFACE_STYLE_USAGE(.BOTH.,#1769);
#1769 = SURFACE_SIDE_STYLE('',(#1770));
#1770 = SURFACE_STYLE_FILL_AREA(#1771);
#1771 = FILL_AREA_STYLE('',(#1772));
#1772 = FILL_AREA_STYLE_COLOUR('',#1691);
#1773 = CURVE_STYLE('',#1774,POSITIVE_LENGTH_MEASURE(0.1),#1694);
#1774 = DRAUGHTING_PRE_DEFINED_CURVE_FONT('continuous');
#1775 = OVER_RIDING_STYLED_ITEM('overriding color',(#1776),#1431,#1766);
#1776 = PRESENTATION_STYLE_BY_CONTEXT((#1777,#1782),#1676);
#1777 = SURFACE_STYLE_USAGE(.BOTH.,#1778);
#1778 = SURFACE_SIDE_STYLE('',(#1779));
#1779 = SURFACE_STYLE_FILL_AREA(#1780);
#1780 = FILL_AREA_STYLE('',(#1781));
#1781 = FILL_AREA_STYLE_COLOUR('',#1691);
#1782 = CURVE_STYLE('',#1783,POSITIVE_LENGTH_MEASURE(0.1),#1694);
#1783 = DRAUGHTING_PRE_DEFINED_CURVE_FONT('continuous');
#1784 = OVER_RIDING_STYLED_ITEM('overriding color',(#1785),#1431,#1766);
#1785 = PRESENTATION_STYLE_BY_CONTEXT((#1786,#1791),#1682);
#1786 = SURFACE_STYLE_USAGE(.BOTH.,#1787);
#1787 = SURFACE_SIDE_STYLE('',(#1788));
#1788 = SURFACE_STYLE_FILL_AREA(#1789);
#1789 = FILL_AREA_STYLE('',(#1790));
#1790 = FILL_AREA_STYLE_COLOUR('',#1720);
#1791 = CURVE_STYLE('',#1792,POSITIVE_LENGTH_MEASURE(0.1),#1723);
#1792 = DRAUGHTING_PRE_DEFINED_CURVE_FONT('continuous');
ENDSEC;
END-ISO-10303-21;
