%TF.GenerationSoftware,KiCad,Pcbnew,10.0.6*%
%TF.CreationDate,2026-10-04T21:55:50-07:00*%
%TF.ProjectId,Bivalve_Bit_Heart_Discrete,42697661-6c76-4655-9f42-69745f486561,rev?*%
%TF.SameCoordinates,Original*%
%TF.FileFunction,Copper,L2,Bot*%
%TF.FilePolarity,Positive*%
%FSLAX46Y46*%
G04 Gerber Fmt 4.6, Leading zero omitted, Abs format (unit mm)*
G04 Created by KiCad (PCBNEW 10.0.6) date 2026-10-04 21:55:50*
%MOMM*%
%LPD*%
G01*
G04 APERTURE LIST*
%TA.AperFunction,ComponentPad*%
%ADD10R,1.700000X1.700000*%
%TD*%
%TA.AperFunction,ComponentPad*%
%ADD11C,1.700000*%
%TD*%
%TA.AperFunction,ViaPad*%
%ADD12C,0.600000*%
%TD*%
%TA.AperFunction,Conductor*%
%ADD13C,0.300000*%
%TD*%
G04 APERTURE END LIST*
D10*
%TO.P,J1,1,Pin_1_1*%
%TO.N,Net-(J1-Pin_1)*%
X146750000Y-109500000D03*
D11*
%TO.P,J1,2,Pin_2_2*%
%TO.N,Net-(J1-Pin_2)*%
X144210000Y-109500000D03*
%TO.P,J1,3,Pin_3_3*%
%TO.N,VCC*%
X146750000Y-112040000D03*
%TO.P,J1,4,Pin_4_4*%
%TO.N,GND*%
X144210000Y-112040000D03*
%TD*%
D12*
%TO.N,GND*%
X144340000Y-98900000D03*
X142120000Y-98910000D03*
X142500000Y-107600000D03*
X145600000Y-107600000D03*
X148900000Y-98860000D03*
X147200000Y-98800000D03*
%TO.N,Net-(J1-Pin_2)*%
X145755000Y-98820000D03*
%TO.N,Net-(J1-Pin_1)*%
X147311248Y-102200000D03*
X147880000Y-105859998D03*
%TD*%
%TO.N,Net-(J1-Pin_1)*%
D13*
X147880000Y-105859998D02*
X147311248Y-102200000D01*
%TO.N,Net-(J1-Pin_2)*%
X145755000Y-98820000D02*
X145755000Y-99005000D01*
X144210000Y-109500000D02*
X145755000Y-98820000D01*
%TO.N,Net-(J1-Pin_1)*%
X147880000Y-105859998D02*
X147880000Y-105910000D01*
X147880000Y-105859998D02*
X146750000Y-109500000D01*
%TD*%
%TA.AperFunction,Conductor*%
%TO.N,GND*%
G36*
X145221598Y-98405521D02*
G01*
X145234917Y-98409432D01*
X145293695Y-98447206D01*
X145322721Y-98510761D01*
X145322725Y-98510788D01*
X145322956Y-98512397D01*
X145317400Y-98570558D01*
X145315762Y-98575293D01*
X145305964Y-98596751D01*
X145296647Y-98612888D01*
X145288608Y-98626811D01*
X145288607Y-98626814D01*
X145285598Y-98638046D01*
X145285597Y-98638047D01*
X145254500Y-98754108D01*
X145254500Y-98885891D01*
X145255561Y-98893949D01*
X145255543Y-98893951D01*
X145257182Y-98906213D01*
X145258018Y-98906128D01*
X145258637Y-98912193D01*
X145294690Y-99090129D01*
X145296226Y-99097091D01*
X145296411Y-99097865D01*
X145298212Y-99104855D01*
X145301757Y-99117672D01*
X145303580Y-99125165D01*
X145322530Y-99215139D01*
X145325170Y-99238351D01*
X145325737Y-99268338D01*
X145325133Y-99283122D01*
X145317371Y-99360099D01*
X145317371Y-99360103D01*
X145318143Y-99369156D01*
X145317314Y-99397438D01*
X144110736Y-107738056D01*
X144103438Y-107765615D01*
X144100262Y-107773704D01*
X144100262Y-107773705D01*
X144079436Y-107889575D01*
X144077304Y-107899217D01*
X144053144Y-107990961D01*
X144049732Y-108001852D01*
X144025050Y-108069559D01*
X144020186Y-108081066D01*
X143998129Y-108126685D01*
X143988371Y-108143397D01*
X143921868Y-108239243D01*
X143907993Y-108255913D01*
X143796515Y-108368214D01*
X143791985Y-108372552D01*
X143765402Y-108396750D01*
X143763731Y-108398289D01*
X143659262Y-108495431D01*
X143654601Y-108499902D01*
X143654180Y-108500319D01*
X143649584Y-108505016D01*
X143540183Y-108620439D01*
X143533160Y-108628237D01*
X143532410Y-108629114D01*
X143525908Y-108637114D01*
X143413219Y-108783082D01*
X143406344Y-108792530D01*
X143405610Y-108793602D01*
X143399351Y-108803314D01*
X143290946Y-108982358D01*
X143288367Y-108986737D01*
X143284875Y-108992839D01*
X143284569Y-108992664D01*
X143279952Y-109001063D01*
X143279063Y-109002393D01*
X143279056Y-109002405D01*
X143199870Y-109193579D01*
X143199864Y-109193604D01*
X143159500Y-109396527D01*
X143159500Y-109396530D01*
X143159500Y-109603469D01*
X143159500Y-109603471D01*
X143159499Y-109603471D01*
X143199864Y-109806394D01*
X143199868Y-109806412D01*
X143199870Y-109806420D01*
X143279058Y-109997596D01*
X143394023Y-110169655D01*
X143394027Y-110169661D01*
X143540336Y-110315970D01*
X143540340Y-110315973D01*
X143540342Y-110315975D01*
X143540345Y-110315977D01*
X143540349Y-110315980D01*
X143540348Y-110315980D01*
X143540411Y-110316032D01*
X143540448Y-110316046D01*
X143712402Y-110430941D01*
X143903580Y-110510130D01*
X144048052Y-110538867D01*
X144091714Y-110547552D01*
X144103559Y-110549908D01*
X144105794Y-110550409D01*
X144106532Y-110550500D01*
X144313466Y-110550500D01*
X144317586Y-110550500D01*
X144325435Y-110548118D01*
X144516420Y-110510130D01*
X144707598Y-110430941D01*
X144879655Y-110315977D01*
X145025977Y-110169655D01*
X145140941Y-109997598D01*
X145220130Y-109806420D01*
X145260500Y-109603465D01*
X145260500Y-109396535D01*
X145220135Y-109193604D01*
X145220132Y-109193587D01*
X145220130Y-109193582D01*
X145220130Y-109193580D01*
X145217411Y-109187017D01*
X145212006Y-109170930D01*
X145211877Y-109170438D01*
X145116974Y-108913587D01*
X145112364Y-108902178D01*
X145111778Y-108900845D01*
X145106472Y-108889695D01*
X145000344Y-108682926D01*
X144988467Y-108659786D01*
X144985823Y-108654805D01*
X144985523Y-108654258D01*
X144982900Y-108649617D01*
X144971613Y-108630247D01*
X145699500Y-108630247D01*
X145699500Y-110369752D01*
X145711131Y-110428229D01*
X145711132Y-110428230D01*
X145714024Y-110433641D01*
X145717917Y-110438385D01*
X145755447Y-110494552D01*
X145778763Y-110510131D01*
X145811613Y-110532081D01*
X145816358Y-110535975D01*
X145821770Y-110538868D01*
X145872612Y-110548981D01*
X145875337Y-110549703D01*
X145880249Y-110550500D01*
X147619750Y-110550500D01*
X147623876Y-110550500D01*
X147631742Y-110548114D01*
X147634568Y-110547552D01*
X147678229Y-110538868D01*
X147678229Y-110538867D01*
X147678231Y-110538867D01*
X147744552Y-110494552D01*
X147788867Y-110428231D01*
X147788867Y-110428229D01*
X147788868Y-110428229D01*
X147800072Y-110371896D01*
X147800500Y-110369931D01*
X147800500Y-108630063D01*
X147800069Y-108628081D01*
X147788868Y-108571770D01*
X147785975Y-108566358D01*
X147782081Y-108561613D01*
X147780956Y-108559930D01*
X147744552Y-108505447D01*
X147708146Y-108481121D01*
X147688385Y-108467917D01*
X147683639Y-108464022D01*
X147662009Y-108452461D01*
X147662967Y-108450668D01*
X147623967Y-108430268D01*
X147589392Y-108369553D01*
X147589071Y-108368158D01*
X147581290Y-108333447D01*
X147578349Y-108310250D01*
X147576628Y-108255913D01*
X147574049Y-108174489D01*
X147574900Y-108155543D01*
X147595285Y-107988530D01*
X147598204Y-107972975D01*
X147605540Y-107944170D01*
X147606073Y-107936081D01*
X147611377Y-107907486D01*
X148027559Y-106566868D01*
X148039468Y-106540149D01*
X148043474Y-106533430D01*
X148074328Y-106446531D01*
X148080706Y-106431711D01*
X148097007Y-106399739D01*
X148109806Y-106379666D01*
X148170462Y-106302127D01*
X148172352Y-106299772D01*
X148268949Y-106182591D01*
X148270286Y-106180951D01*
X148270466Y-106180728D01*
X148270465Y-106180728D01*
X148274439Y-106175807D01*
X148274566Y-106175909D01*
X148276020Y-106174119D01*
X148275552Y-106173760D01*
X148280495Y-106167316D01*
X148280500Y-106167312D01*
X148346392Y-106053184D01*
X148380500Y-105925890D01*
X148380500Y-105794106D01*
X148346392Y-105666812D01*
X148345493Y-105665255D01*
X148337492Y-105646260D01*
X148336855Y-105646509D01*
X148334640Y-105640836D01*
X148256296Y-105486778D01*
X148253309Y-105481248D01*
X148251488Y-105477875D01*
X148250921Y-105476884D01*
X148245769Y-105468366D01*
X148224540Y-105435110D01*
X148220911Y-105429049D01*
X148177072Y-105350881D01*
X148167656Y-105329644D01*
X148158579Y-105302571D01*
X148154628Y-105287831D01*
X148139830Y-105214963D01*
X148139825Y-105214947D01*
X148136541Y-105206847D01*
X148128927Y-105179299D01*
X147754855Y-102772096D01*
X147753838Y-102742472D01*
X147754467Y-102735129D01*
X147745661Y-102656115D01*
X147744906Y-102641084D01*
X147745233Y-102610059D01*
X147747658Y-102586931D01*
X147766105Y-102495222D01*
X147767287Y-102489947D01*
X147787198Y-102409557D01*
X147788826Y-102402443D01*
X147788998Y-102401625D01*
X147790390Y-102394359D01*
X147809111Y-102286111D01*
X147809680Y-102282645D01*
X147809742Y-102282246D01*
X147809741Y-102282242D01*
X147810720Y-102275952D01*
X147810959Y-102275989D01*
X147811270Y-102274027D01*
X147810687Y-102273951D01*
X147811748Y-102265894D01*
X147811748Y-102134110D01*
X147811748Y-102134108D01*
X147777640Y-102006814D01*
X147777635Y-102006806D01*
X147768811Y-101991521D01*
X147711748Y-101892686D01*
X147618562Y-101799500D01*
X147561498Y-101766554D01*
X147504435Y-101733608D01*
X147440787Y-101716554D01*
X147377140Y-101699500D01*
X147377139Y-101699500D01*
X147245356Y-101699500D01*
X147118056Y-101733609D01*
X147118054Y-101733610D01*
X147003944Y-101799493D01*
X147003930Y-101799502D01*
X147003925Y-101799506D01*
X146910754Y-101892677D01*
X146910750Y-101892682D01*
X146910741Y-101892696D01*
X146844858Y-102006806D01*
X146844857Y-102006808D01*
X146810748Y-102134108D01*
X146810748Y-102265892D01*
X146844855Y-102393187D01*
X146845756Y-102394747D01*
X146853763Y-102413737D01*
X146854394Y-102413491D01*
X146856608Y-102419161D01*
X146934964Y-102573239D01*
X146939675Y-102581975D01*
X146940243Y-102582971D01*
X146945472Y-102591625D01*
X146966719Y-102624908D01*
X146970354Y-102630977D01*
X147014177Y-102709122D01*
X147023588Y-102730348D01*
X147027654Y-102742472D01*
X147032642Y-102757348D01*
X147032665Y-102757415D01*
X147036617Y-102772153D01*
X147048117Y-102828783D01*
X147051419Y-102845041D01*
X147054705Y-102853147D01*
X147062316Y-102880688D01*
X147436389Y-105287895D01*
X147437408Y-105317510D01*
X147436778Y-105324859D01*
X147436779Y-105324870D01*
X147445582Y-105403869D01*
X147446338Y-105418904D01*
X147446012Y-105449922D01*
X147443584Y-105473072D01*
X147425148Y-105564726D01*
X147423948Y-105570077D01*
X147404045Y-105650453D01*
X147402459Y-105657371D01*
X147402276Y-105658236D01*
X147400857Y-105665634D01*
X147382130Y-105773921D01*
X147381550Y-105777454D01*
X147380524Y-105784070D01*
X147380297Y-105784034D01*
X147379993Y-105785972D01*
X147380560Y-105786047D01*
X147379500Y-105794102D01*
X147379500Y-105798898D01*
X147377100Y-105819064D01*
X147377564Y-105819129D01*
X147376722Y-105825159D01*
X147370214Y-105985487D01*
X147370171Y-106001048D01*
X147370232Y-106002798D01*
X147371367Y-106018328D01*
X147380238Y-106098006D01*
X147380686Y-106102916D01*
X147387013Y-106191741D01*
X147386463Y-106215155D01*
X147383407Y-106240922D01*
X147380437Y-106256910D01*
X147363141Y-106324847D01*
X147363141Y-106324848D01*
X147362607Y-106332937D01*
X147357302Y-106361525D01*
X146945112Y-107689292D01*
X146932450Y-107715180D01*
X146933166Y-107715581D01*
X146930184Y-107720898D01*
X146875514Y-107845737D01*
X146865351Y-107864404D01*
X146758631Y-108025743D01*
X146750172Y-108037070D01*
X146684907Y-108114798D01*
X146678355Y-108122006D01*
X146601286Y-108200375D01*
X146593860Y-108207331D01*
X146519370Y-108271575D01*
X146510658Y-108278434D01*
X146434036Y-108333393D01*
X146423866Y-108339960D01*
X146359950Y-108376944D01*
X146348062Y-108382994D01*
X146286349Y-108410327D01*
X146272620Y-108415461D01*
X146256914Y-108420296D01*
X146226355Y-108429703D01*
X146210922Y-108433392D01*
X146165415Y-108441229D01*
X146150677Y-108442867D01*
X146135129Y-108443658D01*
X146122404Y-108446194D01*
X146117821Y-108447108D01*
X146093586Y-108449500D01*
X145880247Y-108449500D01*
X145821770Y-108461131D01*
X145821769Y-108461131D01*
X145821768Y-108461132D01*
X145816355Y-108464024D01*
X145811614Y-108467916D01*
X145755447Y-108505446D01*
X145755446Y-108505447D01*
X145717916Y-108561614D01*
X145714024Y-108566355D01*
X145711132Y-108571768D01*
X145711132Y-108571769D01*
X145711131Y-108571770D01*
X145699500Y-108630247D01*
X144971613Y-108630247D01*
X144943772Y-108582467D01*
X144943340Y-108581699D01*
X144943335Y-108581681D01*
X144942997Y-108581086D01*
X144937820Y-108571770D01*
X144861121Y-108433749D01*
X144856008Y-108423447D01*
X144832497Y-108369977D01*
X144827928Y-108357919D01*
X144810414Y-108303273D01*
X144806762Y-108289021D01*
X144804710Y-108278434D01*
X144794715Y-108226860D01*
X144792804Y-108212607D01*
X144786845Y-108133546D01*
X144786539Y-108120962D01*
X144789283Y-108017627D01*
X144789980Y-108007400D01*
X144804466Y-107875558D01*
X144803675Y-107865493D01*
X144804570Y-107838043D01*
X146011102Y-99497742D01*
X146018894Y-99468949D01*
X146021576Y-99462327D01*
X146035539Y-99389101D01*
X146039210Y-99374644D01*
X146047913Y-99347363D01*
X146057064Y-99325899D01*
X146080282Y-99283122D01*
X146102019Y-99243070D01*
X146104620Y-99238513D01*
X146104717Y-99238351D01*
X146150694Y-99161595D01*
X146155473Y-99153173D01*
X146156000Y-99152191D01*
X146160469Y-99143358D01*
X146212434Y-99034218D01*
X146214495Y-99029754D01*
X146214719Y-99029253D01*
X146214719Y-99029250D01*
X146217348Y-99023372D01*
X146217530Y-99023453D01*
X146218685Y-99020867D01*
X146218279Y-99020699D01*
X146221387Y-99013194D01*
X146221392Y-99013186D01*
X146255500Y-98885892D01*
X146255500Y-98754108D01*
X146221392Y-98626814D01*
X146207031Y-98601941D01*
X146193915Y-98569180D01*
X146190642Y-98555691D01*
X146193963Y-98485901D01*
X146234486Y-98428988D01*
X146235786Y-98427965D01*
X146288971Y-98403686D01*
X146293898Y-98402737D01*
X146317345Y-98400500D01*
X148739554Y-98400500D01*
X148746500Y-98400695D01*
X148753451Y-98401085D01*
X148760361Y-98401667D01*
X148778153Y-98403672D01*
X148828841Y-98409383D01*
X148862594Y-98413186D01*
X148876298Y-98415514D01*
X148889795Y-98418594D01*
X148903161Y-98422444D01*
X148921816Y-98428972D01*
X148990346Y-98452952D01*
X149003193Y-98458273D01*
X149015677Y-98464285D01*
X149027837Y-98471006D01*
X149106057Y-98520155D01*
X149117388Y-98528195D01*
X149128219Y-98536832D01*
X149138590Y-98546100D01*
X149203898Y-98611408D01*
X149213166Y-98621779D01*
X149221803Y-98632610D01*
X149229843Y-98643941D01*
X149278991Y-98722158D01*
X149285715Y-98734323D01*
X149291719Y-98746789D01*
X149297043Y-98759642D01*
X149327554Y-98846838D01*
X149331403Y-98860198D01*
X149334484Y-98873696D01*
X149336813Y-98887406D01*
X149348329Y-98989612D01*
X149348913Y-98996530D01*
X149349304Y-99003479D01*
X149349500Y-99010445D01*
X149349500Y-112489554D01*
X149349304Y-112496521D01*
X149348913Y-112503469D01*
X149348329Y-112510386D01*
X149336813Y-112612592D01*
X149334484Y-112626302D01*
X149331403Y-112639800D01*
X149327554Y-112653160D01*
X149297043Y-112740356D01*
X149291719Y-112753209D01*
X149285715Y-112765675D01*
X149278991Y-112777840D01*
X149229848Y-112856050D01*
X149221803Y-112867388D01*
X149213166Y-112878219D01*
X149203898Y-112888590D01*
X149138590Y-112953898D01*
X149128219Y-112963166D01*
X149117388Y-112971803D01*
X149106050Y-112979848D01*
X149027840Y-113028991D01*
X149015675Y-113035715D01*
X149003209Y-113041719D01*
X148990356Y-113047043D01*
X148903160Y-113077554D01*
X148889798Y-113081403D01*
X148876299Y-113084484D01*
X148862591Y-113086813D01*
X148760387Y-113098329D01*
X148753470Y-113098913D01*
X148746522Y-113099304D01*
X148739555Y-113099500D01*
X147481800Y-113099500D01*
X147446865Y-113094477D01*
X147436011Y-113091290D01*
X147377233Y-113053516D01*
X147348208Y-112989960D01*
X147358151Y-112920803D01*
X147359132Y-112918656D01*
X147403028Y-112867086D01*
X147419655Y-112855977D01*
X147565977Y-112709655D01*
X147680941Y-112537598D01*
X147760130Y-112346420D01*
X147800500Y-112143465D01*
X147800500Y-111936535D01*
X147760130Y-111733580D01*
X147680941Y-111542402D01*
X147566046Y-111370449D01*
X147566036Y-111370417D01*
X147565980Y-111370348D01*
X147565980Y-111370349D01*
X147565977Y-111370345D01*
X147565975Y-111370342D01*
X147565973Y-111370340D01*
X147565970Y-111370336D01*
X147419659Y-111224025D01*
X147295966Y-111141377D01*
X147247604Y-111109062D01*
X147247595Y-111109057D01*
X147124010Y-111057867D01*
X147056420Y-111029870D01*
X147056412Y-111029868D01*
X147056404Y-111029866D01*
X147056394Y-111029864D01*
X146853471Y-110989500D01*
X146853469Y-110989500D01*
X146853465Y-110989500D01*
X146646535Y-110989500D01*
X146646530Y-110989500D01*
X146646528Y-110989500D01*
X146443604Y-111029864D01*
X146443579Y-111029870D01*
X146252404Y-111109057D01*
X146080337Y-111224027D01*
X145934027Y-111370337D01*
X145819057Y-111542404D01*
X145739870Y-111733579D01*
X145739864Y-111733604D01*
X145699500Y-111936527D01*
X145699500Y-111936530D01*
X145699500Y-112143469D01*
X145699500Y-112143471D01*
X145699499Y-112143471D01*
X145739864Y-112346394D01*
X145739870Y-112346421D01*
X145806350Y-112506920D01*
X145806351Y-112506920D01*
X145806352Y-112506922D01*
X145819059Y-112537598D01*
X145869168Y-112612592D01*
X145873793Y-112619513D01*
X145873794Y-112619516D01*
X145934022Y-112709655D01*
X145934028Y-112709662D01*
X146080336Y-112855970D01*
X146080340Y-112855973D01*
X146080342Y-112855975D01*
X146080345Y-112855977D01*
X146090095Y-112862491D01*
X146116353Y-112886077D01*
X146123608Y-112894758D01*
X146151492Y-112958822D01*
X146140313Y-113027792D01*
X146093671Y-113079739D01*
X146091685Y-113080967D01*
X146026472Y-113099500D01*
X144893865Y-113099500D01*
X144858926Y-113094476D01*
X144844733Y-113090308D01*
X144785956Y-113052531D01*
X144757360Y-112991722D01*
X144755330Y-112979541D01*
X144754240Y-112947014D01*
X144755067Y-112938620D01*
X144466149Y-112649702D01*
X144432664Y-112588379D01*
X144437648Y-112518687D01*
X144479520Y-112462754D01*
X144491822Y-112454639D01*
X144517007Y-112440099D01*
X144610099Y-112347007D01*
X144624634Y-112321830D01*
X144675199Y-112273616D01*
X144743805Y-112260391D01*
X144808671Y-112286358D01*
X144819702Y-112296149D01*
X145108619Y-112585066D01*
X145108620Y-112585067D01*
X145108621Y-112585066D01*
X145140495Y-112537366D01*
X145219649Y-112346274D01*
X145219651Y-112346266D01*
X145258483Y-112151039D01*
X145259204Y-112148318D01*
X145260000Y-112143418D01*
X145260000Y-111936581D01*
X145259909Y-111935843D01*
X145259408Y-111933608D01*
X145219656Y-111733757D01*
X145219654Y-111733752D01*
X145219651Y-111733733D01*
X145219649Y-111733725D01*
X145140498Y-111542639D01*
X145140495Y-111542633D01*
X145108621Y-111494932D01*
X145108620Y-111494931D01*
X145108619Y-111494931D01*
X144819702Y-111783849D01*
X144758379Y-111817334D01*
X144688688Y-111812350D01*
X144632754Y-111770479D01*
X144624634Y-111758169D01*
X144610099Y-111732993D01*
X144517007Y-111639901D01*
X144517004Y-111639899D01*
X144517000Y-111639896D01*
X144491828Y-111625363D01*
X144443613Y-111574796D01*
X144430391Y-111506189D01*
X144456359Y-111441324D01*
X144466134Y-111430311D01*
X144755067Y-111141378D01*
X144755067Y-111141377D01*
X144707359Y-111109500D01*
X144707356Y-111109498D01*
X144707355Y-111109498D01*
X144516275Y-111030350D01*
X144516240Y-111030342D01*
X144313424Y-110990000D01*
X144313420Y-110990000D01*
X144106579Y-110990000D01*
X144106574Y-110990000D01*
X143903758Y-111030342D01*
X143903725Y-111030350D01*
X143712636Y-111109502D01*
X143712633Y-111109503D01*
X143712631Y-111109505D01*
X143664932Y-111141377D01*
X143664932Y-111141378D01*
X143953850Y-111430296D01*
X143987335Y-111491619D01*
X143982351Y-111561311D01*
X143940479Y-111617244D01*
X143928173Y-111625362D01*
X143902996Y-111639898D01*
X143902990Y-111639903D01*
X143809903Y-111732990D01*
X143809898Y-111732996D01*
X143795362Y-111758173D01*
X143744793Y-111806387D01*
X143676185Y-111819607D01*
X143611322Y-111793637D01*
X143600296Y-111783850D01*
X143311378Y-111494932D01*
X143311377Y-111494932D01*
X143279505Y-111542631D01*
X143279503Y-111542633D01*
X143279502Y-111542636D01*
X143200350Y-111733725D01*
X143200342Y-111733758D01*
X143160000Y-111936574D01*
X143160000Y-112143424D01*
X143200342Y-112346240D01*
X143200350Y-112346275D01*
X143279498Y-112537355D01*
X143279500Y-112537359D01*
X143311377Y-112585067D01*
X143311378Y-112585067D01*
X143600298Y-112296146D01*
X143661619Y-112262663D01*
X143731310Y-112267647D01*
X143787244Y-112309518D01*
X143795363Y-112321828D01*
X143809896Y-112347000D01*
X143809899Y-112347004D01*
X143809901Y-112347007D01*
X143902993Y-112440099D01*
X143928169Y-112454634D01*
X143976384Y-112505202D01*
X143989606Y-112573809D01*
X143963638Y-112638673D01*
X143953849Y-112649702D01*
X143664930Y-112938620D01*
X143665619Y-112945606D01*
X143664044Y-112980868D01*
X143661289Y-112995394D01*
X143629457Y-113057591D01*
X143571736Y-113092014D01*
X143559821Y-113095226D01*
X143527546Y-113099500D01*
X142260445Y-113099500D01*
X142253479Y-113099304D01*
X142246530Y-113098913D01*
X142239612Y-113098329D01*
X142137406Y-113086813D01*
X142123696Y-113084484D01*
X142110198Y-113081403D01*
X142096838Y-113077554D01*
X142009642Y-113047043D01*
X141996795Y-113041721D01*
X141984319Y-113035713D01*
X141972162Y-113028993D01*
X141893941Y-112979843D01*
X141882610Y-112971803D01*
X141871779Y-112963166D01*
X141861408Y-112953898D01*
X141796100Y-112888590D01*
X141786832Y-112878219D01*
X141778195Y-112867388D01*
X141770157Y-112856060D01*
X141721001Y-112777830D01*
X141714283Y-112765674D01*
X141708280Y-112753210D01*
X141702956Y-112740358D01*
X141692213Y-112709656D01*
X141692213Y-112709655D01*
X141672443Y-112653155D01*
X141668593Y-112639792D01*
X141668338Y-112638673D01*
X141665513Y-112626294D01*
X141663187Y-112612606D01*
X141651668Y-112510368D01*
X141651085Y-112503449D01*
X141650695Y-112496497D01*
X141650500Y-112489552D01*
X141650500Y-99010446D01*
X141650695Y-99003501D01*
X141651085Y-98996549D01*
X141651668Y-98989633D01*
X141663134Y-98887865D01*
X141665669Y-98873270D01*
X141669304Y-98857870D01*
X141672947Y-98845401D01*
X141702957Y-98759638D01*
X141708275Y-98746798D01*
X141714290Y-98734308D01*
X141720996Y-98722177D01*
X141770163Y-98643929D01*
X141778194Y-98632611D01*
X141786831Y-98621780D01*
X141796090Y-98611418D01*
X141861418Y-98546090D01*
X141871780Y-98536831D01*
X141882611Y-98528194D01*
X141893929Y-98520163D01*
X141972177Y-98470996D01*
X141984308Y-98464290D01*
X141996798Y-98458275D01*
X142009627Y-98452960D01*
X142096855Y-98422438D01*
X142110204Y-98418593D01*
X142123704Y-98415512D01*
X142137400Y-98413186D01*
X142226940Y-98403098D01*
X142239648Y-98401666D01*
X142246529Y-98401086D01*
X142253511Y-98400693D01*
X142260446Y-98400500D01*
X145186666Y-98400500D01*
X145221598Y-98405521D01*
G37*
%TD.AperFunction*%
%TD*%
%TA.AperFunction,Conductor*%
%TO.N,Net-(J1-Pin_1)*%
G36*
X147596684Y-102237507D02*
G01*
X147604412Y-102242029D01*
X147606679Y-102250692D01*
X147606617Y-102251091D01*
X147587896Y-102359339D01*
X147587724Y-102360157D01*
X147566071Y-102447590D01*
X147540071Y-102576849D01*
X147540071Y-102576856D01*
X147539207Y-102658960D01*
X147539208Y-102658967D01*
X147550231Y-102757888D01*
X147547741Y-102766490D01*
X147540400Y-102770745D01*
X147266071Y-102813375D01*
X147257369Y-102811259D01*
X147252808Y-102804142D01*
X147233964Y-102711350D01*
X147225350Y-102685663D01*
X147208575Y-102635634D01*
X147144992Y-102522256D01*
X147118688Y-102481050D01*
X147118133Y-102480078D01*
X147039783Y-102326011D01*
X147039087Y-102317083D01*
X147044908Y-102310278D01*
X147045654Y-102309931D01*
X147308011Y-102199430D01*
X147314142Y-102198623D01*
X147596684Y-102237507D01*
G37*
%TD.AperFunction*%
%TD*%
%TA.AperFunction,Conductor*%
%TO.N,Net-(J1-Pin_1)*%
G36*
X147933878Y-105248738D02*
G01*
X147938439Y-105255854D01*
X147957284Y-105348647D01*
X147974850Y-105401036D01*
X147982672Y-105424364D01*
X148046256Y-105537742D01*
X148046264Y-105537755D01*
X148046266Y-105537758D01*
X148046266Y-105537759D01*
X148072552Y-105578937D01*
X148073119Y-105579928D01*
X148151464Y-105733986D01*
X148152160Y-105742914D01*
X148146339Y-105749719D01*
X148145576Y-105750073D01*
X147883239Y-105860566D01*
X147877103Y-105861374D01*
X147594564Y-105822491D01*
X147586835Y-105817968D01*
X147584568Y-105809305D01*
X147584622Y-105808957D01*
X147603353Y-105700646D01*
X147603524Y-105699836D01*
X147625175Y-105612405D01*
X147651175Y-105483147D01*
X147651175Y-105483140D01*
X147652039Y-105401036D01*
X147652038Y-105401035D01*
X147652039Y-105401028D01*
X147641015Y-105302106D01*
X147643504Y-105293507D01*
X147650844Y-105289252D01*
X147925177Y-105246622D01*
X147933878Y-105248738D01*
G37*
%TD.AperFunction*%
%TD*%
%TA.AperFunction,Conductor*%
%TO.N,Net-(J1-Pin_2)*%
G36*
X144590240Y-107840259D02*
G01*
X144597937Y-107844835D01*
X144600195Y-107853116D01*
X144584219Y-107998530D01*
X144584218Y-107998550D01*
X144584218Y-107998553D01*
X144580667Y-108132267D01*
X144582423Y-108155563D01*
X144589326Y-108247159D01*
X144589327Y-108247162D01*
X144608742Y-108347341D01*
X144608745Y-108347351D01*
X144637472Y-108436981D01*
X144637476Y-108436993D01*
X144674048Y-108520165D01*
X144674062Y-108520195D01*
X144765009Y-108683856D01*
X144805343Y-108753077D01*
X144805643Y-108753624D01*
X144923649Y-108983535D01*
X144924215Y-108984823D01*
X145019113Y-109241659D01*
X145018766Y-109250607D01*
X145012193Y-109256689D01*
X145011581Y-109256896D01*
X144214127Y-109502434D01*
X144205212Y-109501593D01*
X144205124Y-109501547D01*
X143471181Y-109105153D01*
X143465530Y-109098206D01*
X143466446Y-109089298D01*
X143466723Y-109088814D01*
X143575144Y-108909744D01*
X143575879Y-108908671D01*
X143688585Y-108762681D01*
X143689341Y-108761797D01*
X143798716Y-108646401D01*
X143799191Y-108645931D01*
X143903657Y-108548791D01*
X143936493Y-108518902D01*
X144074215Y-108380162D01*
X144171914Y-108239354D01*
X144212429Y-108155563D01*
X144248005Y-108057969D01*
X144279373Y-107938856D01*
X144302522Y-107810053D01*
X144307358Y-107802518D01*
X144315710Y-107800545D01*
X144590240Y-107840259D01*
G37*
%TD.AperFunction*%
%TD*%
%TA.AperFunction,Conductor*%
%TO.N,Net-(J1-Pin_2)*%
G36*
X145758155Y-98819771D02*
G01*
X146020857Y-98930058D01*
X146027159Y-98936420D01*
X146027116Y-98945375D01*
X146026892Y-98945876D01*
X145974927Y-99055016D01*
X145974400Y-99055998D01*
X145924737Y-99138910D01*
X145861597Y-99255241D01*
X145861596Y-99255244D01*
X145837398Y-99331101D01*
X145819714Y-99423831D01*
X145814798Y-99431316D01*
X145806546Y-99433218D01*
X145531801Y-99393472D01*
X145524104Y-99388896D01*
X145521835Y-99380719D01*
X145531574Y-99284144D01*
X145531574Y-99284143D01*
X145531027Y-99255241D01*
X145530045Y-99203292D01*
X145502558Y-99072789D01*
X145496282Y-99050094D01*
X145496103Y-99049345D01*
X145460045Y-98871386D01*
X145461761Y-98862598D01*
X145469189Y-98857596D01*
X145469908Y-98857473D01*
X145752050Y-98818967D01*
X145758155Y-98819771D01*
G37*
%TD.AperFunction*%
%TD*%
%TA.AperFunction,Conductor*%
%TO.N,Net-(J1-Pin_1)*%
G36*
X147398528Y-107879396D02*
G01*
X147405412Y-107885121D01*
X147406396Y-107893456D01*
X147393854Y-107942706D01*
X147393853Y-107942713D01*
X147393852Y-107942718D01*
X147367965Y-108154807D01*
X147367852Y-108155733D01*
X147373941Y-108347952D01*
X147393866Y-108436826D01*
X147405247Y-108487591D01*
X147453741Y-108578488D01*
X147516862Y-108631198D01*
X147555670Y-108645150D01*
X147575762Y-108647348D01*
X147583612Y-108651654D01*
X147586119Y-108660250D01*
X147582764Y-108667248D01*
X146759332Y-109491318D01*
X146751061Y-109494748D01*
X146742786Y-109491324D01*
X146741631Y-109489980D01*
X146136735Y-108667512D01*
X146134594Y-108658817D01*
X146139228Y-108651155D01*
X146145564Y-108648895D01*
X146180831Y-108647101D01*
X146192177Y-108645147D01*
X146266618Y-108632326D01*
X146266617Y-108632326D01*
X146266630Y-108632324D01*
X146351725Y-108606127D01*
X146447517Y-108563701D01*
X146540724Y-108509768D01*
X146642417Y-108436826D01*
X146738320Y-108354114D01*
X146833953Y-108256867D01*
X146919654Y-108154803D01*
X147052385Y-107954141D01*
X147118430Y-107803325D01*
X147124886Y-107797123D01*
X147132615Y-107796846D01*
X147398528Y-107879396D01*
G37*
%TD.AperFunction*%
%TD*%
%TA.AperFunction,Conductor*%
%TO.N,Net-(J1-Pin_1)*%
G36*
X147595122Y-105822353D02*
G01*
X147877745Y-105856418D01*
X147883560Y-105858825D01*
X148108570Y-106035228D01*
X148112966Y-106043030D01*
X148110559Y-106051655D01*
X148110379Y-106051878D01*
X148011174Y-106172225D01*
X147928369Y-106278078D01*
X147928364Y-106278085D01*
X147887868Y-106357516D01*
X147887866Y-106357519D01*
X147849820Y-106464668D01*
X147843822Y-106471318D01*
X147835325Y-106471927D01*
X147570159Y-106389609D01*
X147563274Y-106383883D01*
X147562290Y-106375548D01*
X147584928Y-106286626D01*
X147594216Y-106208321D01*
X147594216Y-106208318D01*
X147594216Y-106208313D01*
X147585203Y-106081789D01*
X147575607Y-105995603D01*
X147575545Y-105993833D01*
X147582053Y-105833496D01*
X147585812Y-105825369D01*
X147594218Y-105822281D01*
X147595122Y-105822353D01*
G37*
%TD.AperFunction*%
%TD*%
M02*
