%TF.GenerationSoftware,KiCad,Pcbnew,10.0.6*%
%TF.CreationDate,2026-10-04T21:55:50-07:00*%
%TF.ProjectId,Bivalve_Bit_Heart_Discrete,42697661-6c76-4655-9f42-69745f486561,rev?*%
%TF.SameCoordinates,Original*%
%TF.FileFunction,Legend,Top*%
%TF.FilePolarity,Positive*%
%FSLAX46Y46*%
G04 Gerber Fmt 4.6, Leading zero omitted, Abs format (unit mm)*
G04 Created by KiCad (PCBNEW 10.0.6) date 2026-10-04 21:55:50*
%MOMM*%
%LPD*%
G01*
G04 APERTURE LIST*
%ADD10C,0.127000*%
%ADD11C,0.100000*%
%ADD12C,0.150000*%
%ADD13C,0.120000*%
%ADD14C,0.200000*%
G04 APERTURE END LIST*
D10*
X142341062Y-112383114D02*
X142307729Y-112449781D01*
X142307729Y-112449781D02*
X142307729Y-112549781D01*
X142307729Y-112549781D02*
X142341062Y-112649781D01*
X142341062Y-112649781D02*
X142407729Y-112716448D01*
X142407729Y-112716448D02*
X142474396Y-112749781D01*
X142474396Y-112749781D02*
X142607729Y-112783114D01*
X142607729Y-112783114D02*
X142707729Y-112783114D01*
X142707729Y-112783114D02*
X142841062Y-112749781D01*
X142841062Y-112749781D02*
X142907729Y-112716448D01*
X142907729Y-112716448D02*
X142974396Y-112649781D01*
X142974396Y-112649781D02*
X143007729Y-112549781D01*
X143007729Y-112549781D02*
X143007729Y-112483114D01*
X143007729Y-112483114D02*
X142974396Y-112383114D01*
X142974396Y-112383114D02*
X142941062Y-112349781D01*
X142941062Y-112349781D02*
X142707729Y-112349781D01*
X142707729Y-112349781D02*
X142707729Y-112483114D01*
X143007729Y-112049781D02*
X142307729Y-112049781D01*
X142307729Y-112049781D02*
X143007729Y-111649781D01*
X143007729Y-111649781D02*
X142307729Y-111649781D01*
X143007729Y-111316448D02*
X142307729Y-111316448D01*
X142307729Y-111316448D02*
X142307729Y-111149781D01*
X142307729Y-111149781D02*
X142341062Y-111049781D01*
X142341062Y-111049781D02*
X142407729Y-110983115D01*
X142407729Y-110983115D02*
X142474396Y-110949781D01*
X142474396Y-110949781D02*
X142607729Y-110916448D01*
X142607729Y-110916448D02*
X142707729Y-110916448D01*
X142707729Y-110916448D02*
X142841062Y-110949781D01*
X142841062Y-110949781D02*
X142907729Y-110983115D01*
X142907729Y-110983115D02*
X142974396Y-111049781D01*
X142974396Y-111049781D02*
X143007729Y-111149781D01*
X143007729Y-111149781D02*
X143007729Y-111316448D01*
X148007729Y-112849781D02*
X148707729Y-112616448D01*
X148707729Y-112616448D02*
X148007729Y-112383114D01*
X148641062Y-111749781D02*
X148674396Y-111783114D01*
X148674396Y-111783114D02*
X148707729Y-111883114D01*
X148707729Y-111883114D02*
X148707729Y-111949781D01*
X148707729Y-111949781D02*
X148674396Y-112049781D01*
X148674396Y-112049781D02*
X148607729Y-112116448D01*
X148607729Y-112116448D02*
X148541062Y-112149781D01*
X148541062Y-112149781D02*
X148407729Y-112183114D01*
X148407729Y-112183114D02*
X148307729Y-112183114D01*
X148307729Y-112183114D02*
X148174396Y-112149781D01*
X148174396Y-112149781D02*
X148107729Y-112116448D01*
X148107729Y-112116448D02*
X148041062Y-112049781D01*
X148041062Y-112049781D02*
X148007729Y-111949781D01*
X148007729Y-111949781D02*
X148007729Y-111883114D01*
X148007729Y-111883114D02*
X148041062Y-111783114D01*
X148041062Y-111783114D02*
X148074396Y-111749781D01*
X148641062Y-111049781D02*
X148674396Y-111083114D01*
X148674396Y-111083114D02*
X148707729Y-111183114D01*
X148707729Y-111183114D02*
X148707729Y-111249781D01*
X148707729Y-111249781D02*
X148674396Y-111349781D01*
X148674396Y-111349781D02*
X148607729Y-111416448D01*
X148607729Y-111416448D02*
X148541062Y-111449781D01*
X148541062Y-111449781D02*
X148407729Y-111483114D01*
X148407729Y-111483114D02*
X148307729Y-111483114D01*
X148307729Y-111483114D02*
X148174396Y-111449781D01*
X148174396Y-111449781D02*
X148107729Y-111416448D01*
X148107729Y-111416448D02*
X148041062Y-111349781D01*
X148041062Y-111349781D02*
X148007729Y-111249781D01*
X148007729Y-111249781D02*
X148007729Y-111183114D01*
X148007729Y-111183114D02*
X148041062Y-111083114D01*
X148041062Y-111083114D02*
X148074396Y-111049781D01*
X143057396Y-110364067D02*
X143095491Y-110249781D01*
X143095491Y-110249781D02*
X143095491Y-110059305D01*
X143095491Y-110059305D02*
X143057396Y-109983114D01*
X143057396Y-109983114D02*
X143019300Y-109945019D01*
X143019300Y-109945019D02*
X142943110Y-109906924D01*
X142943110Y-109906924D02*
X142866919Y-109906924D01*
X142866919Y-109906924D02*
X142790729Y-109945019D01*
X142790729Y-109945019D02*
X142752634Y-109983114D01*
X142752634Y-109983114D02*
X142714538Y-110059305D01*
X142714538Y-110059305D02*
X142676443Y-110211686D01*
X142676443Y-110211686D02*
X142638348Y-110287876D01*
X142638348Y-110287876D02*
X142600253Y-110325971D01*
X142600253Y-110325971D02*
X142524062Y-110364067D01*
X142524062Y-110364067D02*
X142447872Y-110364067D01*
X142447872Y-110364067D02*
X142371681Y-110325971D01*
X142371681Y-110325971D02*
X142333586Y-110287876D01*
X142333586Y-110287876D02*
X142295491Y-110211686D01*
X142295491Y-110211686D02*
X142295491Y-110021209D01*
X142295491Y-110021209D02*
X142333586Y-109906924D01*
X143019300Y-109106923D02*
X143057396Y-109145019D01*
X143057396Y-109145019D02*
X143095491Y-109259304D01*
X143095491Y-109259304D02*
X143095491Y-109335495D01*
X143095491Y-109335495D02*
X143057396Y-109449781D01*
X143057396Y-109449781D02*
X142981205Y-109525971D01*
X142981205Y-109525971D02*
X142905015Y-109564066D01*
X142905015Y-109564066D02*
X142752634Y-109602162D01*
X142752634Y-109602162D02*
X142638348Y-109602162D01*
X142638348Y-109602162D02*
X142485967Y-109564066D01*
X142485967Y-109564066D02*
X142409776Y-109525971D01*
X142409776Y-109525971D02*
X142333586Y-109449781D01*
X142333586Y-109449781D02*
X142295491Y-109335495D01*
X142295491Y-109335495D02*
X142295491Y-109259304D01*
X142295491Y-109259304D02*
X142333586Y-109145019D01*
X142333586Y-109145019D02*
X142371681Y-109106923D01*
X143095491Y-108383114D02*
X143095491Y-108764066D01*
X143095491Y-108764066D02*
X142295491Y-108764066D01*
X148707396Y-110434067D02*
X148745491Y-110319781D01*
X148745491Y-110319781D02*
X148745491Y-110129305D01*
X148745491Y-110129305D02*
X148707396Y-110053114D01*
X148707396Y-110053114D02*
X148669300Y-110015019D01*
X148669300Y-110015019D02*
X148593110Y-109976924D01*
X148593110Y-109976924D02*
X148516919Y-109976924D01*
X148516919Y-109976924D02*
X148440729Y-110015019D01*
X148440729Y-110015019D02*
X148402634Y-110053114D01*
X148402634Y-110053114D02*
X148364538Y-110129305D01*
X148364538Y-110129305D02*
X148326443Y-110281686D01*
X148326443Y-110281686D02*
X148288348Y-110357876D01*
X148288348Y-110357876D02*
X148250253Y-110395971D01*
X148250253Y-110395971D02*
X148174062Y-110434067D01*
X148174062Y-110434067D02*
X148097872Y-110434067D01*
X148097872Y-110434067D02*
X148021681Y-110395971D01*
X148021681Y-110395971D02*
X147983586Y-110357876D01*
X147983586Y-110357876D02*
X147945491Y-110281686D01*
X147945491Y-110281686D02*
X147945491Y-110091209D01*
X147945491Y-110091209D02*
X147983586Y-109976924D01*
X148745491Y-109634066D02*
X147945491Y-109634066D01*
X147945491Y-109634066D02*
X147945491Y-109443590D01*
X147945491Y-109443590D02*
X147983586Y-109329304D01*
X147983586Y-109329304D02*
X148059776Y-109253114D01*
X148059776Y-109253114D02*
X148135967Y-109215019D01*
X148135967Y-109215019D02*
X148288348Y-109176923D01*
X148288348Y-109176923D02*
X148402634Y-109176923D01*
X148402634Y-109176923D02*
X148555015Y-109215019D01*
X148555015Y-109215019D02*
X148631205Y-109253114D01*
X148631205Y-109253114D02*
X148707396Y-109329304D01*
X148707396Y-109329304D02*
X148745491Y-109443590D01*
X148745491Y-109443590D02*
X148745491Y-109634066D01*
X148516919Y-108872162D02*
X148516919Y-108491209D01*
X148745491Y-108948352D02*
X147945491Y-108681685D01*
X147945491Y-108681685D02*
X148745491Y-108415019D01*
D11*
X141803884Y-102291466D02*
X142565789Y-102291466D01*
X142184836Y-102672419D02*
X142184836Y-101910514D01*
D12*
X148000000Y-98887628D02*
X147971428Y-98916200D01*
X147971428Y-98916200D02*
X147885714Y-98944771D01*
X147885714Y-98944771D02*
X147828571Y-98944771D01*
X147828571Y-98944771D02*
X147742857Y-98916200D01*
X147742857Y-98916200D02*
X147685714Y-98859057D01*
X147685714Y-98859057D02*
X147657143Y-98801914D01*
X147657143Y-98801914D02*
X147628571Y-98687628D01*
X147628571Y-98687628D02*
X147628571Y-98601914D01*
X147628571Y-98601914D02*
X147657143Y-98487628D01*
X147657143Y-98487628D02*
X147685714Y-98430485D01*
X147685714Y-98430485D02*
X147742857Y-98373342D01*
X147742857Y-98373342D02*
X147828571Y-98344771D01*
X147828571Y-98344771D02*
X147885714Y-98344771D01*
X147885714Y-98344771D02*
X147971428Y-98373342D01*
X147971428Y-98373342D02*
X148000000Y-98401914D01*
X148571428Y-98944771D02*
X148228571Y-98944771D01*
X148400000Y-98944771D02*
X148400000Y-98344771D01*
X148400000Y-98344771D02*
X148342857Y-98430485D01*
X148342857Y-98430485D02*
X148285714Y-98487628D01*
X148285714Y-98487628D02*
X148228571Y-98516200D01*
X148769771Y-107617142D02*
X149255485Y-107617142D01*
X149255485Y-107617142D02*
X149312628Y-107588571D01*
X149312628Y-107588571D02*
X149341200Y-107560000D01*
X149341200Y-107560000D02*
X149369771Y-107502857D01*
X149369771Y-107502857D02*
X149369771Y-107388571D01*
X149369771Y-107388571D02*
X149341200Y-107331428D01*
X149341200Y-107331428D02*
X149312628Y-107302857D01*
X149312628Y-107302857D02*
X149255485Y-107274285D01*
X149255485Y-107274285D02*
X148769771Y-107274285D01*
X149369771Y-106674286D02*
X149369771Y-107017143D01*
X149369771Y-106845714D02*
X148769771Y-106845714D01*
X148769771Y-106845714D02*
X148855485Y-106902857D01*
X148855485Y-106902857D02*
X148912628Y-106960000D01*
X148912628Y-106960000D02*
X148941200Y-107017143D01*
X145242857Y-98369771D02*
X145242857Y-98855485D01*
X145242857Y-98855485D02*
X145271428Y-98912628D01*
X145271428Y-98912628D02*
X145300000Y-98941200D01*
X145300000Y-98941200D02*
X145357142Y-98969771D01*
X145357142Y-98969771D02*
X145471428Y-98969771D01*
X145471428Y-98969771D02*
X145528571Y-98941200D01*
X145528571Y-98941200D02*
X145557142Y-98912628D01*
X145557142Y-98912628D02*
X145585714Y-98855485D01*
X145585714Y-98855485D02*
X145585714Y-98369771D01*
X145842856Y-98426914D02*
X145871428Y-98398342D01*
X145871428Y-98398342D02*
X145928571Y-98369771D01*
X145928571Y-98369771D02*
X146071428Y-98369771D01*
X146071428Y-98369771D02*
X146128571Y-98398342D01*
X146128571Y-98398342D02*
X146157142Y-98426914D01*
X146157142Y-98426914D02*
X146185713Y-98484057D01*
X146185713Y-98484057D02*
X146185713Y-98541200D01*
X146185713Y-98541200D02*
X146157142Y-98626914D01*
X146157142Y-98626914D02*
X145814285Y-98969771D01*
X145814285Y-98969771D02*
X146185713Y-98969771D01*
X145242857Y-107126914D02*
X145185714Y-107098342D01*
X145185714Y-107098342D02*
X145128571Y-107041200D01*
X145128571Y-107041200D02*
X145042857Y-106955485D01*
X145042857Y-106955485D02*
X144985714Y-106926914D01*
X144985714Y-106926914D02*
X144928571Y-106926914D01*
X144957142Y-107069771D02*
X144900000Y-107041200D01*
X144900000Y-107041200D02*
X144842857Y-106984057D01*
X144842857Y-106984057D02*
X144814285Y-106869771D01*
X144814285Y-106869771D02*
X144814285Y-106669771D01*
X144814285Y-106669771D02*
X144842857Y-106555485D01*
X144842857Y-106555485D02*
X144900000Y-106498342D01*
X144900000Y-106498342D02*
X144957142Y-106469771D01*
X144957142Y-106469771D02*
X145071428Y-106469771D01*
X145071428Y-106469771D02*
X145128571Y-106498342D01*
X145128571Y-106498342D02*
X145185714Y-106555485D01*
X145185714Y-106555485D02*
X145214285Y-106669771D01*
X145214285Y-106669771D02*
X145214285Y-106869771D01*
X145214285Y-106869771D02*
X145185714Y-106984057D01*
X145185714Y-106984057D02*
X145128571Y-107041200D01*
X145128571Y-107041200D02*
X145071428Y-107069771D01*
X145071428Y-107069771D02*
X144957142Y-107069771D01*
X145785713Y-107069771D02*
X145442856Y-107069771D01*
X145614285Y-107069771D02*
X145614285Y-106469771D01*
X145614285Y-106469771D02*
X145557142Y-106555485D01*
X145557142Y-106555485D02*
X145499999Y-106612628D01*
X145499999Y-106612628D02*
X145442856Y-106641200D01*
D10*
X142957143Y-102870967D02*
X142957143Y-102270967D01*
X142957143Y-102270967D02*
X143100000Y-102270967D01*
X143100000Y-102270967D02*
X143185714Y-102299538D01*
X143185714Y-102299538D02*
X143242857Y-102356681D01*
X143242857Y-102356681D02*
X143271428Y-102413824D01*
X143271428Y-102413824D02*
X143300000Y-102528110D01*
X143300000Y-102528110D02*
X143300000Y-102613824D01*
X143300000Y-102613824D02*
X143271428Y-102728110D01*
X143271428Y-102728110D02*
X143242857Y-102785253D01*
X143242857Y-102785253D02*
X143185714Y-102842396D01*
X143185714Y-102842396D02*
X143100000Y-102870967D01*
X143100000Y-102870967D02*
X142957143Y-102870967D01*
X143871428Y-102870967D02*
X143528571Y-102870967D01*
X143700000Y-102870967D02*
X143700000Y-102270967D01*
X143700000Y-102270967D02*
X143642857Y-102356681D01*
X143642857Y-102356681D02*
X143585714Y-102413824D01*
X143585714Y-102413824D02*
X143528571Y-102442396D01*
D12*
X147900000Y-104569771D02*
X147700000Y-104284057D01*
X147557143Y-104569771D02*
X147557143Y-103969771D01*
X147557143Y-103969771D02*
X147785714Y-103969771D01*
X147785714Y-103969771D02*
X147842857Y-103998342D01*
X147842857Y-103998342D02*
X147871428Y-104026914D01*
X147871428Y-104026914D02*
X147900000Y-104084057D01*
X147900000Y-104084057D02*
X147900000Y-104169771D01*
X147900000Y-104169771D02*
X147871428Y-104226914D01*
X147871428Y-104226914D02*
X147842857Y-104255485D01*
X147842857Y-104255485D02*
X147785714Y-104284057D01*
X147785714Y-104284057D02*
X147557143Y-104284057D01*
X148471428Y-104569771D02*
X148128571Y-104569771D01*
X148300000Y-104569771D02*
X148300000Y-103969771D01*
X148300000Y-103969771D02*
X148242857Y-104055485D01*
X148242857Y-104055485D02*
X148185714Y-104112628D01*
X148185714Y-104112628D02*
X148128571Y-104141200D01*
X142509771Y-106889999D02*
X142224057Y-107089999D01*
X142509771Y-107232856D02*
X141909771Y-107232856D01*
X141909771Y-107232856D02*
X141909771Y-107004285D01*
X141909771Y-107004285D02*
X141938342Y-106947142D01*
X141938342Y-106947142D02*
X141966914Y-106918571D01*
X141966914Y-106918571D02*
X142024057Y-106889999D01*
X142024057Y-106889999D02*
X142109771Y-106889999D01*
X142109771Y-106889999D02*
X142166914Y-106918571D01*
X142166914Y-106918571D02*
X142195485Y-106947142D01*
X142195485Y-106947142D02*
X142224057Y-107004285D01*
X142224057Y-107004285D02*
X142224057Y-107232856D01*
X141966914Y-106661428D02*
X141938342Y-106632856D01*
X141938342Y-106632856D02*
X141909771Y-106575714D01*
X141909771Y-106575714D02*
X141909771Y-106432856D01*
X141909771Y-106432856D02*
X141938342Y-106375714D01*
X141938342Y-106375714D02*
X141966914Y-106347142D01*
X141966914Y-106347142D02*
X142024057Y-106318571D01*
X142024057Y-106318571D02*
X142081200Y-106318571D01*
X142081200Y-106318571D02*
X142166914Y-106347142D01*
X142166914Y-106347142D02*
X142509771Y-106689999D01*
X142509771Y-106689999D02*
X142509771Y-106318571D01*
%TO.C,C1*%
D13*
X147590000Y-100334420D02*
X147590000Y-100615580D01*
X148610000Y-100334420D02*
X148610000Y-100615580D01*
%TO.C,U1*%
X146510000Y-106040000D02*
X146370000Y-105850000D01*
X146650000Y-105850000D01*
X146510000Y-106040000D01*
G36*
X146510000Y-106040000D02*
G01*
X146370000Y-105850000D01*
X146650000Y-105850000D01*
X146510000Y-106040000D01*
G37*
X148610000Y-108270000D02*
X146390000Y-108270000D01*
X146800748Y-106050000D02*
X148610000Y-106050000D01*
%TO.C,U2*%
D14*
X146766803Y-98750000D02*
G75*
G02*
X146543197Y-98750000I-111803J0D01*
G01*
X146543197Y-98750000D02*
G75*
G02*
X146766803Y-98750000I111803J0D01*
G01*
D10*
X146879000Y-99600000D02*
X146879000Y-101700000D01*
X144631000Y-101700000D02*
X144631000Y-99600000D01*
%TO.C,Q1*%
D13*
X144477500Y-103190000D02*
X145997500Y-103190000D01*
X144477500Y-103240000D02*
X144477500Y-103190000D01*
X144477500Y-105140000D02*
X144477500Y-104360000D01*
X144477500Y-106310000D02*
X144477500Y-106260000D01*
X145997500Y-103190000D02*
X145997500Y-104190000D01*
X145997500Y-105310000D02*
X145997500Y-106310000D01*
X145997500Y-106310000D02*
X144477500Y-106310000D01*
X143937500Y-104370000D02*
X144177500Y-104700000D01*
X143697500Y-104700000D01*
X143937500Y-104370000D01*
G36*
X144177500Y-104700000D02*
G01*
X143697500Y-104700000D01*
X143937500Y-104370000D01*
X144177500Y-104700000D01*
G37*
%TO.C,D1*%
X142290000Y-98952500D02*
X142290000Y-101637500D01*
X144210000Y-98952500D02*
X142290000Y-98952500D01*
X144210000Y-101637500D02*
X144210000Y-98952500D01*
%TO.C,R1*%
X148237258Y-102777500D02*
X147762742Y-102777500D01*
X148237258Y-103822500D02*
X147762742Y-103822500D01*
%TO.C,R2*%
X141777500Y-104962258D02*
X141777500Y-104487742D01*
X142822500Y-104962258D02*
X142822500Y-104487742D01*
%TD*%
M02*
